<svg xmlns="http://www.w3.org/2000/svg" xmlns:xlink="http://www.w3.org/1999/xlink" width="428" height="1124" viewBox="0 0 428 1124">
  <defs>
    <clipPath id="clip-path">
      <rect width="10.444" height="7.224" fill="none"/>
    </clipPath>
    <clipPath id="clip-Categorias-mobile">
      <rect width="428" height="1124"/>
    </clipPath>
  </defs>
  <g id="Categorias-mobile" clip-path="url(#clip-Categorias-mobile)">
    <rect width="428" height="1124" fill="#fff"/>
    <g id="Componente_2_21" data-name="Componente 2 – 21" transform="translate(45 171)">
      <text id="Categoria_1" data-name="Categoria 1" transform="translate(0 14)" font-size="18" font-family="TektonPro-Bold, Tekton Pro" font-weight="700"><tspan x="0" y="0">Categoria 1</tspan></text>
      <g id="Icon_-_Delete" data-name="Icon - Delete" transform="translate(320)">
        <rect id="Square" width="19" height="19" fill="none"/>
        <path id="Icon_-_Delete-2" data-name="Icon - Delete" d="M3.088,16.773c-1.321-.552-1.471-1.78-1.476-3.07-.016-3.468.02-6.937.079-10.4L.549,3.277a.569.569,0,0,1,0-1.138l4.012.077c-.077-.7-.205-1.612.45-1.992A4.811,4.811,0,0,1,7.363.068c.159.006.334,0,.514,0A3.844,3.844,0,0,1,9.533.285c.763.378.614,1.305.548,2.036l4.252.082a.569.569,0,0,1,0,1.137l-1.4-.027q.158,2.6.315,5.208c.1,1.71.356,3.482.287,5.194A2.666,2.666,0,0,1,11.874,16.5a8.845,8.845,0,0,1-2.163.245l-2.734.194c-.669.048-1.386.14-2.092.14A4.64,4.64,0,0,1,3.088,16.773Zm-.34-5.089c0,1.068-.433,3.435.694,4.012.988.506,2.486.181,3.536.106a32.16,32.16,0,0,0,4.3-.32c1.624-.345,1.088-2.651,1.015-3.841q-.247-4.074-.494-8.149L2.829,3.32Q2.757,7.5,2.748,11.684ZM5.778,1.2c-.2.1-.132.635-.082,1.04L8.945,2.3c.051-.549.117-1.024-.579-1.053-.377-.015-.755-.034-1.132-.046-.236-.007-.655-.077-1-.077A1.05,1.05,0,0,0,5.778,1.2ZM4.918,12.479a47.762,47.762,0,0,1-.1-6.12c.035-.73,1.173-.732,1.138,0a47.822,47.822,0,0,0,.1,6.12.487.487,0,0,1-.523.546A.592.592,0,0,1,4.918,12.479ZM8.68,12.36q-.1-2.943.077-5.881c.045-.729,1.183-.731,1.138,0q-.182,2.939-.077,5.881a.515.515,0,0,1-.548.549A.562.562,0,0,1,8.68,12.36Z" transform="translate(2 0.001)" stroke="rgba(0,0,0,0)" stroke-width="1"/>
      </g>
    </g>
    <g id="Componente_2_22" data-name="Componente 2 – 22" transform="translate(45 206)">
      <text id="Categoria_2" data-name="Categoria 2" transform="translate(0 14)" font-size="18" font-family="TektonPro-Bold, Tekton Pro" font-weight="700"><tspan x="0" y="0">Categoria 2</tspan></text>
      <g id="Icon_-_Delete-3" data-name="Icon - Delete" transform="translate(320)">
        <rect id="Square-2" data-name="Square" width="19" height="19" fill="none"/>
        <path id="Icon_-_Delete-4" data-name="Icon - Delete" d="M3.088,16.773c-1.321-.552-1.471-1.78-1.476-3.07-.016-3.468.02-6.937.079-10.4L.549,3.277a.569.569,0,0,1,0-1.138l4.012.077c-.077-.7-.205-1.612.45-1.992A4.811,4.811,0,0,1,7.363.068c.159.006.334,0,.514,0A3.844,3.844,0,0,1,9.533.285c.763.378.614,1.305.548,2.036l4.252.082a.569.569,0,0,1,0,1.137l-1.4-.027q.158,2.6.315,5.208c.1,1.71.356,3.482.287,5.194A2.666,2.666,0,0,1,11.874,16.5a8.845,8.845,0,0,1-2.163.245l-2.734.194c-.669.048-1.386.14-2.092.14A4.64,4.64,0,0,1,3.088,16.773Zm-.34-5.089c0,1.068-.433,3.435.694,4.012.988.506,2.486.181,3.536.106a32.16,32.16,0,0,0,4.3-.32c1.624-.345,1.088-2.651,1.015-3.841q-.247-4.074-.494-8.149L2.829,3.32Q2.757,7.5,2.748,11.684ZM5.778,1.2c-.2.1-.132.635-.082,1.04L8.945,2.3c.051-.549.117-1.024-.579-1.053-.377-.015-.755-.034-1.132-.046-.236-.007-.655-.077-1-.077A1.05,1.05,0,0,0,5.778,1.2ZM4.918,12.479a47.762,47.762,0,0,1-.1-6.12c.035-.73,1.173-.732,1.138,0a47.822,47.822,0,0,0,.1,6.12.487.487,0,0,1-.523.546A.592.592,0,0,1,4.918,12.479ZM8.68,12.36q-.1-2.943.077-5.881c.045-.729,1.183-.731,1.138,0q-.182,2.939-.077,5.881a.515.515,0,0,1-.548.549A.562.562,0,0,1,8.68,12.36Z" transform="translate(2 0.001)" stroke="rgba(0,0,0,0)" stroke-width="1"/>
      </g>
    </g>
    <g id="Componente_2_23" data-name="Componente 2 – 23" transform="translate(45 241)">
      <text id="Categoria_3" data-name="Categoria 3" transform="translate(0 14)" font-size="18" font-family="TektonPro-Bold, Tekton Pro" font-weight="700"><tspan x="0" y="0">Categoria 3</tspan></text>
      <g id="Icon_-_Delete-5" data-name="Icon - Delete" transform="translate(320)">
        <rect id="Square-3" data-name="Square" width="19" height="19" fill="none"/>
        <path id="Icon_-_Delete-6" data-name="Icon - Delete" d="M3.088,16.773c-1.321-.552-1.471-1.78-1.476-3.07-.016-3.468.02-6.937.079-10.4L.549,3.277a.569.569,0,0,1,0-1.138l4.012.077c-.077-.7-.205-1.612.45-1.992A4.811,4.811,0,0,1,7.363.068c.159.006.334,0,.514,0A3.844,3.844,0,0,1,9.533.285c.763.378.614,1.305.548,2.036l4.252.082a.569.569,0,0,1,0,1.137l-1.4-.027q.158,2.6.315,5.208c.1,1.71.356,3.482.287,5.194A2.666,2.666,0,0,1,11.874,16.5a8.845,8.845,0,0,1-2.163.245l-2.734.194c-.669.048-1.386.14-2.092.14A4.64,4.64,0,0,1,3.088,16.773Zm-.34-5.089c0,1.068-.433,3.435.694,4.012.988.506,2.486.181,3.536.106a32.16,32.16,0,0,0,4.3-.32c1.624-.345,1.088-2.651,1.015-3.841q-.247-4.074-.494-8.149L2.829,3.32Q2.757,7.5,2.748,11.684ZM5.778,1.2c-.2.1-.132.635-.082,1.04L8.945,2.3c.051-.549.117-1.024-.579-1.053-.377-.015-.755-.034-1.132-.046-.236-.007-.655-.077-1-.077A1.05,1.05,0,0,0,5.778,1.2ZM4.918,12.479a47.762,47.762,0,0,1-.1-6.12c.035-.73,1.173-.732,1.138,0a47.822,47.822,0,0,0,.1,6.12.487.487,0,0,1-.523.546A.592.592,0,0,1,4.918,12.479ZM8.68,12.36q-.1-2.943.077-5.881c.045-.729,1.183-.731,1.138,0q-.182,2.939-.077,5.881a.515.515,0,0,1-.548.549A.562.562,0,0,1,8.68,12.36Z" transform="translate(2 0.001)" stroke="rgba(0,0,0,0)" stroke-width="1"/>
      </g>
    </g>
    <g id="Componente_2_24" data-name="Componente 2 – 24" transform="translate(45 276)">
      <text id="Categoria_4" data-name="Categoria 4" transform="translate(0 14)" font-size="18" font-family="TektonPro-Bold, Tekton Pro" font-weight="700"><tspan x="0" y="0">Categoria 4</tspan></text>
      <g id="Icon_-_Delete-7" data-name="Icon - Delete" transform="translate(320)">
        <rect id="Square-4" data-name="Square" width="19" height="19" fill="none"/>
        <path id="Icon_-_Delete-8" data-name="Icon - Delete" d="M3.088,16.773c-1.321-.552-1.471-1.78-1.476-3.07-.016-3.468.02-6.937.079-10.4L.549,3.277a.569.569,0,0,1,0-1.138l4.012.077c-.077-.7-.205-1.612.45-1.992A4.811,4.811,0,0,1,7.363.068c.159.006.334,0,.514,0A3.844,3.844,0,0,1,9.533.285c.763.378.614,1.305.548,2.036l4.252.082a.569.569,0,0,1,0,1.137l-1.4-.027q.158,2.6.315,5.208c.1,1.71.356,3.482.287,5.194A2.666,2.666,0,0,1,11.874,16.5a8.845,8.845,0,0,1-2.163.245l-2.734.194c-.669.048-1.386.14-2.092.14A4.64,4.64,0,0,1,3.088,16.773Zm-.34-5.089c0,1.068-.433,3.435.694,4.012.988.506,2.486.181,3.536.106a32.16,32.16,0,0,0,4.3-.32c1.624-.345,1.088-2.651,1.015-3.841q-.247-4.074-.494-8.149L2.829,3.32Q2.757,7.5,2.748,11.684ZM5.778,1.2c-.2.1-.132.635-.082,1.04L8.945,2.3c.051-.549.117-1.024-.579-1.053-.377-.015-.755-.034-1.132-.046-.236-.007-.655-.077-1-.077A1.05,1.05,0,0,0,5.778,1.2ZM4.918,12.479a47.762,47.762,0,0,1-.1-6.12c.035-.73,1.173-.732,1.138,0a47.822,47.822,0,0,0,.1,6.12.487.487,0,0,1-.523.546A.592.592,0,0,1,4.918,12.479ZM8.68,12.36q-.1-2.943.077-5.881c.045-.729,1.183-.731,1.138,0q-.182,2.939-.077,5.881a.515.515,0,0,1-.548.549A.562.562,0,0,1,8.68,12.36Z" transform="translate(2 0.001)" stroke="rgba(0,0,0,0)" stroke-width="1"/>
      </g>
    </g>
    <g id="Componente_2_25" data-name="Componente 2 – 25" transform="translate(45 311)">
      <text id="Categoria_1-2" data-name="Categoria 1" transform="translate(0 14)" font-size="18" font-family="TektonPro-Bold, Tekton Pro" font-weight="700"><tspan x="0" y="0">Categoria 1</tspan></text>
      <g id="Icon_-_Delete-9" data-name="Icon - Delete" transform="translate(320)">
        <rect id="Square-5" data-name="Square" width="19" height="19" fill="none"/>
        <path id="Icon_-_Delete-10" data-name="Icon - Delete" d="M3.088,16.773c-1.321-.552-1.471-1.78-1.476-3.07-.016-3.468.02-6.937.079-10.4L.549,3.277a.569.569,0,0,1,0-1.138l4.012.077c-.077-.7-.205-1.612.45-1.992A4.811,4.811,0,0,1,7.363.068c.159.006.334,0,.514,0A3.844,3.844,0,0,1,9.533.285c.763.378.614,1.305.548,2.036l4.252.082a.569.569,0,0,1,0,1.137l-1.4-.027q.158,2.6.315,5.208c.1,1.71.356,3.482.287,5.194A2.666,2.666,0,0,1,11.874,16.5a8.845,8.845,0,0,1-2.163.245l-2.734.194c-.669.048-1.386.14-2.092.14A4.64,4.64,0,0,1,3.088,16.773Zm-.34-5.089c0,1.068-.433,3.435.694,4.012.988.506,2.486.181,3.536.106a32.16,32.16,0,0,0,4.3-.32c1.624-.345,1.088-2.651,1.015-3.841q-.247-4.074-.494-8.149L2.829,3.32Q2.757,7.5,2.748,11.684ZM5.778,1.2c-.2.1-.132.635-.082,1.04L8.945,2.3c.051-.549.117-1.024-.579-1.053-.377-.015-.755-.034-1.132-.046-.236-.007-.655-.077-1-.077A1.05,1.05,0,0,0,5.778,1.2ZM4.918,12.479a47.762,47.762,0,0,1-.1-6.12c.035-.73,1.173-.732,1.138,0a47.822,47.822,0,0,0,.1,6.12.487.487,0,0,1-.523.546A.592.592,0,0,1,4.918,12.479ZM8.68,12.36q-.1-2.943.077-5.881c.045-.729,1.183-.731,1.138,0q-.182,2.939-.077,5.881a.515.515,0,0,1-.548.549A.562.562,0,0,1,8.68,12.36Z" transform="translate(2 0.001)" stroke="rgba(0,0,0,0)" stroke-width="1"/>
      </g>
    </g>
    <g id="Componente_2_26" data-name="Componente 2 – 26" transform="translate(45 346)">
      <text id="Categoria_2-2" data-name="Categoria 2" transform="translate(0 14)" font-size="18" font-family="TektonPro-Bold, Tekton Pro" font-weight="700"><tspan x="0" y="0">Categoria 2</tspan></text>
      <g id="Icon_-_Delete-11" data-name="Icon - Delete" transform="translate(320)">
        <rect id="Square-6" data-name="Square" width="19" height="19" fill="none"/>
        <path id="Icon_-_Delete-12" data-name="Icon - Delete" d="M3.088,16.773c-1.321-.552-1.471-1.78-1.476-3.07-.016-3.468.02-6.937.079-10.4L.549,3.277a.569.569,0,0,1,0-1.138l4.012.077c-.077-.7-.205-1.612.45-1.992A4.811,4.811,0,0,1,7.363.068c.159.006.334,0,.514,0A3.844,3.844,0,0,1,9.533.285c.763.378.614,1.305.548,2.036l4.252.082a.569.569,0,0,1,0,1.137l-1.4-.027q.158,2.6.315,5.208c.1,1.71.356,3.482.287,5.194A2.666,2.666,0,0,1,11.874,16.5a8.845,8.845,0,0,1-2.163.245l-2.734.194c-.669.048-1.386.14-2.092.14A4.64,4.64,0,0,1,3.088,16.773Zm-.34-5.089c0,1.068-.433,3.435.694,4.012.988.506,2.486.181,3.536.106a32.16,32.16,0,0,0,4.3-.32c1.624-.345,1.088-2.651,1.015-3.841q-.247-4.074-.494-8.149L2.829,3.32Q2.757,7.5,2.748,11.684ZM5.778,1.2c-.2.1-.132.635-.082,1.04L8.945,2.3c.051-.549.117-1.024-.579-1.053-.377-.015-.755-.034-1.132-.046-.236-.007-.655-.077-1-.077A1.05,1.05,0,0,0,5.778,1.2ZM4.918,12.479a47.762,47.762,0,0,1-.1-6.12c.035-.73,1.173-.732,1.138,0a47.822,47.822,0,0,0,.1,6.12.487.487,0,0,1-.523.546A.592.592,0,0,1,4.918,12.479ZM8.68,12.36q-.1-2.943.077-5.881c.045-.729,1.183-.731,1.138,0q-.182,2.939-.077,5.881a.515.515,0,0,1-.548.549A.562.562,0,0,1,8.68,12.36Z" transform="translate(2 0.001)" stroke="rgba(0,0,0,0)" stroke-width="1"/>
      </g>
    </g>
    <g id="Componente_2_27" data-name="Componente 2 – 27" transform="translate(45 381)">
      <text id="Categoria_3-2" data-name="Categoria 3" transform="translate(0 14)" font-size="18" font-family="TektonPro-Bold, Tekton Pro" font-weight="700"><tspan x="0" y="0">Categoria 3</tspan></text>
      <g id="Icon_-_Delete-13" data-name="Icon - Delete" transform="translate(320)">
        <rect id="Square-7" data-name="Square" width="19" height="19" fill="none"/>
        <path id="Icon_-_Delete-14" data-name="Icon - Delete" d="M3.088,16.773c-1.321-.552-1.471-1.78-1.476-3.07-.016-3.468.02-6.937.079-10.4L.549,3.277a.569.569,0,0,1,0-1.138l4.012.077c-.077-.7-.205-1.612.45-1.992A4.811,4.811,0,0,1,7.363.068c.159.006.334,0,.514,0A3.844,3.844,0,0,1,9.533.285c.763.378.614,1.305.548,2.036l4.252.082a.569.569,0,0,1,0,1.137l-1.4-.027q.158,2.6.315,5.208c.1,1.71.356,3.482.287,5.194A2.666,2.666,0,0,1,11.874,16.5a8.845,8.845,0,0,1-2.163.245l-2.734.194c-.669.048-1.386.14-2.092.14A4.64,4.64,0,0,1,3.088,16.773Zm-.34-5.089c0,1.068-.433,3.435.694,4.012.988.506,2.486.181,3.536.106a32.16,32.16,0,0,0,4.3-.32c1.624-.345,1.088-2.651,1.015-3.841q-.247-4.074-.494-8.149L2.829,3.32Q2.757,7.5,2.748,11.684ZM5.778,1.2c-.2.1-.132.635-.082,1.04L8.945,2.3c.051-.549.117-1.024-.579-1.053-.377-.015-.755-.034-1.132-.046-.236-.007-.655-.077-1-.077A1.05,1.05,0,0,0,5.778,1.2ZM4.918,12.479a47.762,47.762,0,0,1-.1-6.12c.035-.73,1.173-.732,1.138,0a47.822,47.822,0,0,0,.1,6.12.487.487,0,0,1-.523.546A.592.592,0,0,1,4.918,12.479ZM8.68,12.36q-.1-2.943.077-5.881c.045-.729,1.183-.731,1.138,0q-.182,2.939-.077,5.881a.515.515,0,0,1-.548.549A.562.562,0,0,1,8.68,12.36Z" transform="translate(2 0.001)" stroke="rgba(0,0,0,0)" stroke-width="1"/>
      </g>
    </g>
    <g id="Componente_2_28" data-name="Componente 2 – 28" transform="translate(45 416)">
      <text id="Categoria_4-2" data-name="Categoria 4" transform="translate(0 14)" font-size="18" font-family="TektonPro-Bold, Tekton Pro" font-weight="700"><tspan x="0" y="0">Categoria 4</tspan></text>
      <g id="Icon_-_Delete-15" data-name="Icon - Delete" transform="translate(320)">
        <rect id="Square-8" data-name="Square" width="19" height="19" fill="none"/>
        <path id="Icon_-_Delete-16" data-name="Icon - Delete" d="M3.088,16.773c-1.321-.552-1.471-1.78-1.476-3.07-.016-3.468.02-6.937.079-10.4L.549,3.277a.569.569,0,0,1,0-1.138l4.012.077c-.077-.7-.205-1.612.45-1.992A4.811,4.811,0,0,1,7.363.068c.159.006.334,0,.514,0A3.844,3.844,0,0,1,9.533.285c.763.378.614,1.305.548,2.036l4.252.082a.569.569,0,0,1,0,1.137l-1.4-.027q.158,2.6.315,5.208c.1,1.71.356,3.482.287,5.194A2.666,2.666,0,0,1,11.874,16.5a8.845,8.845,0,0,1-2.163.245l-2.734.194c-.669.048-1.386.14-2.092.14A4.64,4.64,0,0,1,3.088,16.773Zm-.34-5.089c0,1.068-.433,3.435.694,4.012.988.506,2.486.181,3.536.106a32.16,32.16,0,0,0,4.3-.32c1.624-.345,1.088-2.651,1.015-3.841q-.247-4.074-.494-8.149L2.829,3.32Q2.757,7.5,2.748,11.684ZM5.778,1.2c-.2.1-.132.635-.082,1.04L8.945,2.3c.051-.549.117-1.024-.579-1.053-.377-.015-.755-.034-1.132-.046-.236-.007-.655-.077-1-.077A1.05,1.05,0,0,0,5.778,1.2ZM4.918,12.479a47.762,47.762,0,0,1-.1-6.12c.035-.73,1.173-.732,1.138,0a47.822,47.822,0,0,0,.1,6.12.487.487,0,0,1-.523.546A.592.592,0,0,1,4.918,12.479ZM8.68,12.36q-.1-2.943.077-5.881c.045-.729,1.183-.731,1.138,0q-.182,2.939-.077,5.881a.515.515,0,0,1-.548.549A.562.562,0,0,1,8.68,12.36Z" transform="translate(2 0.001)" stroke="rgba(0,0,0,0)" stroke-width="1"/>
      </g>
    </g>
    <g id="Componente_2_29" data-name="Componente 2 – 29" transform="translate(45 451)">
      <text id="Categoria_1-3" data-name="Categoria 1" transform="translate(0 14)" font-size="18" font-family="TektonPro-Bold, Tekton Pro" font-weight="700"><tspan x="0" y="0">Categoria 1</tspan></text>
      <g id="Icon_-_Delete-17" data-name="Icon - Delete" transform="translate(320)">
        <rect id="Square-9" data-name="Square" width="19" height="19" fill="none"/>
        <path id="Icon_-_Delete-18" data-name="Icon - Delete" d="M3.088,16.773c-1.321-.552-1.471-1.78-1.476-3.07-.016-3.468.02-6.937.079-10.4L.549,3.277a.569.569,0,0,1,0-1.138l4.012.077c-.077-.7-.205-1.612.45-1.992A4.811,4.811,0,0,1,7.363.068c.159.006.334,0,.514,0A3.844,3.844,0,0,1,9.533.285c.763.378.614,1.305.548,2.036l4.252.082a.569.569,0,0,1,0,1.137l-1.4-.027q.158,2.6.315,5.208c.1,1.71.356,3.482.287,5.194A2.666,2.666,0,0,1,11.874,16.5a8.845,8.845,0,0,1-2.163.245l-2.734.194c-.669.048-1.386.14-2.092.14A4.64,4.64,0,0,1,3.088,16.773Zm-.34-5.089c0,1.068-.433,3.435.694,4.012.988.506,2.486.181,3.536.106a32.16,32.16,0,0,0,4.3-.32c1.624-.345,1.088-2.651,1.015-3.841q-.247-4.074-.494-8.149L2.829,3.32Q2.757,7.5,2.748,11.684ZM5.778,1.2c-.2.1-.132.635-.082,1.04L8.945,2.3c.051-.549.117-1.024-.579-1.053-.377-.015-.755-.034-1.132-.046-.236-.007-.655-.077-1-.077A1.05,1.05,0,0,0,5.778,1.2ZM4.918,12.479a47.762,47.762,0,0,1-.1-6.12c.035-.73,1.173-.732,1.138,0a47.822,47.822,0,0,0,.1,6.12.487.487,0,0,1-.523.546A.592.592,0,0,1,4.918,12.479ZM8.68,12.36q-.1-2.943.077-5.881c.045-.729,1.183-.731,1.138,0q-.182,2.939-.077,5.881a.515.515,0,0,1-.548.549A.562.562,0,0,1,8.68,12.36Z" transform="translate(2 0.001)" stroke="rgba(0,0,0,0)" stroke-width="1"/>
      </g>
    </g>
    <g id="Componente_2_30" data-name="Componente 2 – 30" transform="translate(45 486)">
      <text id="Categoria_2-3" data-name="Categoria 2" transform="translate(0 14)" font-size="18" font-family="TektonPro-Bold, Tekton Pro" font-weight="700"><tspan x="0" y="0">Categoria 2</tspan></text>
      <g id="Icon_-_Delete-19" data-name="Icon - Delete" transform="translate(320)">
        <rect id="Square-10" data-name="Square" width="19" height="19" fill="none"/>
        <path id="Icon_-_Delete-20" data-name="Icon - Delete" d="M3.088,16.773c-1.321-.552-1.471-1.78-1.476-3.07-.016-3.468.02-6.937.079-10.4L.549,3.277a.569.569,0,0,1,0-1.138l4.012.077c-.077-.7-.205-1.612.45-1.992A4.811,4.811,0,0,1,7.363.068c.159.006.334,0,.514,0A3.844,3.844,0,0,1,9.533.285c.763.378.614,1.305.548,2.036l4.252.082a.569.569,0,0,1,0,1.137l-1.4-.027q.158,2.6.315,5.208c.1,1.71.356,3.482.287,5.194A2.666,2.666,0,0,1,11.874,16.5a8.845,8.845,0,0,1-2.163.245l-2.734.194c-.669.048-1.386.14-2.092.14A4.64,4.64,0,0,1,3.088,16.773Zm-.34-5.089c0,1.068-.433,3.435.694,4.012.988.506,2.486.181,3.536.106a32.16,32.16,0,0,0,4.3-.32c1.624-.345,1.088-2.651,1.015-3.841q-.247-4.074-.494-8.149L2.829,3.32Q2.757,7.5,2.748,11.684ZM5.778,1.2c-.2.1-.132.635-.082,1.04L8.945,2.3c.051-.549.117-1.024-.579-1.053-.377-.015-.755-.034-1.132-.046-.236-.007-.655-.077-1-.077A1.05,1.05,0,0,0,5.778,1.2ZM4.918,12.479a47.762,47.762,0,0,1-.1-6.12c.035-.73,1.173-.732,1.138,0a47.822,47.822,0,0,0,.1,6.12.487.487,0,0,1-.523.546A.592.592,0,0,1,4.918,12.479ZM8.68,12.36q-.1-2.943.077-5.881c.045-.729,1.183-.731,1.138,0q-.182,2.939-.077,5.881a.515.515,0,0,1-.548.549A.562.562,0,0,1,8.68,12.36Z" transform="translate(2 0.001)" stroke="rgba(0,0,0,0)" stroke-width="1"/>
      </g>
    </g>
    <g id="Componente_2_31" data-name="Componente 2 – 31" transform="translate(45 521)">
      <text id="Categoria_3-3" data-name="Categoria 3" transform="translate(0 14)" font-size="18" font-family="TektonPro-Bold, Tekton Pro" font-weight="700"><tspan x="0" y="0">Categoria 3</tspan></text>
      <g id="Icon_-_Delete-21" data-name="Icon - Delete" transform="translate(320)">
        <rect id="Square-11" data-name="Square" width="19" height="19" fill="none"/>
        <path id="Icon_-_Delete-22" data-name="Icon - Delete" d="M3.088,16.773c-1.321-.552-1.471-1.78-1.476-3.07-.016-3.468.02-6.937.079-10.4L.549,3.277a.569.569,0,0,1,0-1.138l4.012.077c-.077-.7-.205-1.612.45-1.992A4.811,4.811,0,0,1,7.363.068c.159.006.334,0,.514,0A3.844,3.844,0,0,1,9.533.285c.763.378.614,1.305.548,2.036l4.252.082a.569.569,0,0,1,0,1.137l-1.4-.027q.158,2.6.315,5.208c.1,1.71.356,3.482.287,5.194A2.666,2.666,0,0,1,11.874,16.5a8.845,8.845,0,0,1-2.163.245l-2.734.194c-.669.048-1.386.14-2.092.14A4.64,4.64,0,0,1,3.088,16.773Zm-.34-5.089c0,1.068-.433,3.435.694,4.012.988.506,2.486.181,3.536.106a32.16,32.16,0,0,0,4.3-.32c1.624-.345,1.088-2.651,1.015-3.841q-.247-4.074-.494-8.149L2.829,3.32Q2.757,7.5,2.748,11.684ZM5.778,1.2c-.2.1-.132.635-.082,1.04L8.945,2.3c.051-.549.117-1.024-.579-1.053-.377-.015-.755-.034-1.132-.046-.236-.007-.655-.077-1-.077A1.05,1.05,0,0,0,5.778,1.2ZM4.918,12.479a47.762,47.762,0,0,1-.1-6.12c.035-.73,1.173-.732,1.138,0a47.822,47.822,0,0,0,.1,6.12.487.487,0,0,1-.523.546A.592.592,0,0,1,4.918,12.479ZM8.68,12.36q-.1-2.943.077-5.881c.045-.729,1.183-.731,1.138,0q-.182,2.939-.077,5.881a.515.515,0,0,1-.548.549A.562.562,0,0,1,8.68,12.36Z" transform="translate(2 0.001)" stroke="rgba(0,0,0,0)" stroke-width="1"/>
      </g>
    </g>
    <g id="Componente_2_32" data-name="Componente 2 – 32" transform="translate(45 556)">
      <text id="Categoria_4-3" data-name="Categoria 4" transform="translate(0 14)" font-size="18" font-family="TektonPro-Bold, Tekton Pro" font-weight="700"><tspan x="0" y="0">Categoria 4</tspan></text>
      <g id="Icon_-_Delete-23" data-name="Icon - Delete" transform="translate(320)">
        <rect id="Square-12" data-name="Square" width="19" height="19" fill="none"/>
        <path id="Icon_-_Delete-24" data-name="Icon - Delete" d="M3.088,16.773c-1.321-.552-1.471-1.78-1.476-3.07-.016-3.468.02-6.937.079-10.4L.549,3.277a.569.569,0,0,1,0-1.138l4.012.077c-.077-.7-.205-1.612.45-1.992A4.811,4.811,0,0,1,7.363.068c.159.006.334,0,.514,0A3.844,3.844,0,0,1,9.533.285c.763.378.614,1.305.548,2.036l4.252.082a.569.569,0,0,1,0,1.137l-1.4-.027q.158,2.6.315,5.208c.1,1.71.356,3.482.287,5.194A2.666,2.666,0,0,1,11.874,16.5a8.845,8.845,0,0,1-2.163.245l-2.734.194c-.669.048-1.386.14-2.092.14A4.64,4.64,0,0,1,3.088,16.773Zm-.34-5.089c0,1.068-.433,3.435.694,4.012.988.506,2.486.181,3.536.106a32.16,32.16,0,0,0,4.3-.32c1.624-.345,1.088-2.651,1.015-3.841q-.247-4.074-.494-8.149L2.829,3.32Q2.757,7.5,2.748,11.684ZM5.778,1.2c-.2.1-.132.635-.082,1.04L8.945,2.3c.051-.549.117-1.024-.579-1.053-.377-.015-.755-.034-1.132-.046-.236-.007-.655-.077-1-.077A1.05,1.05,0,0,0,5.778,1.2ZM4.918,12.479a47.762,47.762,0,0,1-.1-6.12c.035-.73,1.173-.732,1.138,0a47.822,47.822,0,0,0,.1,6.12.487.487,0,0,1-.523.546A.592.592,0,0,1,4.918,12.479ZM8.68,12.36q-.1-2.943.077-5.881c.045-.729,1.183-.731,1.138,0q-.182,2.939-.077,5.881a.515.515,0,0,1-.548.549A.562.562,0,0,1,8.68,12.36Z" transform="translate(2 0.001)" stroke="rgba(0,0,0,0)" stroke-width="1"/>
      </g>
    </g>
    <path id="icons8-menu" d="M3.4,7a1.4,1.4,0,1,0,0,2.8H36.945a1.4,1.4,0,1,0,0-2.8Zm0,9.785a1.4,1.4,0,1,0,0,2.8H36.945a1.4,1.4,0,1,0,0-2.8Zm0,9.785a1.4,1.4,0,1,0,0,2.8H36.945a1.4,1.4,0,1,0,0-2.8Z" transform="translate(346.657 22)"/>
    <text id="Logo" transform="translate(37 45)" font-size="24" font-family="TektonPro-Bold, Tekton Pro" font-weight="700"><tspan x="0" y="0">Logo</tspan></text>
    <text id="Categorias" transform="translate(37 127)" font-size="34" font-family="TektonPro-Bold, Tekton Pro" font-weight="700"><tspan x="0" y="0">Categorias</tspan></text>
    <g id="Drop_Downs_Base_Box_Action_1" data-name="Drop Downs / Base Box / Action 1" transform="translate(87.295 -998)">
      <path id="Base_Box" data-name="Base Box" d="M71.586-60.762c-23.494-.379-46.993-.7-70.489-.214C.5-60.962,0-61.97,0-63.12Q.006-83.5.151-103.874c.3-50.706.971-101.5-.15-152.189a3.014,3.014,0,0,1,.306-1.543,18.977,18.977,0,0,1-.231-4.1q-.153-9.952,0-19.908c.037-2.443-.658-5.964,2.8-6.546a70.676,70.676,0,0,1,7.914-.535q3.815-.194,7.637-.3c9.659-.275,19.327-.269,28.994-.264,6.013,0,12.025.007,18.036-.056q20.212-.213,40.429-.438c14.9-.143,29.8-.259,44.707-.242,6.251.006,12.5.036,18.754.132q3.727.055,7.447.157c2.608.073,6.124-.12,6.642,2.937q.008.045.012.09a1.035,1.035,0,0,1,.025.18c.168,3.173.215,6.356.23,9.535.018,3.7-.015,7.409-.121,11.114-.051,1.757-.117,3.512-.216,5.266a14.42,14.42,0,0,1-.261,3,3.069,3.069,0,0,1,.287,1.513q-.448,20.392-.526,40.805c-.27,50.72.518,101.426.526,152.139,0,1.186-.5,2.115-1.1,2.144-13.178.6-26.358.864-39.54.942q-4.274.024-8.546.024C113.336-60.017,92.459-60.423,71.586-60.762ZM40.513-65.455c23.71.185,47.417.75,71.125,1.014,23.188.253,46.375.236,69.561-.78q-.015-19.333-.149-38.661c-.3-50.53-.966-101.152.139-151.661a10.034,10.034,0,0,1-3.246.306c-.324,0-.636-.008-.928,0q-4.011.076-8.027.143-8.577.15-17.15.286c-14.242.229-28.488.468-42.734.548-24.509.136-49.026.222-73.535.12-5.648-.027-11.25,0-16.9.3-5.02.262-10.424.538-15.3-.807a5.61,5.61,0,0,1-1.154-.449c.289,13.274.433,26.554.505,39.841.27,49.992-.5,99.976-.526,149.974q12.312-.241,24.621-.225Q33.663-65.51,40.513-65.455ZM8.67-286.586c-1.422.079-2.85.153-4.268.279-1.392.126-2.013.146-2.083,1.5-.059,1.183-.055,2.372-.069,3.555q-.061,4.7-.055,9.406,0,4.8.059,9.589c.014,1.206-.007,2.426.073,3.632.091,1.366.752,1.834,2.148,2.176a28.306,28.306,0,0,0,4.479.655,106.4,106.4,0,0,0,13.432-.1c3.01-.148,6.018-.3,9.014-.273,4.325.033,8.652.04,12.978.046q35.262.046,70.524-.179c15.839-.112,31.677-.418,47.516-.684l8.758-.149q1.825-.031,3.65-.064c.458-.009.948.007,1.445.023a14.138,14.138,0,0,0,2.931-.1c.972-.183,1.644-.449,1.841-1.4a7.111,7.111,0,0,0,.073-1.01c.041-.625.074-1.249.106-1.874.077-1.589.131-3.176.176-4.765.178-6.695.237-13.42-.116-20.112-.393-1.464-2.269-1.223-3.621-1.265-1.1-.033-2.2-.059-3.307-.086-26.307-.6-52.657-.159-78.975.127-12,.126-23.994.279-35.989.392-5.112.048-10.227.038-15.343.029q-3.11-.006-6.22-.008C28.1-287.236,18.373-287.152,8.67-286.586Z" transform="translate(114 1347)"/>
    </g>
    <rect id="Rectángulo_451" data-name="Rectángulo 451" width="178" height="207" transform="translate(204 77)" fill="#fff"/>
    <text id="Movimientos" transform="translate(223.295 89)" font-size="18" font-family="TektonPro-Bold, Tekton Pro" font-weight="700"><tspan x="0" y="0">Movimientos</tspan></text>
    <text id="Categorias-2" data-name="Categorias" transform="translate(223.295 114)" font-size="18" font-family="TektonPro-Bold, Tekton Pro" font-weight="700"><tspan x="0" y="0">Categorias</tspan></text>
    <text id="Graficas" transform="translate(223.295 139)" font-size="18" font-family="TektonPro-Bold, Tekton Pro" font-weight="700"><tspan x="0" y="0">Graficas</tspan></text>
    <text id="Moneda" transform="translate(223.295 176.992)" font-size="18" font-family="TektonPro-Bold, Tekton Pro" font-weight="700"><tspan x="0" y="0">Moneda</tspan></text>
    <g id="Radios_Checked_1" data-name="Radios / Checked 1" transform="translate(-342 -2978)">
      <text id="USD" transform="translate(690 3209)" font-size="18" font-family="TektonPro-Bold, Tekton Pro" font-weight="700"><tspan x="-16.668" y="0">USD</tspan></text>
      <g id="Oval" transform="translate(646.003 3194.009)">
        <path id="Oval-2" data-name="Oval" d="M1.778,7.925c.659-4.237,4.93-6.775,9.076-6.02,3.5.638,4.652,4.447,4.632,7.589-.035,4.969-6.342,6.274-10.1,4.676A5.913,5.913,0,0,1,1.807,7.691C1.93,6.57.174,6.578.051,7.691-.7,14.53,6.565,18.149,12.441,15.947A6.964,6.964,0,0,0,17.234,9.74C17.389,6,15.87,1.534,11.964.363,6.872-1.157.908,2.137.083,7.46-.09,8.563,1.6,9.041,1.778,7.925Z"/>
        <path id="Oval-3" data-name="Oval" d="M-1331.992-3316.49a1.014,1.014,0,0,1,.018-.118,1.023,1.023,0,0,1,.015-.117,2.923,2.923,0,0,1,4.037-2.014,2.941,2.941,0,0,1,1.1,3.777,2.557,2.557,0,0,1-2.3,1.276A2.7,2.7,0,0,1-1331.992-3316.49Z" transform="translate(1337.886 3324.656)"/>
      </g>
    </g>
    <g id="Radios_Checked_2" data-name="Radios / Checked 2" transform="translate(-342 -2978)">
      <text id="R_" data-name="R$" transform="translate(685 3236)" font-size="18" font-family="TektonPro-Bold, Tekton Pro" font-weight="700"><tspan x="-11.385" y="0">R$</tspan></text>
      <g id="Oval-4" data-name="Oval" transform="translate(646.003 3221.009)">
        <path id="Oval-5" data-name="Oval" d="M-1331.95-3338.3a1,1,0,0,1,.021-.123,1.018,1.018,0,0,1,.011-.108c.827-5.332,6.8-8.631,11.9-7.109,3.912,1.173,5.434,5.648,5.278,9.393a6.975,6.975,0,0,1-4.8,6.217,10.224,10.224,0,0,1-3.585.645C-1327.989-3329.382-1332.552-3332.8-1331.95-3338.3Z" transform="translate(1332 3346)"/>
        <path id="Oval-6" data-name="Oval" d="M-1331.992-3343.487a1.039,1.039,0,0,1,.018-.119,1.028,1.028,0,0,1,.015-.115,2.928,2.928,0,0,1,4.045-2.018,2.945,2.945,0,0,1,1.1,3.783,2.561,2.561,0,0,1-2.3,1.278A2.7,2.7,0,0,1-1331.992-3343.487Z" transform="translate(1337.896 3351.665)"/>
      </g>
    </g>
    <g id="Radios_Default" data-name="Radios / Default" transform="translate(-342 -2978)">
      <text id="UYU" transform="translate(691 3182)" font-size="18" font-family="TektonPro-Bold, Tekton Pro" font-weight="700"><tspan x="-16.209" y="0">UYU</tspan></text>
      <path id="Oval-7" data-name="Oval" d="M1.778,7.925c.659-4.237,4.93-6.775,9.076-6.02,3.5.638,4.652,4.447,4.632,7.589-.035,4.969-6.342,6.274-10.1,4.676A5.913,5.913,0,0,1,1.807,7.691C1.93,6.57.174,6.578.051,7.691-.7,14.53,6.565,18.149,12.441,15.947A6.964,6.964,0,0,0,17.234,9.74C17.389,6,15.87,1.534,11.964.363,6.872-1.157.908,2.137.083,7.46-.09,8.563,1.6,9.041,1.778,7.925Z" transform="translate(646.003 3167.009)"/>
    </g>
    <g id="Footer" transform="translate(37 1013.682)">
      <text id="_2021" data-name="© 2021" transform="translate(0.308 68.751)" font-size="20" font-family="TektonPro-Bold, Tekton Pro" font-weight="700"><tspan x="0" y="0">© 2021</tspan></text>
      <text id="Proyecto_para_Fundamentos_de_ingeniería_de_software_Stella_Steinfeld_y_Alvaro_Rameau" data-name="Proyecto para Fundamentos de 
ingeniería de software 
 Stella Steinfeld y Alvaro Rameau" transform="translate(0 -24)" font-size="20" font-family="TektonPro-Bold, Tekton Pro" font-weight="700"><tspan x="0" y="0">Proyecto para Fundamentos de </tspan><tspan x="0" y="28">ingeniería de software </tspan><tspan x="0" y="56" xml:space="preserve"> Stella Steinfeld y Alvaro Rameau</tspan></text>
    </g>
    <g id="Grupo_1317" data-name="Grupo 1317" transform="translate(69 34)">
      <g id="Form_Fields_Pill_Box_Normal" data-name="Form Fields / Pill Box / Normal" transform="translate(-31.726 687)">
        <text id="Nombre_de_la_categoria" data-name="Nombre de la categoria" transform="translate(25 25)" font-size="18" font-family="TektonPro-Bold, Tekton Pro" font-weight="700"><tspan x="0" y="0">Nombre de la categoria</tspan></text>
        <path id="Pill_Box" data-name="Pill Box" d="M343.243,5.233C337.127-1.7,327.825.252,320.291.28q-11.98.042-23.96.052Q278.3.358,260.278.37,238.4.386,216.522.391,192.8.4,169.065.4,145.46.4,121.852.388,100.536.382,79.215.363,62.313.348,45.41.321,34.9.3,24.388.266C22.906.259,21.421.255,19.939.231,15.61.154,11.068.056,7.083,2.823,2.412,6.07-.164,13.256.006,20.512.171,27.6,2.914,32.969,7.611,35.334a19.3,19.3,0,0,0,8.8,1.751c1.645.007,3.291,0,4.936,0q10.885.005,21.769.007,17.065.005,34.131,0,21.3,0,42.6,0h95.143q22.131,0,44.259,0,18.451,0,36.9,0,12.828,0,25.656-.007c5.287,0,11.158.736,16.327-.945,4.641-1.51,8.37-5.463,9.329-12.349.932-6.684-.565-14.03-4.211-18.561-.71-.886-1.758.59-1.042,1.479,4.144,5.156,5.678,15.607,2.166,22.126-2.849,5.288-8.336,6.115-12.674,6.15-1.382.01-2.763,0-4.144,0q-10,.005-19.992.007-16.224.005-32.445.007-20.564,0-41.125,0h-93q-22.179,0-44.357,0-19.067,0-38.133,0Q44.517,35,30.539,35q-7,0-14-.007a19.63,19.63,0,0,1-7.657-1.277,10.991,10.991,0,0,1-6.386-6.917A24.446,24.446,0,0,1,1.97,14.787C3.831,5.414,9.991,2.526,16.239,2.31c1.495-.052,2.987.007,4.481.021,5.007.056,10.017.049,15.024.063q14.4.037,28.807.045,19.443.021,38.888.031,22.389.01,44.775.017,23.539.005,47.079,0,22.643,0,45.289-.014,19.782-.01,39.566-.031Q295.1,2.427,310.06,2.4c5.442-.01,10.882-.014,16.325-.059,5.405-.045,11.335-.7,15.813,4.374C342.933,7.542,343.985,6.074,343.243,5.233Z" transform="translate(0.002 -0.006)"/>
      </g>
      <text id="Añadir_nueva_Categoria" data-name="Añadir nueva Categoria" transform="translate(100 629)" font-size="28" font-family="TektonPro-Bold, Tekton Pro" font-weight="700"><tspan x="-131.502" y="0">Añadir nueva Categoria</tspan></text>
      <g id="Buttons_Pill_Button_Default_Cancel" data-name="Buttons / Pill Button / Default / Cancel" transform="translate(214.132 836.318)">
        <path id="Pill_Button" data-name="Pill Button" d="M95.425,5.153C87.659-1.136,76.98.046,67.637.2,60.95.3,54.27-.122,47.587.046,41.057.207,34.57.193,28.04.091,18.924-.052,8.466.525,3.083,9.082c-4.261,6.771-4.5,17.383,1.772,23.063,6.785,6.148,16.292,5.107,24.692,4.866,6.9-.2,13.807.409,20.714.357,4.174-.031,8.337.042,12.507-.171,2.835-.143,5.659-.273,8.5-.213,8.473.171,17.806,1.493,24.978-4.184,6.739-5.334,6.98-15.817,3.041-22.9a17.643,17.643,0,0,0-3.862-4.747c-1.017-.877-2.506.6-1.482,1.482,6.079,5.257,8.207,16.233,2.831,22.755-5.582,6.767-15.5,5.851-23.266,5.561-5.844-.217-11.654.3-17.495.339-7.11.042-14.174-.192-21.27-.391-7.61-.217-15.425,1.433-22.8-1.087-3.967-1.353-7.333-3.929-8.8-7.952a18.323,18.323,0,0,1,.094-12.307,15.891,15.891,0,0,1,8.6-9.3c4.292-1.9,9.148-2.1,13.769-2.087,5.974.014,11.937.245,17.914.084,6.673-.178,13.314.1,19.983.091,7.889-.007,16.383-1.2,24.063,1.024a18.044,18.044,0,0,1,6.383,3.272C94.981,7.477,96.474,6,95.425,5.153Z" transform="translate(0.001 -0.006)"/>
        <text id="Guardar" transform="translate(51 26)" font-size="18" font-family="TektonPro-Bold, Tekton Pro" font-weight="700"><tspan x="-30.519" y="0">Guardar</tspan></text>
      </g>
      <g id="Form_Fields_Pill_Box_Normal-2" data-name="Form Fields / Pill Box / Normal" transform="translate(-31.726 748.241)">
        <text id="Seleccionar_Tipo" data-name="Seleccionar Tipo" transform="translate(25 25)" font-size="18" font-family="TektonPro-Bold, Tekton Pro" font-weight="700"><tspan x="0" y="0">Seleccionar Tipo</tspan></text>
        <path id="Pill_Box-2" data-name="Pill Box" d="M343.243,5.233C337.127-1.7,327.825.252,320.291.28q-11.98.042-23.96.052Q278.3.358,260.278.37,238.4.386,216.522.391,192.8.4,169.065.4,145.46.4,121.852.388,100.536.382,79.215.363,62.313.348,45.41.321,34.9.3,24.388.266C22.906.259,21.421.255,19.939.231,15.61.154,11.068.056,7.083,2.823,2.412,6.07-.164,13.256.006,20.512.171,27.6,2.914,32.969,7.611,35.334a19.3,19.3,0,0,0,8.8,1.751c1.645.007,3.291,0,4.936,0q10.885.005,21.769.007,17.065.005,34.131,0,21.3,0,42.6,0h95.143q22.131,0,44.259,0,18.451,0,36.9,0,12.828,0,25.656-.007c5.287,0,11.158.736,16.327-.945,4.641-1.51,8.37-5.463,9.329-12.349.932-6.684-.565-14.03-4.211-18.561-.71-.886-1.758.59-1.042,1.479,4.144,5.156,5.678,15.607,2.166,22.126-2.849,5.288-8.336,6.115-12.674,6.15-1.382.01-2.763,0-4.144,0q-10,.005-19.992.007-16.224.005-32.445.007-20.564,0-41.125,0h-93q-22.179,0-44.357,0-19.067,0-38.133,0Q44.517,35,30.539,35q-7,0-14-.007a19.63,19.63,0,0,1-7.657-1.277,10.991,10.991,0,0,1-6.386-6.917A24.446,24.446,0,0,1,1.97,14.787C3.831,5.414,9.991,2.526,16.239,2.31c1.495-.052,2.987.007,4.481.021,5.007.056,10.017.049,15.024.063q14.4.037,28.807.045,19.443.021,38.888.031,22.389.01,44.775.017,23.539.005,47.079,0,22.643,0,45.289-.014,19.782-.01,39.566-.031Q295.1,2.427,310.06,2.4c5.442-.01,10.882-.014,16.325-.059,5.405-.045,11.335-.7,15.813,4.374C342.933,7.542,343.985,6.074,343.243,5.233Z" transform="translate(0.002 -0.006)"/>
      </g>
      <g id="Icon_-_Arrow_Down" data-name="Icon - Arrow Down" transform="translate(270.58 763.25)" clip-path="url(#clip-path)">
        <path id="Arrow_Down" data-name="Arrow Down" d="M472.786,46.684q2.2,2.276,4.307,4.642c-.093-.346-.182-.695-.274-1.04-.007.025-.011.053-.018.078a1.076,1.076,0,0,0,1.785,1.04,63.269,63.269,0,0,0,4.068-5.055c.887-1.044-.62-2.561-1.51-1.51a61.87,61.87,0,0,1-4.068,5.055c.595.346,1.19.695,1.785,1.04.228-.983-.72-1.642-1.314-2.294q-1.6-1.758-3.249-3.462c-.958-.994-2.469.517-1.51,1.507Z" transform="translate(-472.48 -44.484)"/>
      </g>
    </g>
  </g>
</svg>
