<svg xmlns="http://www.w3.org/2000/svg" xmlns:xlink="http://www.w3.org/1999/xlink" width="1920" height="1080" viewBox="0 0 1920 1080">
  <defs>
    <clipPath id="clip-path">
      <rect width="10.444" height="7.224" fill="none"/>
    </clipPath>
    <clipPath id="clip-Categorias">
      <rect width="1920" height="1080"/>
    </clipPath>
  </defs>
  <g id="Categorias" clip-path="url(#clip-Categorias)">
    <rect width="1920" height="1080" fill="#fff"/>
    <g id="Form_Fields_Pill_Box_Normal" data-name="Form Fields / Pill Box / Normal" transform="translate(1044.274 -1455)">
      <text id="Nombre_de_la_categoria" data-name="Nombre de la categoria" transform="translate(138 1940)" font-size="18" font-family="TektonPro-Bold, Tekton Pro" font-weight="700"><tspan x="0" y="0">Nombre de la categoria</tspan></text>
      <path id="Pill_Box" data-name="Pill Box" d="M487.09,5.233C478.411-1.7,465.211.252,454.52.28q-17,.042-34,.052Q394.937.358,369.356.37q-31.044.016-62.092.021Q273.593.4,239.918.4q-33.5,0-67-.01-30.249-.005-60.5-.024Q88.428.348,64.442.321,49.524.3,34.61.266C32.506.259,30.4.255,28.3.231,22.153.154,15.707.056,10.052,2.823,3.424,6.07-.232,13.256.009,20.512A15.541,15.541,0,0,0,10.8,35.334a37.509,37.509,0,0,0,12.481,1.751c2.334.007,4.671,0,7,0q15.446.005,30.893.007,24.216.005,48.435,0,30.223,0,60.449,0H305.08q31.405,0,62.807,0,26.183,0,52.363,0,18.2,0,36.408-.007c7.5,0,15.833.736,23.169-.945,6.586-1.51,11.878-5.463,13.238-12.349A19.806,19.806,0,0,0,487.09,5.233c-1.008-.886-2.494.59-1.479,1.479,5.881,5.156,8.058,15.607,3.073,22.126-4.043,5.288-11.829,6.115-17.986,6.15-1.96.01-3.921,0-5.881,0Q450.632,35,436.447,35q-23.023.005-46.042.007-29.182,0-58.36,0H200.071q-31.473,0-62.947,0-27.057,0-54.114,0Q63.174,35,43.338,35q-9.936,0-19.873-.007A38.541,38.541,0,0,1,12.6,33.712c-3.781-1.113-7.336-3.23-9.063-6.917A17.543,17.543,0,0,1,2.8,14.787C5.437,5.414,14.179,2.526,23.046,2.31c2.121-.052,4.238.007,6.359.021,7.106.056,14.215.049,21.321.063q20.438.037,40.88.045,27.591.021,55.185.031,31.772.01,63.54.017,33.4.005,66.808,0,32.133,0,64.269-.014,28.072-.01,56.148-.031Q418.778,2.427,440,2.4c7.723-.01,15.443-.014,23.166-.059,7.671-.045,16.085-.7,22.44,4.374C486.65,7.542,488.143,6.074,487.09,5.233Z" transform="translate(113.002 1914.994)"/>
    </g>
    <text id="Añadir_nueva_Categoria" data-name="Añadir nueva Categoria" transform="translate(1289 402)" font-size="28" font-family="TektonPro-Bold, Tekton Pro" font-weight="700"><tspan x="-131.502" y="0">Añadir nueva Categoria</tspan></text>
    <g id="Buttons_Pill_Button_Default_Cancel" data-name="Buttons / Pill Button / Default / Cancel" transform="translate(1221.857 60.318)">
      <path id="Pill_Button" data-name="Pill Button" d="M95.425,5.153C87.659-1.136,76.98.046,67.637.2,60.95.3,54.27-.122,47.587.046,41.057.207,34.57.193,28.04.091,18.924-.052,8.466.525,3.083,9.082c-4.261,6.771-4.5,17.383,1.772,23.063,6.785,6.148,16.292,5.107,24.692,4.866,6.9-.2,13.807.409,20.714.357,4.174-.031,8.337.042,12.507-.171,2.835-.143,5.659-.273,8.5-.213,8.473.171,17.806,1.493,24.978-4.184,6.739-5.334,6.98-15.817,3.041-22.9a17.643,17.643,0,0,0-3.862-4.747c-1.017-.877-2.506.6-1.482,1.482,6.079,5.257,8.207,16.233,2.831,22.755-5.582,6.767-15.5,5.851-23.266,5.561-5.844-.217-11.654.3-17.495.339-7.11.042-14.174-.192-21.27-.391-7.61-.217-15.425,1.433-22.8-1.087-3.967-1.353-7.333-3.929-8.8-7.952a18.323,18.323,0,0,1,.094-12.307,15.891,15.891,0,0,1,8.6-9.3c4.292-1.9,9.148-2.1,13.769-2.087,5.974.014,11.937.245,17.914.084,6.673-.178,13.314.1,19.983.091,7.889-.007,16.383-1.2,24.063,1.024a18.044,18.044,0,0,1,6.383,3.272C94.981,7.477,96.474,6,95.425,5.153Z" transform="translate(327.001 548.994)"/>
      <text id="Guardar" transform="translate(378 575)" font-size="18" font-family="TektonPro-Bold, Tekton Pro" font-weight="700"><tspan x="-30.519" y="0">Guardar</tspan></text>
    </g>
    <g id="Menu_Bars_Style_1" data-name="Menu Bars / Style 1" transform="translate(89 61)">
      <path id="Trazado_480" data-name="Trazado 480" d="M1722.075,10.03c-3.479-12.985-23.033-9.1-31.094-9.2C1677.139.651,1663.3.558,1649.463.475Q1583.65.088,1517.83.072,1426.691-.052,1335.544.01q-106.746.046-213.5.2Q1007.877.362,893.715.589q-112.1.217-224.207.486-100.6.232-201.209.516-80.587.232-161.181.475-51.756.155-103.505.331l-24.121.093c-33.444.145-66.887-.227-100.324.289-16.926.258-33.853.764-50.772,1.642C20.938,4.814,2.7.021.907,15.33-.805,29.988.415,46.764.449,61.587Q.47,73.549.629,85.521C.713,90.7.047,98.134,1.711,102.886c4.159,11.848,23.747,9.431,30.83,9.824,16.919.919,33.846-.6,50.758-1.188,53.988-1.849,108.156-.32,162.172-.785,23.92-.207,47.84-.207,71.753-.269q69.358-.17,138.709-.279,93.282-.155,186.563-.289,107.276-.155,214.552-.289,112.672-.155,225.344-.3,107.764-.155,215.522-.31,94.259-.139,188.525-.32,70.605-.139,141.2-.331c25.369-.072,50.737-.093,76.106-.341,5.081-.052,12.622,1.694,16.053-4.463,2.058-3.688,1.851-9.917,2.107-14.348.5-8.543.742-17.127.894-25.69.319-17.53.333-35.163-.665-52.641-.222-3.946-4.388-3.977-4.159,0,.991,17.478.978,35.122.665,52.641-.152,8.574-.395,17.148-.894,25.69-.485,8.316-4.3,11.662-9.5,12.561-2.793.486-5.794.062-8.6.083q-15.876.124-31.752.165-57.131.232-114.256.331-83.9.186-167.807.32-101.038.17-202.075.31-109.989.155-219.972.3-109.075.139-218.156.289-100.05.139-200.1.289-81.252.124-162.5.279-54.1.108-108.191.269c-56.629.2-113.258,1.343-169.886.785-16.559-.165-33.069.826-49.614,1.374-8.137.269-16.282.362-24.419-.155-7.042-.455-22.922,1.529-25.9-9.875-1.352-5.165-.3-14.565-.347-20.019q-.114-13.45-.069-26.92c.021-7.861.076-15.732.208-23.594.042-2.613-.347-6.167.187-8.625,1.781-8.223,10.335-5.991,15.006-6.27C74.164,7.851,128.366,8.9,182.549,8.677q36.337-.155,72.682-.248,68.412-.217,136.817-.413,91.764-.263,183.52-.5,106.007-.263,212.022-.506,112.048-.248,224.1-.434,109.979-.186,219.958-.3,98.813-.093,197.625-.083,78.726.015,157.452.207c33.776.093,67.552.176,101.328.578,4.443.052,27.85-3.337,30,4.69C1719.046,15.34,1723.066,13.749,1722.075,10.03Z" transform="translate(0.004 0.001)"/>
      <path id="Trazado_481" data-name="Trazado 481" d="M208,5.205q.388,28.933.776,57.86c.03,2.335,3.639,2.342,3.609,0q-.388-28.933-.776-57.86c-.03-2.335-3.639-2.341-3.609,0Z" transform="translate(-58.806 18.009)"/>
      <path id="Trazado_481-2" data-name="Trazado 481" d="M208,5.205q.388,28.933.776,57.86c.03,2.335,3.639,2.342,3.609,0q-.388-28.933-.776-57.86c-.03-2.335-3.639-2.341-3.609,0Z" transform="translate(177.421 18.009)"/>
      <path id="Trazado_481-3" data-name="Trazado 481" d="M208,5.205q.388,28.933.776,57.86c.03,2.335,3.639,2.342,3.609,0q-.388-28.933-.776-57.86c-.03-2.335-3.639-2.341-3.609,0Z" transform="translate(387.649 18.009)"/>
      <path id="Trazado_481-4" data-name="Trazado 481" d="M208,5.205q.388,28.933.776,57.86c.03,2.335,3.639,2.342,3.609,0q-.388-28.933-.776-57.86c-.03-2.335-3.639-2.341-3.609,0Z" transform="translate(567.876 18.009)"/>
      <text id="Movimientos" transform="translate(193 65)" font-size="29" font-family="TektonPro-Bold, Tekton Pro" font-weight="700"><tspan x="0" y="0">Movimientos</tspan></text>
      <text id="Categorias-2" data-name="Categorias" transform="translate(429.227 64.098)" font-size="28" font-family="TektonPro-Bold, Tekton Pro" font-weight="700"><tspan x="0" y="0">Categorias</tspan></text>
      <text id="Graficas" transform="translate(639.455 64.098)" font-size="28" font-family="TektonPro-Bold, Tekton Pro" font-weight="700"><tspan x="0" y="0">Graficas</tspan></text>
      <text id="Moneda" transform="translate(1546.903 64.098)" font-size="28" font-family="TektonPro-Bold, Tekton Pro" font-weight="700"><tspan x="0" y="0">Moneda</tspan></text>
      <text id="Logo" transform="translate(47 65)" font-size="29" font-family="TektonPro-Bold, Tekton Pro" font-weight="700"><tspan x="0" y="0">Logo</tspan></text>
      <g id="Icon_-_Arrow_Down" data-name="Icon - Arrow Down" transform="translate(1670.924 51.541)">
        <path id="Arrow_Down" data-name="Arrow Down" d="M472.974,48.027q3.546,3.666,6.937,7.476c-.149-.557-.293-1.119-.442-1.675-.011.04-.017.086-.029.126a1.734,1.734,0,0,0,2.875,1.675c2.53-2.421,4.292-5.485,6.552-8.141,1.429-1.681-1-4.125-2.433-2.433-2.255,2.656-4.022,5.726-6.552,8.141.958.557,1.916,1.119,2.874,1.675.367-1.584-1.159-2.645-2.117-3.695q-2.573-2.831-5.232-5.577c-1.543-1.6-3.976.832-2.433,2.427Z" transform="translate(-472.48 -44.484)"/>
      </g>
    </g>
    <text id="Categorias-3" data-name="Categorias" transform="translate(179 297)" font-size="40" font-family="TektonPro-Bold, Tekton Pro" font-weight="700"><tspan x="-90.46" y="0">Categorias</tspan></text>
    <g id="Componente_2_5" data-name="Componente 2 – 5" transform="translate(89 383)">
      <text id="Categoria_1" data-name="Categoria 1" transform="translate(0 14)" font-size="18" font-family="TektonPro-Bold, Tekton Pro" font-weight="700"><tspan x="0" y="0">Categoria 1</tspan></text>
      <g id="Icon_-_Delete" data-name="Icon - Delete" transform="translate(839)">
        <rect id="Square" width="19" height="19" fill="none"/>
        <path id="Icon_-_Delete-2" data-name="Icon - Delete" d="M3.088,16.773c-1.321-.552-1.471-1.78-1.476-3.07-.016-3.468.02-6.937.079-10.4L.549,3.277a.569.569,0,0,1,0-1.138l4.012.077c-.077-.7-.205-1.612.45-1.992A4.811,4.811,0,0,1,7.363.068c.159.006.334,0,.514,0A3.844,3.844,0,0,1,9.533.285c.763.378.614,1.305.548,2.036l4.252.082a.569.569,0,0,1,0,1.137l-1.4-.027q.158,2.6.315,5.208c.1,1.71.356,3.482.287,5.194A2.666,2.666,0,0,1,11.874,16.5a8.845,8.845,0,0,1-2.163.245l-2.734.194c-.669.048-1.386.14-2.092.14A4.64,4.64,0,0,1,3.088,16.773Zm-.34-5.089c0,1.068-.433,3.435.694,4.012.988.506,2.486.181,3.536.106a32.16,32.16,0,0,0,4.3-.32c1.624-.345,1.088-2.651,1.015-3.841q-.247-4.074-.494-8.149L2.829,3.32Q2.757,7.5,2.748,11.684ZM5.778,1.2c-.2.1-.132.635-.082,1.04L8.945,2.3c.051-.549.117-1.024-.579-1.053-.377-.015-.755-.034-1.132-.046-.236-.007-.655-.077-1-.077A1.05,1.05,0,0,0,5.778,1.2ZM4.918,12.479a47.762,47.762,0,0,1-.1-6.12c.035-.73,1.173-.732,1.138,0a47.822,47.822,0,0,0,.1,6.12.487.487,0,0,1-.523.546A.592.592,0,0,1,4.918,12.479ZM8.68,12.36q-.1-2.943.077-5.881c.045-.729,1.183-.731,1.138,0q-.182,2.939-.077,5.881a.515.515,0,0,1-.548.549A.562.562,0,0,1,8.68,12.36Z" transform="translate(2 0.001)" stroke="rgba(0,0,0,0)" stroke-width="1"/>
      </g>
    </g>
    <g id="Componente_2_6" data-name="Componente 2 – 6" transform="translate(89 418)">
      <text id="Categoria_2" data-name="Categoria 2" transform="translate(0 14)" font-size="18" font-family="TektonPro-Bold, Tekton Pro" font-weight="700"><tspan x="0" y="0">Categoria 2</tspan></text>
      <g id="Icon_-_Delete-3" data-name="Icon - Delete" transform="translate(839)">
        <rect id="Square-2" data-name="Square" width="19" height="19" fill="none"/>
        <path id="Icon_-_Delete-4" data-name="Icon - Delete" d="M3.088,16.773c-1.321-.552-1.471-1.78-1.476-3.07-.016-3.468.02-6.937.079-10.4L.549,3.277a.569.569,0,0,1,0-1.138l4.012.077c-.077-.7-.205-1.612.45-1.992A4.811,4.811,0,0,1,7.363.068c.159.006.334,0,.514,0A3.844,3.844,0,0,1,9.533.285c.763.378.614,1.305.548,2.036l4.252.082a.569.569,0,0,1,0,1.137l-1.4-.027q.158,2.6.315,5.208c.1,1.71.356,3.482.287,5.194A2.666,2.666,0,0,1,11.874,16.5a8.845,8.845,0,0,1-2.163.245l-2.734.194c-.669.048-1.386.14-2.092.14A4.64,4.64,0,0,1,3.088,16.773Zm-.34-5.089c0,1.068-.433,3.435.694,4.012.988.506,2.486.181,3.536.106a32.16,32.16,0,0,0,4.3-.32c1.624-.345,1.088-2.651,1.015-3.841q-.247-4.074-.494-8.149L2.829,3.32Q2.757,7.5,2.748,11.684ZM5.778,1.2c-.2.1-.132.635-.082,1.04L8.945,2.3c.051-.549.117-1.024-.579-1.053-.377-.015-.755-.034-1.132-.046-.236-.007-.655-.077-1-.077A1.05,1.05,0,0,0,5.778,1.2ZM4.918,12.479a47.762,47.762,0,0,1-.1-6.12c.035-.73,1.173-.732,1.138,0a47.822,47.822,0,0,0,.1,6.12.487.487,0,0,1-.523.546A.592.592,0,0,1,4.918,12.479ZM8.68,12.36q-.1-2.943.077-5.881c.045-.729,1.183-.731,1.138,0q-.182,2.939-.077,5.881a.515.515,0,0,1-.548.549A.562.562,0,0,1,8.68,12.36Z" transform="translate(2 0.001)" stroke="rgba(0,0,0,0)" stroke-width="1"/>
      </g>
    </g>
    <g id="Componente_2_7" data-name="Componente 2 – 7" transform="translate(89 453)">
      <text id="Categoria_3" data-name="Categoria 3" transform="translate(0 14)" font-size="18" font-family="TektonPro-Bold, Tekton Pro" font-weight="700"><tspan x="0" y="0">Categoria 3</tspan></text>
      <g id="Icon_-_Delete-5" data-name="Icon - Delete" transform="translate(839)">
        <rect id="Square-3" data-name="Square" width="19" height="19" fill="none"/>
        <path id="Icon_-_Delete-6" data-name="Icon - Delete" d="M3.088,16.773c-1.321-.552-1.471-1.78-1.476-3.07-.016-3.468.02-6.937.079-10.4L.549,3.277a.569.569,0,0,1,0-1.138l4.012.077c-.077-.7-.205-1.612.45-1.992A4.811,4.811,0,0,1,7.363.068c.159.006.334,0,.514,0A3.844,3.844,0,0,1,9.533.285c.763.378.614,1.305.548,2.036l4.252.082a.569.569,0,0,1,0,1.137l-1.4-.027q.158,2.6.315,5.208c.1,1.71.356,3.482.287,5.194A2.666,2.666,0,0,1,11.874,16.5a8.845,8.845,0,0,1-2.163.245l-2.734.194c-.669.048-1.386.14-2.092.14A4.64,4.64,0,0,1,3.088,16.773Zm-.34-5.089c0,1.068-.433,3.435.694,4.012.988.506,2.486.181,3.536.106a32.16,32.16,0,0,0,4.3-.32c1.624-.345,1.088-2.651,1.015-3.841q-.247-4.074-.494-8.149L2.829,3.32Q2.757,7.5,2.748,11.684ZM5.778,1.2c-.2.1-.132.635-.082,1.04L8.945,2.3c.051-.549.117-1.024-.579-1.053-.377-.015-.755-.034-1.132-.046-.236-.007-.655-.077-1-.077A1.05,1.05,0,0,0,5.778,1.2ZM4.918,12.479a47.762,47.762,0,0,1-.1-6.12c.035-.73,1.173-.732,1.138,0a47.822,47.822,0,0,0,.1,6.12.487.487,0,0,1-.523.546A.592.592,0,0,1,4.918,12.479ZM8.68,12.36q-.1-2.943.077-5.881c.045-.729,1.183-.731,1.138,0q-.182,2.939-.077,5.881a.515.515,0,0,1-.548.549A.562.562,0,0,1,8.68,12.36Z" transform="translate(2 0.001)" stroke="rgba(0,0,0,0)" stroke-width="1"/>
      </g>
    </g>
    <g id="Componente_2_8" data-name="Componente 2 – 8" transform="translate(89 488)">
      <text id="Categoria_4" data-name="Categoria 4" transform="translate(0 14)" font-size="18" font-family="TektonPro-Bold, Tekton Pro" font-weight="700"><tspan x="0" y="0">Categoria 4</tspan></text>
      <g id="Icon_-_Delete-7" data-name="Icon - Delete" transform="translate(839)">
        <rect id="Square-4" data-name="Square" width="19" height="19" fill="none"/>
        <path id="Icon_-_Delete-8" data-name="Icon - Delete" d="M3.088,16.773c-1.321-.552-1.471-1.78-1.476-3.07-.016-3.468.02-6.937.079-10.4L.549,3.277a.569.569,0,0,1,0-1.138l4.012.077c-.077-.7-.205-1.612.45-1.992A4.811,4.811,0,0,1,7.363.068c.159.006.334,0,.514,0A3.844,3.844,0,0,1,9.533.285c.763.378.614,1.305.548,2.036l4.252.082a.569.569,0,0,1,0,1.137l-1.4-.027q.158,2.6.315,5.208c.1,1.71.356,3.482.287,5.194A2.666,2.666,0,0,1,11.874,16.5a8.845,8.845,0,0,1-2.163.245l-2.734.194c-.669.048-1.386.14-2.092.14A4.64,4.64,0,0,1,3.088,16.773Zm-.34-5.089c0,1.068-.433,3.435.694,4.012.988.506,2.486.181,3.536.106a32.16,32.16,0,0,0,4.3-.32c1.624-.345,1.088-2.651,1.015-3.841q-.247-4.074-.494-8.149L2.829,3.32Q2.757,7.5,2.748,11.684ZM5.778,1.2c-.2.1-.132.635-.082,1.04L8.945,2.3c.051-.549.117-1.024-.579-1.053-.377-.015-.755-.034-1.132-.046-.236-.007-.655-.077-1-.077A1.05,1.05,0,0,0,5.778,1.2ZM4.918,12.479a47.762,47.762,0,0,1-.1-6.12c.035-.73,1.173-.732,1.138,0a47.822,47.822,0,0,0,.1,6.12.487.487,0,0,1-.523.546A.592.592,0,0,1,4.918,12.479ZM8.68,12.36q-.1-2.943.077-5.881c.045-.729,1.183-.731,1.138,0q-.182,2.939-.077,5.881a.515.515,0,0,1-.548.549A.562.562,0,0,1,8.68,12.36Z" transform="translate(2 0.001)" stroke="rgba(0,0,0,0)" stroke-width="1"/>
      </g>
    </g>
    <g id="Componente_2_9" data-name="Componente 2 – 9" transform="translate(89 523)">
      <text id="Categoria_1-2" data-name="Categoria 1" transform="translate(0 14)" font-size="18" font-family="TektonPro-Bold, Tekton Pro" font-weight="700"><tspan x="0" y="0">Categoria 1</tspan></text>
      <g id="Icon_-_Delete-9" data-name="Icon - Delete" transform="translate(839)">
        <rect id="Square-5" data-name="Square" width="19" height="19" fill="none"/>
        <path id="Icon_-_Delete-10" data-name="Icon - Delete" d="M3.088,16.773c-1.321-.552-1.471-1.78-1.476-3.07-.016-3.468.02-6.937.079-10.4L.549,3.277a.569.569,0,0,1,0-1.138l4.012.077c-.077-.7-.205-1.612.45-1.992A4.811,4.811,0,0,1,7.363.068c.159.006.334,0,.514,0A3.844,3.844,0,0,1,9.533.285c.763.378.614,1.305.548,2.036l4.252.082a.569.569,0,0,1,0,1.137l-1.4-.027q.158,2.6.315,5.208c.1,1.71.356,3.482.287,5.194A2.666,2.666,0,0,1,11.874,16.5a8.845,8.845,0,0,1-2.163.245l-2.734.194c-.669.048-1.386.14-2.092.14A4.64,4.64,0,0,1,3.088,16.773Zm-.34-5.089c0,1.068-.433,3.435.694,4.012.988.506,2.486.181,3.536.106a32.16,32.16,0,0,0,4.3-.32c1.624-.345,1.088-2.651,1.015-3.841q-.247-4.074-.494-8.149L2.829,3.32Q2.757,7.5,2.748,11.684ZM5.778,1.2c-.2.1-.132.635-.082,1.04L8.945,2.3c.051-.549.117-1.024-.579-1.053-.377-.015-.755-.034-1.132-.046-.236-.007-.655-.077-1-.077A1.05,1.05,0,0,0,5.778,1.2ZM4.918,12.479a47.762,47.762,0,0,1-.1-6.12c.035-.73,1.173-.732,1.138,0a47.822,47.822,0,0,0,.1,6.12.487.487,0,0,1-.523.546A.592.592,0,0,1,4.918,12.479ZM8.68,12.36q-.1-2.943.077-5.881c.045-.729,1.183-.731,1.138,0q-.182,2.939-.077,5.881a.515.515,0,0,1-.548.549A.562.562,0,0,1,8.68,12.36Z" transform="translate(2 0.001)" stroke="rgba(0,0,0,0)" stroke-width="1"/>
      </g>
    </g>
    <g id="Componente_2_10" data-name="Componente 2 – 10" transform="translate(89 558)">
      <text id="Categoria_2-2" data-name="Categoria 2" transform="translate(0 14)" font-size="18" font-family="TektonPro-Bold, Tekton Pro" font-weight="700"><tspan x="0" y="0">Categoria 2</tspan></text>
      <g id="Icon_-_Delete-11" data-name="Icon - Delete" transform="translate(839)">
        <rect id="Square-6" data-name="Square" width="19" height="19" fill="none"/>
        <path id="Icon_-_Delete-12" data-name="Icon - Delete" d="M3.088,16.773c-1.321-.552-1.471-1.78-1.476-3.07-.016-3.468.02-6.937.079-10.4L.549,3.277a.569.569,0,0,1,0-1.138l4.012.077c-.077-.7-.205-1.612.45-1.992A4.811,4.811,0,0,1,7.363.068c.159.006.334,0,.514,0A3.844,3.844,0,0,1,9.533.285c.763.378.614,1.305.548,2.036l4.252.082a.569.569,0,0,1,0,1.137l-1.4-.027q.158,2.6.315,5.208c.1,1.71.356,3.482.287,5.194A2.666,2.666,0,0,1,11.874,16.5a8.845,8.845,0,0,1-2.163.245l-2.734.194c-.669.048-1.386.14-2.092.14A4.64,4.64,0,0,1,3.088,16.773Zm-.34-5.089c0,1.068-.433,3.435.694,4.012.988.506,2.486.181,3.536.106a32.16,32.16,0,0,0,4.3-.32c1.624-.345,1.088-2.651,1.015-3.841q-.247-4.074-.494-8.149L2.829,3.32Q2.757,7.5,2.748,11.684ZM5.778,1.2c-.2.1-.132.635-.082,1.04L8.945,2.3c.051-.549.117-1.024-.579-1.053-.377-.015-.755-.034-1.132-.046-.236-.007-.655-.077-1-.077A1.05,1.05,0,0,0,5.778,1.2ZM4.918,12.479a47.762,47.762,0,0,1-.1-6.12c.035-.73,1.173-.732,1.138,0a47.822,47.822,0,0,0,.1,6.12.487.487,0,0,1-.523.546A.592.592,0,0,1,4.918,12.479ZM8.68,12.36q-.1-2.943.077-5.881c.045-.729,1.183-.731,1.138,0q-.182,2.939-.077,5.881a.515.515,0,0,1-.548.549A.562.562,0,0,1,8.68,12.36Z" transform="translate(2 0.001)" stroke="rgba(0,0,0,0)" stroke-width="1"/>
      </g>
    </g>
    <g id="Componente_2_11" data-name="Componente 2 – 11" transform="translate(89 593)">
      <text id="Categoria_3-2" data-name="Categoria 3" transform="translate(0 14)" font-size="18" font-family="TektonPro-Bold, Tekton Pro" font-weight="700"><tspan x="0" y="0">Categoria 3</tspan></text>
      <g id="Icon_-_Delete-13" data-name="Icon - Delete" transform="translate(839)">
        <rect id="Square-7" data-name="Square" width="19" height="19" fill="none"/>
        <path id="Icon_-_Delete-14" data-name="Icon - Delete" d="M3.088,16.773c-1.321-.552-1.471-1.78-1.476-3.07-.016-3.468.02-6.937.079-10.4L.549,3.277a.569.569,0,0,1,0-1.138l4.012.077c-.077-.7-.205-1.612.45-1.992A4.811,4.811,0,0,1,7.363.068c.159.006.334,0,.514,0A3.844,3.844,0,0,1,9.533.285c.763.378.614,1.305.548,2.036l4.252.082a.569.569,0,0,1,0,1.137l-1.4-.027q.158,2.6.315,5.208c.1,1.71.356,3.482.287,5.194A2.666,2.666,0,0,1,11.874,16.5a8.845,8.845,0,0,1-2.163.245l-2.734.194c-.669.048-1.386.14-2.092.14A4.64,4.64,0,0,1,3.088,16.773Zm-.34-5.089c0,1.068-.433,3.435.694,4.012.988.506,2.486.181,3.536.106a32.16,32.16,0,0,0,4.3-.32c1.624-.345,1.088-2.651,1.015-3.841q-.247-4.074-.494-8.149L2.829,3.32Q2.757,7.5,2.748,11.684ZM5.778,1.2c-.2.1-.132.635-.082,1.04L8.945,2.3c.051-.549.117-1.024-.579-1.053-.377-.015-.755-.034-1.132-.046-.236-.007-.655-.077-1-.077A1.05,1.05,0,0,0,5.778,1.2ZM4.918,12.479a47.762,47.762,0,0,1-.1-6.12c.035-.73,1.173-.732,1.138,0a47.822,47.822,0,0,0,.1,6.12.487.487,0,0,1-.523.546A.592.592,0,0,1,4.918,12.479ZM8.68,12.36q-.1-2.943.077-5.881c.045-.729,1.183-.731,1.138,0q-.182,2.939-.077,5.881a.515.515,0,0,1-.548.549A.562.562,0,0,1,8.68,12.36Z" transform="translate(2 0.001)" stroke="rgba(0,0,0,0)" stroke-width="1"/>
      </g>
    </g>
    <g id="Componente_2_12" data-name="Componente 2 – 12" transform="translate(89 628)">
      <text id="Categoria_4-2" data-name="Categoria 4" transform="translate(0 14)" font-size="18" font-family="TektonPro-Bold, Tekton Pro" font-weight="700"><tspan x="0" y="0">Categoria 4</tspan></text>
      <g id="Icon_-_Delete-15" data-name="Icon - Delete" transform="translate(839)">
        <rect id="Square-8" data-name="Square" width="19" height="19" fill="none"/>
        <path id="Icon_-_Delete-16" data-name="Icon - Delete" d="M3.088,16.773c-1.321-.552-1.471-1.78-1.476-3.07-.016-3.468.02-6.937.079-10.4L.549,3.277a.569.569,0,0,1,0-1.138l4.012.077c-.077-.7-.205-1.612.45-1.992A4.811,4.811,0,0,1,7.363.068c.159.006.334,0,.514,0A3.844,3.844,0,0,1,9.533.285c.763.378.614,1.305.548,2.036l4.252.082a.569.569,0,0,1,0,1.137l-1.4-.027q.158,2.6.315,5.208c.1,1.71.356,3.482.287,5.194A2.666,2.666,0,0,1,11.874,16.5a8.845,8.845,0,0,1-2.163.245l-2.734.194c-.669.048-1.386.14-2.092.14A4.64,4.64,0,0,1,3.088,16.773Zm-.34-5.089c0,1.068-.433,3.435.694,4.012.988.506,2.486.181,3.536.106a32.16,32.16,0,0,0,4.3-.32c1.624-.345,1.088-2.651,1.015-3.841q-.247-4.074-.494-8.149L2.829,3.32Q2.757,7.5,2.748,11.684ZM5.778,1.2c-.2.1-.132.635-.082,1.04L8.945,2.3c.051-.549.117-1.024-.579-1.053-.377-.015-.755-.034-1.132-.046-.236-.007-.655-.077-1-.077A1.05,1.05,0,0,0,5.778,1.2ZM4.918,12.479a47.762,47.762,0,0,1-.1-6.12c.035-.73,1.173-.732,1.138,0a47.822,47.822,0,0,0,.1,6.12.487.487,0,0,1-.523.546A.592.592,0,0,1,4.918,12.479ZM8.68,12.36q-.1-2.943.077-5.881c.045-.729,1.183-.731,1.138,0q-.182,2.939-.077,5.881a.515.515,0,0,1-.548.549A.562.562,0,0,1,8.68,12.36Z" transform="translate(2 0.001)" stroke="rgba(0,0,0,0)" stroke-width="1"/>
      </g>
    </g>
    <g id="Componente_2_13" data-name="Componente 2 – 13" transform="translate(89 663)">
      <text id="Categoria_1-3" data-name="Categoria 1" transform="translate(0 14)" font-size="18" font-family="TektonPro-Bold, Tekton Pro" font-weight="700"><tspan x="0" y="0">Categoria 1</tspan></text>
      <g id="Icon_-_Delete-17" data-name="Icon - Delete" transform="translate(839)">
        <rect id="Square-9" data-name="Square" width="19" height="19" fill="none"/>
        <path id="Icon_-_Delete-18" data-name="Icon - Delete" d="M3.088,16.773c-1.321-.552-1.471-1.78-1.476-3.07-.016-3.468.02-6.937.079-10.4L.549,3.277a.569.569,0,0,1,0-1.138l4.012.077c-.077-.7-.205-1.612.45-1.992A4.811,4.811,0,0,1,7.363.068c.159.006.334,0,.514,0A3.844,3.844,0,0,1,9.533.285c.763.378.614,1.305.548,2.036l4.252.082a.569.569,0,0,1,0,1.137l-1.4-.027q.158,2.6.315,5.208c.1,1.71.356,3.482.287,5.194A2.666,2.666,0,0,1,11.874,16.5a8.845,8.845,0,0,1-2.163.245l-2.734.194c-.669.048-1.386.14-2.092.14A4.64,4.64,0,0,1,3.088,16.773Zm-.34-5.089c0,1.068-.433,3.435.694,4.012.988.506,2.486.181,3.536.106a32.16,32.16,0,0,0,4.3-.32c1.624-.345,1.088-2.651,1.015-3.841q-.247-4.074-.494-8.149L2.829,3.32Q2.757,7.5,2.748,11.684ZM5.778,1.2c-.2.1-.132.635-.082,1.04L8.945,2.3c.051-.549.117-1.024-.579-1.053-.377-.015-.755-.034-1.132-.046-.236-.007-.655-.077-1-.077A1.05,1.05,0,0,0,5.778,1.2ZM4.918,12.479a47.762,47.762,0,0,1-.1-6.12c.035-.73,1.173-.732,1.138,0a47.822,47.822,0,0,0,.1,6.12.487.487,0,0,1-.523.546A.592.592,0,0,1,4.918,12.479ZM8.68,12.36q-.1-2.943.077-5.881c.045-.729,1.183-.731,1.138,0q-.182,2.939-.077,5.881a.515.515,0,0,1-.548.549A.562.562,0,0,1,8.68,12.36Z" transform="translate(2 0.001)" stroke="rgba(0,0,0,0)" stroke-width="1"/>
      </g>
    </g>
    <g id="Componente_2_14" data-name="Componente 2 – 14" transform="translate(89 698)">
      <text id="Categoria_2-3" data-name="Categoria 2" transform="translate(0 14)" font-size="18" font-family="TektonPro-Bold, Tekton Pro" font-weight="700"><tspan x="0" y="0">Categoria 2</tspan></text>
      <g id="Icon_-_Delete-19" data-name="Icon - Delete" transform="translate(839)">
        <rect id="Square-10" data-name="Square" width="19" height="19" fill="none"/>
        <path id="Icon_-_Delete-20" data-name="Icon - Delete" d="M3.088,16.773c-1.321-.552-1.471-1.78-1.476-3.07-.016-3.468.02-6.937.079-10.4L.549,3.277a.569.569,0,0,1,0-1.138l4.012.077c-.077-.7-.205-1.612.45-1.992A4.811,4.811,0,0,1,7.363.068c.159.006.334,0,.514,0A3.844,3.844,0,0,1,9.533.285c.763.378.614,1.305.548,2.036l4.252.082a.569.569,0,0,1,0,1.137l-1.4-.027q.158,2.6.315,5.208c.1,1.71.356,3.482.287,5.194A2.666,2.666,0,0,1,11.874,16.5a8.845,8.845,0,0,1-2.163.245l-2.734.194c-.669.048-1.386.14-2.092.14A4.64,4.64,0,0,1,3.088,16.773Zm-.34-5.089c0,1.068-.433,3.435.694,4.012.988.506,2.486.181,3.536.106a32.16,32.16,0,0,0,4.3-.32c1.624-.345,1.088-2.651,1.015-3.841q-.247-4.074-.494-8.149L2.829,3.32Q2.757,7.5,2.748,11.684ZM5.778,1.2c-.2.1-.132.635-.082,1.04L8.945,2.3c.051-.549.117-1.024-.579-1.053-.377-.015-.755-.034-1.132-.046-.236-.007-.655-.077-1-.077A1.05,1.05,0,0,0,5.778,1.2ZM4.918,12.479a47.762,47.762,0,0,1-.1-6.12c.035-.73,1.173-.732,1.138,0a47.822,47.822,0,0,0,.1,6.12.487.487,0,0,1-.523.546A.592.592,0,0,1,4.918,12.479ZM8.68,12.36q-.1-2.943.077-5.881c.045-.729,1.183-.731,1.138,0q-.182,2.939-.077,5.881a.515.515,0,0,1-.548.549A.562.562,0,0,1,8.68,12.36Z" transform="translate(2 0.001)" stroke="rgba(0,0,0,0)" stroke-width="1"/>
      </g>
    </g>
    <g id="Componente_2_15" data-name="Componente 2 – 15" transform="translate(89 733)">
      <text id="Categoria_3-3" data-name="Categoria 3" transform="translate(0 14)" font-size="18" font-family="TektonPro-Bold, Tekton Pro" font-weight="700"><tspan x="0" y="0">Categoria 3</tspan></text>
      <g id="Icon_-_Delete-21" data-name="Icon - Delete" transform="translate(839)">
        <rect id="Square-11" data-name="Square" width="19" height="19" fill="none"/>
        <path id="Icon_-_Delete-22" data-name="Icon - Delete" d="M3.088,16.773c-1.321-.552-1.471-1.78-1.476-3.07-.016-3.468.02-6.937.079-10.4L.549,3.277a.569.569,0,0,1,0-1.138l4.012.077c-.077-.7-.205-1.612.45-1.992A4.811,4.811,0,0,1,7.363.068c.159.006.334,0,.514,0A3.844,3.844,0,0,1,9.533.285c.763.378.614,1.305.548,2.036l4.252.082a.569.569,0,0,1,0,1.137l-1.4-.027q.158,2.6.315,5.208c.1,1.71.356,3.482.287,5.194A2.666,2.666,0,0,1,11.874,16.5a8.845,8.845,0,0,1-2.163.245l-2.734.194c-.669.048-1.386.14-2.092.14A4.64,4.64,0,0,1,3.088,16.773Zm-.34-5.089c0,1.068-.433,3.435.694,4.012.988.506,2.486.181,3.536.106a32.16,32.16,0,0,0,4.3-.32c1.624-.345,1.088-2.651,1.015-3.841q-.247-4.074-.494-8.149L2.829,3.32Q2.757,7.5,2.748,11.684ZM5.778,1.2c-.2.1-.132.635-.082,1.04L8.945,2.3c.051-.549.117-1.024-.579-1.053-.377-.015-.755-.034-1.132-.046-.236-.007-.655-.077-1-.077A1.05,1.05,0,0,0,5.778,1.2ZM4.918,12.479a47.762,47.762,0,0,1-.1-6.12c.035-.73,1.173-.732,1.138,0a47.822,47.822,0,0,0,.1,6.12.487.487,0,0,1-.523.546A.592.592,0,0,1,4.918,12.479ZM8.68,12.36q-.1-2.943.077-5.881c.045-.729,1.183-.731,1.138,0q-.182,2.939-.077,5.881a.515.515,0,0,1-.548.549A.562.562,0,0,1,8.68,12.36Z" transform="translate(2 0.001)" stroke="rgba(0,0,0,0)" stroke-width="1"/>
      </g>
    </g>
    <g id="Componente_2_16" data-name="Componente 2 – 16" transform="translate(89 768)">
      <text id="Categoria_4-3" data-name="Categoria 4" transform="translate(0 14)" font-size="18" font-family="TektonPro-Bold, Tekton Pro" font-weight="700"><tspan x="0" y="0">Categoria 4</tspan></text>
      <g id="Icon_-_Delete-23" data-name="Icon - Delete" transform="translate(839)">
        <rect id="Square-12" data-name="Square" width="19" height="19" fill="none"/>
        <path id="Icon_-_Delete-24" data-name="Icon - Delete" d="M3.088,16.773c-1.321-.552-1.471-1.78-1.476-3.07-.016-3.468.02-6.937.079-10.4L.549,3.277a.569.569,0,0,1,0-1.138l4.012.077c-.077-.7-.205-1.612.45-1.992A4.811,4.811,0,0,1,7.363.068c.159.006.334,0,.514,0A3.844,3.844,0,0,1,9.533.285c.763.378.614,1.305.548,2.036l4.252.082a.569.569,0,0,1,0,1.137l-1.4-.027q.158,2.6.315,5.208c.1,1.71.356,3.482.287,5.194A2.666,2.666,0,0,1,11.874,16.5a8.845,8.845,0,0,1-2.163.245l-2.734.194c-.669.048-1.386.14-2.092.14A4.64,4.64,0,0,1,3.088,16.773Zm-.34-5.089c0,1.068-.433,3.435.694,4.012.988.506,2.486.181,3.536.106a32.16,32.16,0,0,0,4.3-.32c1.624-.345,1.088-2.651,1.015-3.841q-.247-4.074-.494-8.149L2.829,3.32Q2.757,7.5,2.748,11.684ZM5.778,1.2c-.2.1-.132.635-.082,1.04L8.945,2.3c.051-.549.117-1.024-.579-1.053-.377-.015-.755-.034-1.132-.046-.236-.007-.655-.077-1-.077A1.05,1.05,0,0,0,5.778,1.2ZM4.918,12.479a47.762,47.762,0,0,1-.1-6.12c.035-.73,1.173-.732,1.138,0a47.822,47.822,0,0,0,.1,6.12.487.487,0,0,1-.523.546A.592.592,0,0,1,4.918,12.479ZM8.68,12.36q-.1-2.943.077-5.881c.045-.729,1.183-.731,1.138,0q-.182,2.939-.077,5.881a.515.515,0,0,1-.548.549A.562.562,0,0,1,8.68,12.36Z" transform="translate(2 0.001)" stroke="rgba(0,0,0,0)" stroke-width="1"/>
      </g>
    </g>
    <g id="Form_Fields_Pill_Box_Normal-2" data-name="Form Fields / Pill Box / Normal" transform="translate(1044.274 -1393.759)">
      <text id="Seleccionar_Tipo" data-name="Seleccionar Tipo" transform="translate(138 1940)" font-size="18" font-family="TektonPro-Bold, Tekton Pro" font-weight="700"><tspan x="0" y="0">Seleccionar Tipo</tspan></text>
      <path id="Pill_Box-2" data-name="Pill Box" d="M487.09,5.233C478.411-1.7,465.211.252,454.52.28q-17,.042-34,.052Q394.937.358,369.356.37q-31.044.016-62.092.021Q273.593.4,239.918.4q-33.5,0-67-.01-30.249-.005-60.5-.024Q88.428.348,64.442.321,49.524.3,34.61.266C32.506.259,30.4.255,28.3.231,22.153.154,15.707.056,10.052,2.823,3.424,6.07-.232,13.256.009,20.512A15.541,15.541,0,0,0,10.8,35.334a37.509,37.509,0,0,0,12.481,1.751c2.334.007,4.671,0,7,0q15.446.005,30.893.007,24.216.005,48.435,0,30.223,0,60.449,0H305.08q31.405,0,62.807,0,26.183,0,52.363,0,18.2,0,36.408-.007c7.5,0,15.833.736,23.169-.945,6.586-1.51,11.878-5.463,13.238-12.349A19.806,19.806,0,0,0,487.09,5.233c-1.008-.886-2.494.59-1.479,1.479,5.881,5.156,8.058,15.607,3.073,22.126-4.043,5.288-11.829,6.115-17.986,6.15-1.96.01-3.921,0-5.881,0Q450.632,35,436.447,35q-23.023.005-46.042.007-29.182,0-58.36,0H200.071q-31.473,0-62.947,0-27.057,0-54.114,0Q63.174,35,43.338,35q-9.936,0-19.873-.007A38.541,38.541,0,0,1,12.6,33.712c-3.781-1.113-7.336-3.23-9.063-6.917A17.543,17.543,0,0,1,2.8,14.787C5.437,5.414,14.179,2.526,23.046,2.31c2.121-.052,4.238.007,6.359.021,7.106.056,14.215.049,21.321.063q20.438.037,40.88.045,27.591.021,55.185.031,31.772.01,63.54.017,33.4.005,66.808,0,32.133,0,64.269-.014,28.072-.01,56.148-.031Q418.778,2.427,440,2.4c7.723-.01,15.443-.014,23.166-.059,7.671-.045,16.085-.7,22.44,4.374C486.65,7.542,488.143,6.074,487.09,5.233Z" transform="translate(113.002 1914.994)"/>
    </g>
    <g id="Icon_-_Arrow_Down-2" data-name="Icon - Arrow Down" transform="translate(1605.305 536.25)" clip-path="url(#clip-path)">
      <path id="Arrow_Down-2" data-name="Arrow Down" d="M472.786,46.684q2.2,2.276,4.307,4.642c-.093-.346-.182-.695-.274-1.04-.007.025-.011.053-.018.078a1.076,1.076,0,0,0,1.785,1.04,63.269,63.269,0,0,0,4.068-5.055c.887-1.044-.62-2.561-1.51-1.51a61.87,61.87,0,0,1-4.068,5.055c.595.346,1.19.695,1.785,1.04.228-.983-.72-1.642-1.314-2.294q-1.6-1.758-3.249-3.462c-.958-.994-2.469.517-1.51,1.507Z" transform="translate(-472.48 -44.484)"/>
    </g>
    <g id="Footer" transform="translate(89 975.811)">
      <text id="_2021" data-name="© 2021" transform="translate(0.308 68.751)" font-size="20" font-family="TektonPro-Bold, Tekton Pro" font-weight="700"><tspan x="0" y="0">© 2021</tspan></text>
      <text id="Proyecto_para_Fundamentos_de_ingeniería_de_software_-_Stella_Steinfeld_y_Alvaro_Rameau" data-name="Proyecto para Fundamentos de ingeniería de software - Stella Steinfeld y Alvaro Rameau" transform="translate(0 22)" font-size="20" font-family="TektonPro-Bold, Tekton Pro" font-weight="700"><tspan x="0" y="0">Proyecto para Fundamentos de ingeniería de software - Stella Steinfeld y Alvaro Rameau</tspan></text>
    </g>
    <g id="Radios_Default" data-name="Radios / Default" transform="translate(1033 -2972)">
      <text id="UYU" transform="translate(691 3182)" font-size="18" font-family="TektonPro-Bold, Tekton Pro" font-weight="700"><tspan x="-16.209" y="0">UYU</tspan></text>
      <path id="Oval" d="M1.778,7.925c.659-4.237,4.93-6.775,9.076-6.02,3.5.638,4.652,4.447,4.632,7.589-.035,4.969-6.342,6.274-10.1,4.676A5.913,5.913,0,0,1,1.807,7.691C1.93,6.57.174,6.578.051,7.691-.7,14.53,6.565,18.149,12.441,15.947A6.964,6.964,0,0,0,17.234,9.74C17.389,6,15.87,1.534,11.964.363,6.872-1.157.908,2.137.083,7.46-.09,8.563,1.6,9.041,1.778,7.925Z" transform="translate(646.003 3167.009)"/>
    </g>
    <g id="Radios_Checked_1" data-name="Radios / Checked 1" transform="translate(1033 -2972)">
      <text id="USD" transform="translate(690 3209)" font-size="18" font-family="TektonPro-Bold, Tekton Pro" font-weight="700"><tspan x="-16.668" y="0">USD</tspan></text>
      <g id="Oval-2" data-name="Oval" transform="translate(646.003 3194.009)">
        <path id="Oval-3" data-name="Oval" d="M1.778,7.925c.659-4.237,4.93-6.775,9.076-6.02,3.5.638,4.652,4.447,4.632,7.589-.035,4.969-6.342,6.274-10.1,4.676A5.913,5.913,0,0,1,1.807,7.691C1.93,6.57.174,6.578.051,7.691-.7,14.53,6.565,18.149,12.441,15.947A6.964,6.964,0,0,0,17.234,9.74C17.389,6,15.87,1.534,11.964.363,6.872-1.157.908,2.137.083,7.46-.09,8.563,1.6,9.041,1.778,7.925Z"/>
        <path id="Oval-4" data-name="Oval" d="M-1331.992-3316.49a1.014,1.014,0,0,1,.018-.118,1.023,1.023,0,0,1,.015-.117,2.923,2.923,0,0,1,4.037-2.014,2.941,2.941,0,0,1,1.1,3.777,2.557,2.557,0,0,1-2.3,1.276A2.7,2.7,0,0,1-1331.992-3316.49Z" transform="translate(1337.886 3324.656)"/>
      </g>
    </g>
    <g id="Radios_Checked_2" data-name="Radios / Checked 2" transform="translate(1033 -2972)">
      <text id="R_" data-name="R$" transform="translate(685 3236)" font-size="18" font-family="TektonPro-Bold, Tekton Pro" font-weight="700"><tspan x="-11.385" y="0">R$</tspan></text>
      <g id="Oval-5" data-name="Oval" transform="translate(646.003 3221.009)">
        <path id="Oval-6" data-name="Oval" d="M-1331.95-3338.3a1,1,0,0,1,.021-.123,1.018,1.018,0,0,1,.011-.108c.827-5.332,6.8-8.631,11.9-7.109,3.912,1.173,5.434,5.648,5.278,9.393a6.975,6.975,0,0,1-4.8,6.217,10.224,10.224,0,0,1-3.585.645C-1327.989-3329.382-1332.552-3332.8-1331.95-3338.3Z" transform="translate(1332 3346)"/>
        <path id="Oval-7" data-name="Oval" d="M-1331.992-3343.487a1.039,1.039,0,0,1,.018-.119,1.028,1.028,0,0,1,.015-.115,2.928,2.928,0,0,1,4.045-2.018,2.945,2.945,0,0,1,1.1,3.783,2.561,2.561,0,0,1-2.3,1.278A2.7,2.7,0,0,1-1331.992-3343.487Z" transform="translate(1337.896 3351.665)"/>
      </g>
    </g>
    <path id="Box" d="M159.814.166C137.808.677,115.8.974,93.788.731,76.97.546,60.157.136,43.338.039,29.379-.049,15.42.02,1.461.166A1.485,1.485,0,0,0,0,1.627c0,7.72.516,15.459.633,23.184C.77,33.685.794,42.559.765,51.433.706,69.5.414,87.568.2,105.633c-.112,9.4-.2,18.8-.2,28.2a1.478,1.478,0,0,0,1.461,1.461c38.784-.409,77.54.823,116.315.638,14.013-.068,28.025-.317,42.038-.638a1.485,1.485,0,0,0,1.461-1.461c-.01-35.258-1.111-70.512-.677-105.77.107-8.806.677-17.632.677-26.433a1.462,1.462,0,0,0-2.922,0c0,7.72-.516,15.459-.633,23.184-.136,8.874-.161,17.748-.132,26.623.058,18.07.351,36.135.56,54.2.112,9.4.2,18.8.2,28.2l1.461-1.461c-22.005.511-44.015.809-66.026.565-16.818-.185-33.631-.594-50.45-.692-13.959-.083-27.918-.015-41.877.131l1.461,1.461c.01-35.263,1.11-70.516.677-105.775-.107-8.806-.677-17.632-.677-26.433L1.461,3.088c38.784-.409,77.54.823,116.315.638,14.013-.068,28.025-.317,42.038-.638C161.694,3.044,161.7.122,159.814.166Z" transform="translate(1650.725 164.838)"/>
  </g>
</svg>
