<svg xmlns="http://www.w3.org/2000/svg" xmlns:xlink="http://www.w3.org/1999/xlink" width="428" height="1403" viewBox="0 0 428 1403">
  <defs>
    <clipPath id="clip-Graficas_porcategoria-mobile">
      <rect width="428" height="1403"/>
    </clipPath>
  </defs>
  <g id="Graficas_porcategoria-mobile" clip-path="url(#clip-Graficas_porcategoria-mobile)">
    <rect width="428" height="1403" fill="#fff"/>
    <g id="Tabs_Line_Box_Style_1" data-name="Tabs / Line Box / Style 1" transform="translate(-77 -1871.365)">
      <path id="Line" d="M141.523,3.93l-9.03-.109c-23.668-.283-47.337-.572-71.005-.726C41.228,2.96,20.967,2.905.707,3.189-.237,3.2-.235.215.707.205Q4.07.159,7.439.121C28.243-.088,49.05.006,69.854.17c23.845.184,47.689.482,71.533.77l2.734.033a7.65,7.65,0,0,1,2.09-.266C197.842.7,249.4-.293,301.018.657a6.444,6.444,0,0,1,3.239.808c13.347-.229,26.693-.6,40.037-1.25.944-.045.94,2.939,0,2.984q-3.217.157-6.439.293c-10.752.45-21.5.742-32.258.937-.418,1.216-1.945,2.244-4.579,2.2-51.624-.95-103.183.04-154.807.05C143.242,6.676,141.68,5.338,141.523,3.93Z" transform="translate(114 2069.219)"/>
      <text id="Balance" transform="translate(185 2059)" font-size="25" font-family="TektonPro-Bold, Tekton Pro" font-weight="700"><tspan x="-39.825" y="0">Balance</tspan></text>
      <text id="Por_categorias" data-name="Por categorias" transform="translate(335.471 2059)" font-size="25" font-family="TektonPro-Bold, Tekton Pro" font-weight="700"><tspan x="-74.263" y="0">Por categorias</tspan></text>
    </g>
    <path id="icons8-menu" d="M3.4,7a1.4,1.4,0,1,0,0,2.8H36.945a1.4,1.4,0,1,0,0-2.8Zm0,9.785a1.4,1.4,0,1,0,0,2.8H36.945a1.4,1.4,0,1,0,0-2.8Zm0,9.785a1.4,1.4,0,1,0,0,2.8H36.945a1.4,1.4,0,1,0,0-2.8Z" transform="translate(346.657 22)"/>
    <text id="Logo" transform="translate(37 45)" font-size="24" font-family="TektonPro-Bold, Tekton Pro" font-weight="700"><tspan x="0" y="0">Logo</tspan></text>
    <text id="Graficas" transform="translate(37 127)" font-size="34" font-family="TektonPro-Bold, Tekton Pro" font-weight="700"><tspan x="0" y="0">Graficas</tspan></text>
    <g id="Footer" transform="translate(37 1286.682)">
      <text id="_2021" data-name="© 2021" transform="translate(0.308 68.751)" font-size="20" font-family="TektonPro-Bold, Tekton Pro" font-weight="700"><tspan x="0" y="0">© 2021</tspan></text>
      <text id="Proyecto_para_Fundamentos_de_ingeniería_de_software_Stella_Steinfeld_y_Alvaro_Rameau" data-name="Proyecto para Fundamentos de 
ingeniería de software 
 Stella Steinfeld y Alvaro Rameau" transform="translate(0 -24)" font-size="20" font-family="TektonPro-Bold, Tekton Pro" font-weight="700"><tspan x="0" y="0">Proyecto para Fundamentos de </tspan><tspan x="0" y="28">ingeniería de software </tspan><tspan x="0" y="56" xml:space="preserve"> Stella Steinfeld y Alvaro Rameau</tspan></text>
    </g>
    <g id="Grupo_1318" data-name="Grupo 1318" transform="translate(-52 -196)">
      <text id="En_el_siguiente_gráfico_se_muestran_todos_los_movimientos_según_su_tipo_ingreso_o_egreso_desde_la_fecha_a_12_meses_hacia_atras_ordenados_por_categorías" data-name="En el siguiente gráfico se muestran todos los 
movimientos según su tipo (ingreso o egreso) 
desde la fecha a 12 meses hacia atras 
ordenados por categorías" transform="translate(89 446)" font-size="18" font-family="TektonPro-Bold, Tekton Pro" font-weight="700"><tspan x="0" y="0">En el siguiente gráfico se muestran todos los </tspan><tspan x="0" y="26">movimientos según su tipo (ingreso o egreso) </tspan><tspan x="0" y="52">desde la fecha a 12 meses hacia atras </tspan><tspan x="0" y="78">ordenados por categorías</tspan></text>
      <g id="Chart_Circle" data-name="Chart / Circle" transform="translate(-1365 1123)">
        <g id="Grupo_1219" data-name="Grupo 1219" transform="translate(1454 -444)">
          <path id="Trazado_961" data-name="Trazado 961" d="M124.008,125V250C55.523,250.012,0,194.045,0,125S55.523,0,124.008,0a123.091,123.091,0,0,1,85.855,34.8Z" fill="rgba(59,71,80,0.5)" stroke="#000" stroke-width="3"/>
          <path id="Trazado_962" data-name="Trazado 962" d="M119.025,125V0C187.51,0,243.033,55.967,243.033,125S187.51,250,119.025,250A123.091,123.091,0,0,1,33.17,215.2Z" transform="translate(6.967)" fill="#fafafa" stroke="#000" stroke-width="3"/>
        </g>
      </g>
      <g id="Chart_Circle-2" data-name="Chart / Circle" transform="translate(-1365 1524)">
        <g id="Grupo_1219-2" data-name="Grupo 1219" transform="translate(1454 -444)">
          <path id="Trazado_961-2" data-name="Trazado 961" d="M124.008,125V250C55.523,250.012,0,194.045,0,125S55.523,0,124.008,0a123.091,123.091,0,0,1,85.855,34.8Z" fill="rgba(59,71,80,0.5)" stroke="#000" stroke-width="3"/>
          <path id="Trazado_962-2" data-name="Trazado 962" d="M119.025,125V0C187.51,0,243.033,55.967,243.033,125S187.51,250,119.025,250A123.091,123.091,0,0,1,33.17,215.2Z" transform="translate(6.967)" fill="#fafafa" stroke="#000" stroke-width="3"/>
        </g>
      </g>
      <text id="Ingresos" transform="translate(138 626)" font-size="28" font-family="TektonPro-Bold, Tekton Pro" font-weight="700"><tspan x="-49.238" y="0">Ingresos</tspan></text>
      <text id="Egresos" transform="translate(136 1027)" font-size="28" font-family="TektonPro-Bold, Tekton Pro" font-weight="700"><tspan x="-47.04" y="0">Egresos</tspan></text>
    </g>
  </g>
</svg>
