<svg xmlns="http://www.w3.org/2000/svg" xmlns:xlink="http://www.w3.org/1999/xlink" width="428" height="1685" viewBox="0 0 428 1685">
  <defs>
    <clipPath id="clip-path">
      <rect width="10.444" height="7.224" fill="none"/>
    </clipPath>
    <clipPath id="clip-path-3">
      <rect width="32" height="32" fill="none"/>
    </clipPath>
    <clipPath id="clip-Movimientos-mobile">
      <rect width="428" height="1685"/>
    </clipPath>
  </defs>
  <g id="Movimientos-mobile" clip-path="url(#clip-Movimientos-mobile)">
    <rect width="428" height="1685" fill="#fff"/>
    <g id="Grupo_1315" data-name="Grupo 1315" transform="translate(-0.467)">
      <g id="Drop_Downs_Pill_Box_Action_2" data-name="Drop Downs / Pill Box / Action 2" transform="translate(-385.533 -1331.662)">
        <g id="Drop_Down_List" data-name="Drop Down List" transform="translate(613 1595)">
          <rect id="Rectángulo_450" data-name="Rectángulo 450" width="123" height="98" transform="translate(2 2)"/>
          <path id="Box" d="M125.455.124C108.181.506,90.9.728,73.624.546,60.422.408,47.224.1,34.021.029,23.063-.036,12.105.015,1.147.124A1.139,1.139,0,0,0,0,1.217C0,6.99.405,12.777.5,18.554.6,25.19.623,31.826.6,38.462.554,51.975.325,65.484.161,78.993.073,86.023,0,93.049,0,100.078a1.134,1.134,0,0,0,1.147,1.093c30.446-.306,60.869.616,91.308.477,11-.051,22-.237,33-.477a1.139,1.139,0,0,0,1.147-1.093c-.008-26.366-.872-52.729-.531-79.1.084-6.585.531-13.185.531-19.767a1.151,1.151,0,0,0-2.294,0c0,5.773-.405,11.561-.5,17.337-.107,6.636-.126,13.272-.1,19.909.046,13.513.275,27.022.44,40.531.088,7.03.157,14.055.161,21.085l1.147-1.093c-17.274.382-34.553.6-51.831.423-13.2-.138-26.4-.444-39.6-.517q-16.437-.093-32.874.1l1.147,1.093c.008-26.37.872-52.733.531-79.1C2.741,14.4,2.294,7.8,2.294,1.217L1.147,2.309c30.446-.306,60.869.616,91.308.477,11-.051,22-.237,33-.477A1.093,1.093,0,1,0,125.455.124Z" transform="translate(0 0)"/>
          <text id="Categoria_1" data-name="Categoria 1" transform="translate(18 32)" fill="#fff" font-size="18" font-family="TektonPro-Bold, Tekton Pro" font-weight="700"><tspan x="0" y="0">Categoria 1</tspan></text>
          <text id="Categoria_2" data-name="Categoria 2" transform="translate(18 57)" fill="#fff" font-size="18" font-family="TektonPro-Bold, Tekton Pro" font-weight="700"><tspan x="0" y="0">Categoria 2</tspan></text>
          <text id="Categoria_3" data-name="Categoria 3" transform="translate(18 82)" fill="#fff" font-size="18" font-family="TektonPro-Bold, Tekton Pro" font-weight="700"><tspan x="0" y="0">Categoria 3</tspan></text>
        </g>
        <path id="Pill_Box" data-name="Pill Box" d="M215.345,16.151c-6.538-.268-13.066-.6-19.608-.806q-3.925-.125-7.847-.208a1.2,1.2,0,0,1-.759-.016c-13.156-.269-26.3-.224-39.467-.155q-26.741.14-53.487.285c-17.455.111-34.915.222-52.366.5-5.279.086-10.563.159-15.835.379C16.865,16.506,5.708,15.2-.094,9.023c-6.348-6.76-4.54-17.347,2.4-23.39,7.72-6.718,20.1-6.584,30.685-6.468,13.061.142,26.127.118,39.189.129q28,.02,56-.046c13.013-.031,26.03-.013,39.038-.211,5.794-.088,11.6,0,17.4.1,5.217.083,10.436.167,15.647.119,12.1-.11,26.092-1.483,36.188,4.877.027.016.055.033.082.052s.057.038.083.057a18.269,18.269,0,0,1,7.545,10.534,15.772,15.772,0,0,1-1.816,12.338c-2.255,3.594-6.538,5.964-11.215,7.348A47.377,47.377,0,0,1,217.847,16.2C217.009,16.2,216.174,16.185,215.345,16.151Zm-10.816-2.569c10.657.437,24.348,2.123,32.767-4.494,7.967-6.263,5.392-17.928-2.565-23.388l-.075-.045c-4.965-3.156-11.294-4.136-17.531-4.373-6.767-.258-13.568-.154-20.368-.049-2.884.045-5.768.089-8.648.106q.218,15.871.438,31.74Q196.538,13.26,204.529,13.583ZM27.437-18.792c-6.174.027-12.712.375-18.217,2.784A17.054,17.054,0,0,0-.577-5.623,13.7,13.7,0,0,0,1.549,7.236c2.932,3.577,8.207,5.38,13.328,6.235,6.1,1.015,12.326.491,18.5.351,6.617-.153,13.235-.239,19.851-.316,17.6-.205,35.2-.313,52.8-.414q24.2-.135,48.393-.25c10.688-.06,21.369-.02,32.049.195q-.217-15.847-.438-31.689-1.845,0-3.689-.018c-7.127-.08-14.231-.2-21.358-.14-14.638.122-29.281.143-43.924.167q-26.536.041-53.07.01C53.24-18.648,42.489-18.8,31.741-18.8Q29.589-18.8,27.437-18.792Z" transform="translate(427 1581)"/>
        <g id="Icon_-_Arrow_Down" data-name="Icon - Arrow Down" transform="translate(635.305 1576.96)" clip-path="url(#clip-path)">
          <path id="Arrow_Down" data-name="Arrow Down" d="M472.786,46.684q2.2,2.276,4.307,4.642c-.093-.346-.182-.695-.274-1.04-.007.025-.011.053-.018.078a1.076,1.076,0,0,0,1.785,1.04,63.269,63.269,0,0,0,4.068-5.055c.887-1.044-.62-2.561-1.51-1.51a61.87,61.87,0,0,1-4.068,5.055c.595.346,1.19.695,1.785,1.04.228-.983-.72-1.642-1.314-2.294q-1.6-1.758-3.249-3.462c-.958-.994-2.469.517-1.51,1.507Z" transform="translate(-472.48 -44.484)"/>
        </g>
        <text id="Filtrar_por_categorias" data-name="Filtrar por categorias" transform="translate(521 1585)" font-size="18" font-family="TektonPro-Bold, Tekton Pro" font-weight="700"><tspan x="-78.849" y="0">Filtrar por categorias</tspan></text>
      </g>
      <g id="Buttons_Pill_Button_Default_Submit" data-name="Buttons / Pill Button / Default / Submit" transform="translate(-287.533 -393.27)">
        <path id="Pill_Button" data-name="Pill Button" d="M165.369,5.153C151.909-1.136,133.4.046,117.212.2,105.624.3,94.048-.122,82.466.046,71.151.207,59.908.193,48.593.091c-15.8-.143-33.922.433-43.25,8.99-7.384,6.771-7.79,17.383,3.071,23.063,11.758,6.148,28.234,5.107,42.79,4.866,11.964-.2,23.927.409,35.9.357,7.233-.031,14.447.042,21.674-.171,4.913-.143,9.807-.273,14.732-.213,14.683.171,30.857,1.493,43.287-4.184,11.679-5.334,12.1-15.817,5.27-22.9a24.477,24.477,0,0,0-6.694-4.747c-1.763-.877-4.343.6-2.568,1.482,10.534,5.257,14.223,16.233,4.907,22.755-9.674,6.767-26.853,5.851-40.319,5.561-10.128-.217-20.2.3-30.318.339-12.321.042-24.563-.192-36.86-.391-13.187-.217-26.732,1.433-39.519-1.087C13.817,32.459,7.984,29.883,5.439,25.86A11.19,11.19,0,0,1,5.6,13.552C8.2,9.361,13.447,6.058,20.51,4.251c7.439-1.9,15.852-2.1,23.86-2.087,10.352.014,20.686.245,31.045.084,11.564-.178,23.073.1,34.631.091,13.672-.007,28.391-1.2,41.7,1.024a43.028,43.028,0,0,1,11.061,3.272C164.6,7.477,167.186,6,165.369,5.153Z" transform="translate(325 548.994)"/>
        <text id="Nuevo_Movimiento" data-name="Nuevo Movimiento" transform="translate(413 575)" font-size="18" font-family="TektonPro-Bold, Tekton Pro" font-weight="700"><tspan x="-66.537" y="0">Nuevo Movimiento</tspan></text>
      </g>
      <g id="Drop_Downs_Pill_Box_Action_2-2" data-name="Drop Downs / Pill Box / Action 2" transform="translate(-385.533 -1159.756)">
        <g id="Drop_Down_List-2" data-name="Drop Down List" transform="translate(613 1595)">
          <rect id="Rectángulo_450-2" data-name="Rectángulo 450" width="123" height="83" transform="translate(2 2)"/>
          <path id="Box-2" data-name="Box" d="M125.455.1C108.181.423,90.9.609,73.624.457c-13.2-.116-26.4-.372-39.6-.432Q17.584-.058,1.147.1A1.068,1.068,0,0,0,0,1.017c0,4.827.405,9.666.5,14.5C.6,21.061.623,26.61.6,32.158.554,43.456.325,54.751.161,66.046.073,71.924,0,77.8,0,83.676a1.063,1.063,0,0,0,1.147.914c30.446-.256,60.869.515,91.308.4,11-.043,22-.2,33-.4a1.068,1.068,0,0,0,1.147-.914c-.008-22.045-.872-44.087-.531-66.132.084-5.506.531-11.024.531-16.527,0-1.175-2.294-1.179-2.294,0,0,4.827-.405,9.666-.5,14.5-.107,5.549-.126,11.1-.1,16.646.046,11.3.275,22.593.44,33.888.088,5.877.157,11.752.161,17.629l1.147-.914c-17.274.32-34.553.506-51.831.353-13.2-.116-26.4-.372-39.6-.432q-16.437-.078-32.874.082l1.147.914c.008-22.048.872-44.09.531-66.135C2.741,12.038,2.294,6.52,2.294,1.017l-1.147.914c30.446-.256,60.869.515,91.308.4,11-.043,22-.2,33-.4C126.931,1.9,126.935.076,125.455.1Z" transform="translate(0 0)"/>
          <text id="Ingreso" transform="translate(18 32)" fill="#fff" font-size="18" font-family="TektonPro-Bold, Tekton Pro" font-weight="700"><tspan x="0" y="0">Ingreso</tspan></text>
          <text id="Egreso" transform="translate(18 57)" fill="#fff" font-size="18" font-family="TektonPro-Bold, Tekton Pro" font-weight="700"><tspan x="0" y="0">Egreso</tspan></text>
        </g>
        <path id="Pill_Box-2" data-name="Pill Box" d="M215.345,16.151c-6.538-.268-13.066-.6-19.608-.806q-3.925-.125-7.847-.208a1.2,1.2,0,0,1-.759-.016c-13.156-.269-26.3-.224-39.467-.155q-26.741.14-53.487.285c-17.455.111-34.915.222-52.366.5-5.279.086-10.563.159-15.835.379C16.865,16.506,5.708,15.2-.094,9.023c-6.348-6.76-4.54-17.347,2.4-23.39,7.72-6.718,20.1-6.584,30.685-6.468,13.061.142,26.127.118,39.189.129q28,.02,56-.046c13.013-.031,26.03-.013,39.038-.211,5.794-.088,11.6,0,17.4.1,5.217.083,10.436.167,15.647.119,12.1-.11,26.092-1.483,36.188,4.877.027.016.055.033.082.052s.057.038.083.057a18.269,18.269,0,0,1,7.545,10.534,15.772,15.772,0,0,1-1.816,12.338c-2.255,3.594-6.538,5.964-11.215,7.348A47.377,47.377,0,0,1,217.847,16.2C217.009,16.2,216.174,16.185,215.345,16.151Zm-10.816-2.569c10.657.437,24.348,2.123,32.767-4.494,7.967-6.263,5.392-17.928-2.565-23.388l-.075-.045c-4.965-3.156-11.294-4.136-17.531-4.373-6.767-.258-13.568-.154-20.368-.049-2.884.045-5.768.089-8.648.106q.218,15.871.438,31.74Q196.538,13.26,204.529,13.583ZM27.437-18.792c-6.174.027-12.712.375-18.217,2.784A17.054,17.054,0,0,0-.577-5.623,13.7,13.7,0,0,0,1.549,7.236c2.932,3.577,8.207,5.38,13.328,6.235,6.1,1.015,12.326.491,18.5.351,6.617-.153,13.235-.239,19.851-.316,17.6-.205,35.2-.313,52.8-.414q24.2-.135,48.393-.25c10.688-.06,21.369-.02,32.049.195q-.217-15.847-.438-31.689-1.845,0-3.689-.018c-7.127-.08-14.231-.2-21.358-.14-14.638.122-29.281.143-43.924.167q-26.536.041-53.07.01C53.24-18.648,42.489-18.8,31.741-18.8Q29.589-18.8,27.437-18.792Z" transform="translate(427 1581)"/>
        <g id="Icon_-_Arrow_Down-2" data-name="Icon - Arrow Down" transform="translate(635.305 1576.96)" clip-path="url(#clip-path)">
          <path id="Arrow_Down-2" data-name="Arrow Down" d="M472.786,46.684q2.2,2.276,4.307,4.642c-.093-.346-.182-.695-.274-1.04-.007.025-.011.053-.018.078a1.076,1.076,0,0,0,1.785,1.04,63.269,63.269,0,0,0,4.068-5.055c.887-1.044-.62-2.561-1.51-1.51a61.87,61.87,0,0,1-4.068,5.055c.595.346,1.19.695,1.785,1.04.228-.983-.72-1.642-1.314-2.294q-1.6-1.758-3.249-3.462c-.958-.994-2.469.517-1.51,1.507Z" transform="translate(-472.48 -44.484)"/>
        </g>
        <text id="Filtrar_por_Tipo" data-name="Filtrar por Tipo" transform="translate(521 1585)" font-size="18" font-family="TektonPro-Bold, Tekton Pro" font-weight="700"><tspan x="-53.928" y="0">Filtrar por Tipo</tspan></text>
      </g>
      <g id="Icon_-_Download" data-name="Icon - Download" transform="translate(37.467 488.244)" clip-path="url(#clip-path-3)">
        <rect id="Square" width="32" height="32" fill="none"/>
        <path id="Icon_-_Download-2" data-name="Icon - Download" d="M143.2-6022.849a1.956,1.956,0,0,1-2.109-1.853,58.5,58.5,0,0,1-.178-6.357,1.068,1.068,0,0,1,2.134,0c.048,1.824.1,3.648.142,5.472.016.773-.21.667.721.6.625-.046,1.262-.037,1.9-.028.316,0,.631.009.943.007l9.938-.076,9.938-.076,2.84-.022,1.222-.009a.61.61,0,0,1,.039-.267,9.27,9.27,0,0,0-.061-2.267q-.034-1.3-.069-2.591a1.068,1.068,0,0,1,2.134,0q.044,1.62.087,3.239a9.808,9.808,0,0,1-.011,2.683c-.4,1.424-1.783,1.336-2.986,1.344l-13.131.1c-3.243.025-6.533.192-9.8.192C145.65-6022.76,144.419-6022.784,143.2-6022.849Zm9.167-8.387a46.907,46.907,0,0,1-4.776-5.437c-.864-1.167-1.262-2.754.56-3.217a15.8,15.8,0,0,1,3.859-.225c-.034-1.388-.041-2.777-.071-4.165-.024-1.109-.381-2.738.181-3.791.873-1.637,3.994-1.275,5.525-1.275,1.572,0,4.785-.374,5.579,1.4.507,1.135.145,2.789.122,3.972-.025,1.284-.033,2.567-.064,3.85a13.36,13.36,0,0,1,4,.251c1.718.537,1.227,2.114.418,3.2a48.331,48.331,0,0,1-5.006,5.661c-1.442,1.405-2.9,3.162-5.048,3.166C155.406-6027.85,153.849-6029.77,152.363-6031.235Zm-2.715-6.234q.389.5.79.98,1.417,1.712,2.982,3.293c1.02,1.033,2.654,3.214,4.221,3.216s3.2-2.183,4.221-3.216q1.562-1.58,2.982-3.293.4-.484.79-.98a3.332,3.332,0,0,1,.16-.4c-.1,0-.185,0-.26,0-1.118-.042-2.237-.065-3.355-.126a1.086,1.086,0,0,1-1.067-1.067c.087-2.34.084-4.682.157-7.021.036-1.134.037-.951-1.208-1.029-.805-.051-1.613-.1-2.42-.095s-1.615.044-2.42.095c-.247.016-1.138-.042-1.331.2.07-.083.1.179.119.442.017.3.011.6,0,.389.074,2.34.07,4.682.157,7.021A1.083,1.083,0,0,1,153.1-6038c-1.118.061-2.237.083-3.355.126-.08,0-.169,0-.26,0A3.129,3.129,0,0,1,149.648-6037.47Z" transform="translate(-140.908 6052.38)" stroke="rgba(0,0,0,0)" stroke-width="1"/>
      </g>
    </g>
    <path id="icons8-menu" d="M3.4,7a1.4,1.4,0,1,0,0,2.8H36.945a1.4,1.4,0,1,0,0-2.8Zm0,9.785a1.4,1.4,0,1,0,0,2.8H36.945a1.4,1.4,0,1,0,0-2.8Zm0,9.785a1.4,1.4,0,1,0,0,2.8H36.945a1.4,1.4,0,1,0,0-2.8Z" transform="translate(346.657 22)"/>
    <text id="Logo" transform="translate(37 45)" font-size="24" font-family="TektonPro-Bold, Tekton Pro" font-weight="700"><tspan x="0" y="0">Logo</tspan></text>
    <text id="Movimientos" transform="translate(37 127)" font-size="34" font-family="TektonPro-Bold, Tekton Pro" font-weight="700"><tspan x="0" y="0">Movimientos</tspan></text>
    <g id="Drop_Downs_Base_Box_Action_1" data-name="Drop Downs / Base Box / Action 1" transform="translate(87.295 -998)">
      <path id="Base_Box" data-name="Base Box" d="M71.586-60.762c-23.494-.379-46.993-.7-70.489-.214C.5-60.962,0-61.97,0-63.12Q.006-83.5.151-103.874c.3-50.706.971-101.5-.15-152.189a3.014,3.014,0,0,1,.306-1.543,18.977,18.977,0,0,1-.231-4.1q-.153-9.952,0-19.908c.037-2.443-.658-5.964,2.8-6.546a70.676,70.676,0,0,1,7.914-.535q3.815-.194,7.637-.3c9.659-.275,19.327-.269,28.994-.264,6.013,0,12.025.007,18.036-.056q20.212-.213,40.429-.438c14.9-.143,29.8-.259,44.707-.242,6.251.006,12.5.036,18.754.132q3.727.055,7.447.157c2.608.073,6.124-.12,6.642,2.937q.008.045.012.09a1.035,1.035,0,0,1,.025.18c.168,3.173.215,6.356.23,9.535.018,3.7-.015,7.409-.121,11.114-.051,1.757-.117,3.512-.216,5.266a14.42,14.42,0,0,1-.261,3,3.069,3.069,0,0,1,.287,1.513q-.448,20.392-.526,40.805c-.27,50.72.518,101.426.526,152.139,0,1.186-.5,2.115-1.1,2.144-13.178.6-26.358.864-39.54.942q-4.274.024-8.546.024C113.336-60.017,92.459-60.423,71.586-60.762ZM40.513-65.455c23.71.185,47.417.75,71.125,1.014,23.188.253,46.375.236,69.561-.78q-.015-19.333-.149-38.661c-.3-50.53-.966-101.152.139-151.661a10.034,10.034,0,0,1-3.246.306c-.324,0-.636-.008-.928,0q-4.011.076-8.027.143-8.577.15-17.15.286c-14.242.229-28.488.468-42.734.548-24.509.136-49.026.222-73.535.12-5.648-.027-11.25,0-16.9.3-5.02.262-10.424.538-15.3-.807a5.61,5.61,0,0,1-1.154-.449c.289,13.274.433,26.554.505,39.841.27,49.992-.5,99.976-.526,149.974q12.312-.241,24.621-.225Q33.663-65.51,40.513-65.455ZM8.67-286.586c-1.422.079-2.85.153-4.268.279-1.392.126-2.013.146-2.083,1.5-.059,1.183-.055,2.372-.069,3.555q-.061,4.7-.055,9.406,0,4.8.059,9.589c.014,1.206-.007,2.426.073,3.632.091,1.366.752,1.834,2.148,2.176a28.306,28.306,0,0,0,4.479.655,106.4,106.4,0,0,0,13.432-.1c3.01-.148,6.018-.3,9.014-.273,4.325.033,8.652.04,12.978.046q35.262.046,70.524-.179c15.839-.112,31.677-.418,47.516-.684l8.758-.149q1.825-.031,3.65-.064c.458-.009.948.007,1.445.023a14.138,14.138,0,0,0,2.931-.1c.972-.183,1.644-.449,1.841-1.4a7.111,7.111,0,0,0,.073-1.01c.041-.625.074-1.249.106-1.874.077-1.589.131-3.176.176-4.765.178-6.695.237-13.42-.116-20.112-.393-1.464-2.269-1.223-3.621-1.265-1.1-.033-2.2-.059-3.307-.086-26.307-.6-52.657-.159-78.975.127-12,.126-23.994.279-35.989.392-5.112.048-10.227.038-15.343.029q-3.11-.006-6.22-.008C28.1-287.236,18.373-287.152,8.67-286.586Z" transform="translate(114 1347)"/>
    </g>
    <rect id="Rectángulo_451" data-name="Rectángulo 451" width="178" height="207" transform="translate(204 77)" fill="#fff"/>
    <text id="Movimientos-2" data-name="Movimientos" transform="translate(223.295 89)" font-size="18" font-family="TektonPro-Bold, Tekton Pro" font-weight="700"><tspan x="0" y="0">Movimientos</tspan></text>
    <text id="Categorias" transform="translate(223.295 114)" font-size="18" font-family="TektonPro-Bold, Tekton Pro" font-weight="700"><tspan x="0" y="0">Categorias</tspan></text>
    <text id="Graficas" transform="translate(223.295 139)" font-size="18" font-family="TektonPro-Bold, Tekton Pro" font-weight="700"><tspan x="0" y="0">Graficas</tspan></text>
    <text id="Moneda" transform="translate(223.295 176.992)" font-size="18" font-family="TektonPro-Bold, Tekton Pro" font-weight="700"><tspan x="0" y="0">Moneda</tspan></text>
    <g id="Radios_Checked_1" data-name="Radios / Checked 1" transform="translate(-342 -2978)">
      <text id="USD" transform="translate(690 3209)" font-size="18" font-family="TektonPro-Bold, Tekton Pro" font-weight="700"><tspan x="-16.668" y="0">USD</tspan></text>
      <g id="Oval" transform="translate(646.003 3194.009)">
        <path id="Oval-2" data-name="Oval" d="M1.778,7.925c.659-4.237,4.93-6.775,9.076-6.02,3.5.638,4.652,4.447,4.632,7.589-.035,4.969-6.342,6.274-10.1,4.676A5.913,5.913,0,0,1,1.807,7.691C1.93,6.57.174,6.578.051,7.691-.7,14.53,6.565,18.149,12.441,15.947A6.964,6.964,0,0,0,17.234,9.74C17.389,6,15.87,1.534,11.964.363,6.872-1.157.908,2.137.083,7.46-.09,8.563,1.6,9.041,1.778,7.925Z"/>
        <path id="Oval-3" data-name="Oval" d="M-1331.992-3316.49a1.014,1.014,0,0,1,.018-.118,1.023,1.023,0,0,1,.015-.117,2.923,2.923,0,0,1,4.037-2.014,2.941,2.941,0,0,1,1.1,3.777,2.557,2.557,0,0,1-2.3,1.276A2.7,2.7,0,0,1-1331.992-3316.49Z" transform="translate(1337.886 3324.656)"/>
      </g>
    </g>
    <g id="Radios_Checked_2" data-name="Radios / Checked 2" transform="translate(-342 -2978)">
      <text id="R_" data-name="R$" transform="translate(685 3236)" font-size="18" font-family="TektonPro-Bold, Tekton Pro" font-weight="700"><tspan x="-11.385" y="0">R$</tspan></text>
      <g id="Oval-4" data-name="Oval" transform="translate(646.003 3221.009)">
        <path id="Oval-5" data-name="Oval" d="M-1331.95-3338.3a1,1,0,0,1,.021-.123,1.018,1.018,0,0,1,.011-.108c.827-5.332,6.8-8.631,11.9-7.109,3.912,1.173,5.434,5.648,5.278,9.393a6.975,6.975,0,0,1-4.8,6.217,10.224,10.224,0,0,1-3.585.645C-1327.989-3329.382-1332.552-3332.8-1331.95-3338.3Z" transform="translate(1332 3346)"/>
        <path id="Oval-6" data-name="Oval" d="M-1331.992-3343.487a1.039,1.039,0,0,1,.018-.119,1.028,1.028,0,0,1,.015-.115,2.928,2.928,0,0,1,4.045-2.018,2.945,2.945,0,0,1,1.1,3.783,2.561,2.561,0,0,1-2.3,1.278A2.7,2.7,0,0,1-1331.992-3343.487Z" transform="translate(1337.896 3351.665)"/>
      </g>
    </g>
    <g id="Radios_Default" data-name="Radios / Default" transform="translate(-342 -2978)">
      <text id="UYU" transform="translate(691 3182)" font-size="18" font-family="TektonPro-Bold, Tekton Pro" font-weight="700"><tspan x="-16.209" y="0">UYU</tspan></text>
      <path id="Oval-7" data-name="Oval" d="M1.778,7.925c.659-4.237,4.93-6.775,9.076-6.02,3.5.638,4.652,4.447,4.632,7.589-.035,4.969-6.342,6.274-10.1,4.676A5.913,5.913,0,0,1,1.807,7.691C1.93,6.57.174,6.578.051,7.691-.7,14.53,6.565,18.149,12.441,15.947A6.964,6.964,0,0,0,17.234,9.74C17.389,6,15.87,1.534,11.964.363,6.872-1.157.908,2.137.083,7.46-.09,8.563,1.6,9.041,1.778,7.925Z" transform="translate(646.003 3167.009)"/>
    </g>
    <g id="Accordions_Base_Box_Normal_1" data-name="Accordions / Base Box / Normal 1" transform="translate(37 579)">
      <path id="Base_Box-2" data-name="Base Box" d="M338.063,3.886c-.649-2.592-3.548-2.708-4.823-2.963C329.509.177,325.7.462,321.952.41Q311.875.274,301.8.169,286.357.013,270.911.009c-14.383.013-28.766.242-43.149.483q-29.7.492-59.4.548c-30.563.069-61.128-.078-91.693.1q-22.821.136-45.638.582c-7.844.164-15.7.224-23.538.617-1.72.086-5.537-.5-6.73,2.432C-.1,6.892.173,11.412.11,13.887c-.12,4.882-.139,9.777-.084,14.659.046,4,0,8.237.4,12.183.362,3.5,2.319,4.028,4.044,4.464A57.471,57.471,0,0,0,14.7,46.4c15.428,1.1,30.874.811,46.307.479,21.429-.461,42.857-.16,64.288-.328q30.088-.239,60.174-.44,40.522-.252,81.043-.582,21-.162,42-.323c7.514-.056,15.073.319,22.579-.263,1.8-.138,4.95.1,6.071-3.071,1.013-2.868,1.148-7.483,1.375-10.756a137.226,137.226,0,0,0-.4-26.92c-.216-1.617-1.6-.932-1.387.69a133.106,133.106,0,0,1,.184,28.278c-.18,2.014-.4,4.028-.736,5.982-.429,2.532-1.622,2.67-2.993,2.95-3.366.681-6.814.4-10.195.423q-21.247.155-42.495.319-38.66.3-77.318.578c-23.684.16-47.366.22-71.05.483-15.123.168-30.247-.043-45.37-.013-15.166.03-30.333.656-45.5.7-7.468.022-14.939-.095-22.4-.509-3.6-.2-7.207-.418-10.8-.845A14.731,14.731,0,0,1,3.29,42.2c-1.481-.712-1.469-1.742-1.584-4.175-.412-8.7-.383-17.587-.1-26.3a27.72,27.72,0,0,1,.249-5.046c.525-1.893,3.182-1.57,4.21-1.656,3.6-.311,7.214-.28,10.815-.375q22.4-.6,44.8-.8c29.4-.293,58.8-.194,88.2-.2,22.5,0,45-.082,67.494-.41,13.7-.2,27.4-.492,41.1-.6,20.016-.151,40.029.039,60.045.306,3.534.047,7.07.06,10.6.147a20.879,20.879,0,0,1,4.907.591c.582.155,2.5.358,2.786,1.5C337.2,6.707,338.439,5.391,338.063,3.886Z" transform="translate(0.003 -0.008)"/>
      <g id="Icon_-_Plus" data-name="Icon - Plus" transform="translate(294.433 15.925)">
        <path id="Icon_-_Plus-2" data-name="Icon - Plus" d="M6.322,13.488q.249-2.344.417-4.694-2.748-.076-5.494-.258c-1.656-.112-1.665-2.7,0-2.588q2.827.188,5.655.262.132-2.478.176-4.962a1.3,1.3,0,0,1,2.588,0q-.045,2.507-.179,5.006,2.626.022,5.254-.051c1.67-.047,1.661,2.54,0,2.588q-2.71.078-5.417.051-.168,2.324-.413,4.645a1.386,1.386,0,0,1-1.429,1.237A1.075,1.075,0,0,1,6.322,13.488Z"/>
      </g>
      <text id="Octubre" transform="translate(28 31)" font-size="22" font-family="TektonPro-Bold, Tekton Pro" font-weight="700"><tspan x="0" y="0">Octubre</tspan></text>
    </g>
    <g id="Accordions_Base_Box_Action_1" data-name="Accordions / Base Box / Action 1" transform="translate(37 652.256)">
      <path id="Base_Box-3" data-name="Base Box" d="M27.991,162.446c-5.1-.133-10.2-.374-15.29-.78a53.719,53.719,0,0,1-7.772-.943c-1.253-.287-3.061-.5-3.959-2.374-1.09-2.275-.637-8-.67-10.726C-.137,111.059-.011,74.445.143,37.877.174,30.553.209,23.226.292,15.9c.024-2.237.05-4.479.1-6.716A21.551,21.551,0,0,1,.6,5.458C1.077,3.286,2.667,3,3.771,2.745a34.707,34.707,0,0,1,6.739-.528q8.178-.236,16.358-.423,15.675-.354,31.353-.514c23.914-.262,47.828-.246,71.742-.232,17.425.011,34.85.022,52.275-.072C204.712.851,227.184.358,249.656.106,261.328-.023,273-.023,284.67.045Q297.348.123,310.02.29C315.2.354,320.375.363,325.55.5a17.878,17.878,0,0,1,6.492,1.1,3.412,3.412,0,0,1,2.291,2.073,1.88,1.88,0,0,1,.126.49,100.728,100.728,0,0,1,.455,10.764c.777,37.2.49,74.626-.112,111.827-.114,7.093-.239,14.194-.518,21.269-.126,3.218.114,8.987-1.721,10.808-1.6,1.586-3.878,1.462-5.637,1.569-2.256.138-4.516.094-6.772.112q-7.962.057-15.925.115-14.807.109-29.611.227-57.155.451-114.312.8c-22.436.124-44.87.361-67.307.245-9.268-.048-18.536.148-27.8.342-8.312.175-16.622.351-24.934.351Q34.127,162.594,27.991,162.446ZM1.5,65.848q-.035,29.408.069,58.818c.028,7.212.064,14.429.142,21.642.023,2.215.049,4.43.1,6.642a15.971,15.971,0,0,0,.164,3.531c.49,1.5,2.658,1.616,3.483,1.787,1.166.24,2.336.373,3.507.5,2.407.257,4.817.428,7.226.586,5.22.343,10.44.528,15.662.609,10.388.162,20.775-.07,31.161-.3,17.3-.381,34.587-.261,51.884-.244,24.977.021,49.958-.348,74.934-.506q55.051-.354,110.1-.818,7.517-.059,15.036-.112c1.346-.01,2.7.026,4.064.063a46.689,46.689,0,0,0,10.56-.518c1.052-.213,2.469-.287,2.838-2.343.1-.544.121-1.165.164-1.732.159-2.116.234-4.264.313-6.394.6-16.4.687-32.876.8-49.3q.181-25.728.1-51.462-2.757.118-5.516.222c-19.614.728-39.233.977-58.85,1.093-22.872.132-45.744.042-68.617-.121q-35.986-.256-71.972-.69c-22.986-.245-45.972-.493-68.958-.626-19.453-.115-38.9-.162-58.357.073Q1.5,56.048,1.5,65.848ZM68.012,43.654q34.735.238,69.47.664,35.957.385,71.918.656c22.664.137,45.328.192,67.991,0,18.8-.156,37.6-.456,56.4-1.254q-.013-2.8-.029-5.6c-.043-7.375-.1-14.755-.247-22.126-.07-3.537.01-7.738-.41-11.024-.61-1.527-3.816-1.57-4.557-1.678a58.7,58.7,0,0,0-7.561-.292q-6.909-.1-13.823-.18c-23.91-.283-47.818-.339-71.729.056q-39.973.655-79.947.736-12.437.01-24.874,0C97.756,3.6,64.9,3.586,32.046,4.254q-7.805.161-15.61.369c-2.6.068-5.21.128-7.815.223-1.123.042-2.246.085-3.367.222C4.553,5.154,2.6,5,2.093,6.084a10.925,10.925,0,0,0-.282,3.51c-.05,2.271-.076,4.543-.1,6.813q-.147,13.631-.175,27.265,2.929-.034,5.859-.06,12.4-.111,24.8-.1Q50.1,43.508,68.012,43.654Z" transform="translate(0 0)"/>
      <g id="Icon_-_Minus" data-name="Icon - Minus" transform="translate(294.69 21.739)">
        <path id="Icon_-_Minus-2" data-name="Icon - Minus" d="M1313.032,53.287q6.7.444,13.409.253c1.65-.047,1.658-2.618,0-2.571q-6.711.186-13.409-.253c-1.65-.107-1.646,2.464,0,2.571Z" transform="translate(-1311.796 -50.712)"/>
      </g>
      <text id="Septiembre" transform="translate(26.758 30.744)" font-size="22" font-family="TektonPro-Bold, Tekton Pro" font-weight="700"><tspan x="0" y="0">Septiembre</tspan></text>
    </g>
    <g id="Accordions_Base_Box_Normal_1-2" data-name="Accordions / Base Box / Normal 1" transform="translate(37 840.939)">
      <path id="Base_Box-4" data-name="Base Box" d="M338.063,3.886c-.649-2.592-3.548-2.708-4.823-2.963C329.509.177,325.7.462,321.952.41Q311.875.274,301.8.169,286.357.013,270.911.009c-14.383.013-28.766.242-43.149.483q-29.7.492-59.4.548c-30.563.069-61.128-.078-91.693.1q-22.821.136-45.638.582c-7.844.164-15.7.224-23.538.617-1.72.086-5.537-.5-6.73,2.432C-.1,6.892.173,11.412.11,13.887c-.12,4.882-.139,9.777-.084,14.659.046,4,0,8.237.4,12.183.362,3.5,2.319,4.028,4.044,4.464A57.471,57.471,0,0,0,14.7,46.4c15.428,1.1,30.874.811,46.307.479,21.429-.461,42.857-.16,64.288-.328q30.088-.239,60.174-.44,40.522-.252,81.043-.582,21-.162,42-.323c7.514-.056,15.073.319,22.579-.263,1.8-.138,4.95.1,6.071-3.071,1.013-2.868,1.148-7.483,1.375-10.756a137.226,137.226,0,0,0-.4-26.92c-.216-1.617-1.6-.932-1.387.69a133.106,133.106,0,0,1,.184,28.278c-.18,2.014-.4,4.028-.736,5.982-.429,2.532-1.622,2.67-2.993,2.95-3.366.681-6.814.4-10.195.423q-21.247.155-42.495.319-38.66.3-77.318.578c-23.684.16-47.366.22-71.05.483-15.123.168-30.247-.043-45.37-.013-15.166.03-30.333.656-45.5.7-7.468.022-14.939-.095-22.4-.509-3.6-.2-7.207-.418-10.8-.845A14.731,14.731,0,0,1,3.29,42.2c-1.481-.712-1.469-1.742-1.584-4.175-.412-8.7-.383-17.587-.1-26.3a27.72,27.72,0,0,1,.249-5.046c.525-1.893,3.182-1.57,4.21-1.656,3.6-.311,7.214-.28,10.815-.375q22.4-.6,44.8-.8c29.4-.293,58.8-.194,88.2-.2,22.5,0,45-.082,67.494-.41,13.7-.2,27.4-.492,41.1-.6,20.016-.151,40.029.039,60.045.306,3.534.047,7.07.06,10.6.147a20.879,20.879,0,0,1,4.907.591c.582.155,2.5.358,2.786,1.5C337.2,6.707,338.439,5.391,338.063,3.886Z" transform="translate(0.003 -0.008)"/>
      <g id="Icon_-_Plus-3" data-name="Icon - Plus" transform="translate(294.433 15.925)">
        <path id="Icon_-_Plus-4" data-name="Icon - Plus" d="M6.322,13.488q.249-2.344.417-4.694-2.748-.076-5.494-.258c-1.656-.112-1.665-2.7,0-2.588q2.827.188,5.655.262.132-2.478.176-4.962a1.3,1.3,0,0,1,2.588,0q-.045,2.507-.179,5.006,2.626.022,5.254-.051c1.67-.047,1.661,2.54,0,2.588q-2.71.078-5.417.051-.168,2.324-.413,4.645a1.386,1.386,0,0,1-1.429,1.237A1.075,1.075,0,0,1,6.322,13.488Z" transform="translate(0)"/>
      </g>
      <text id="Agosto" transform="translate(28.47 31.176)" font-size="22" font-family="TektonPro-Bold, Tekton Pro" font-weight="700"><tspan x="0" y="0">Agosto</tspan></text>
    </g>
    <g id="Componente_2_17" data-name="Componente 2 – 17" transform="translate(70 716)">
      <text id="Movimiento_1" data-name="Movimiento 1" transform="translate(0 8)" font-size="11" font-family="TektonPro-Bold, Tekton Pro" font-weight="700"><tspan x="0" y="0">Movimiento 1</tspan></text>
      <g id="Icon_-_Edit" data-name="Icon - Edit" transform="translate(259)">
        <rect id="Square-2" data-name="Square" width="12" height="12" transform="translate(0 0)" fill="none"/>
        <path id="Icon_-_Edit-2" data-name="Icon - Edit" d="M3.056,12.078c-1.23-.023-2.954.155-3.029-1.5C0,9.958.022,9.331.02,8.71L0,2.735C0,1.91.2,1.061,1.167.926A13.383,13.383,0,0,1,3.135.85c.263,0,.524.006.78,0C4.956.839,6,.836,7.038.838a.406.406,0,0,1,0,.812q-1.561,0-3.123.015-.7.009-1.4.025c-.113,0-.252-.005-.4-.013a2.464,2.464,0,0,0-.949.065C.618,1.968.813,3.159.815,3.611Q.824,6.356.834,9.1c0,.484-.046,1,0,1.477.074.7.831.69,1.452.678.128,0,.25,0,.359,0,.7.025,1.408.019,2.112.008.633-.01,1.268,0,1.9,0,1.024.009,2.048.019,3.065-.037.657-.036,1.594.061,1.642-.782.014-.241,0-.488-.007-.729q-.021-2.232-.042-4.465a.406.406,0,0,1,.812,0c.016,1.746.121,3.514.049,5.258-.065,1.581-1.783,1.564-3.05,1.547-.135,0-.264,0-.386,0-1.448,0-2.9.035-4.348.035Q3.728,12.09,3.056,12.078Zm.61-3.542a.336.336,0,0,1-.108-.3,4.124,4.124,0,0,1,.491-2.221,5,5,0,0,1,.419-.434l1.95-1.965C7.5,2.53,8.537,1.357,9.681.333c.808-.724,1.557-.134,2.144.506a1.213,1.213,0,0,1-.074,1.8C10.54,3.9,9.271,5.1,8.032,6.332,7.521,6.84,7.013,7.351,6.5,7.855a3.68,3.68,0,0,1-2.533.789l-.042,0A.327.327,0,0,1,3.666,8.536ZM9.778,1.387,6.357,4.833,5,6.2a2.34,2.34,0,0,0-.593,1.6,2.27,2.27,0,0,0,1.371-.379c.131-.107.246-.244.366-.363L7.823,5.4l3.243-3.22c.421-.418.237-.848-.244-1.191a.582.582,0,0,0-.337-.128C10.2.857,10.006,1.158,9.778,1.387Z" transform="translate(0 0)" stroke="rgba(0,0,0,0)" stroke-width="1"/>
      </g>
      <g id="Icon_-_Delete" data-name="Icon - Delete" transform="translate(272)">
        <rect id="Square-3" data-name="Square" width="12" height="12" fill="none"/>
        <path id="Icon_-_Delete-2" data-name="Icon - Delete" d="M2,10.853C1.143,10.5,1.047,9.7,1.043,8.867c-.011-2.244.013-4.489.051-6.732L.355,2.12a.368.368,0,0,1,0-.736l2.6.05C2.9.98,2.819.391,3.242.145a3.113,3.113,0,0,1,1.522-.1c.1,0,.216,0,.333,0A2.487,2.487,0,0,1,6.168.184c.494.245.4.845.355,1.318l2.751.053a.368.368,0,0,1,0,.736l-.9-.017q.1,1.685.2,3.37C8.641,6.75,8.8,7.9,8.759,9a1.725,1.725,0,0,1-1.076,1.672,5.723,5.723,0,0,1-1.4.159l-1.769.126c-.433.031-.9.09-1.353.09A3,3,0,0,1,2,10.853ZM1.778,7.56c0,.691-.28,2.223.449,2.6a4.7,4.7,0,0,0,2.288.068,20.809,20.809,0,0,0,2.78-.207c1.051-.223.7-1.715.657-2.485Q7.792,4.9,7.633,2.26l-5.8-.111Q1.784,4.854,1.778,7.56ZM3.739.775c-.127.065-.086.411-.053.673l2.1.04c.033-.355.076-.663-.375-.681C5.169.8,4.925.785,4.681.777c-.152,0-.424-.05-.65-.05A.68.68,0,0,0,3.739.775Zm-.557,7.3a30.9,30.9,0,0,1-.065-3.96c.023-.472.759-.473.736,0a30.943,30.943,0,0,0,.065,3.96.315.315,0,0,1-.338.353A.383.383,0,0,1,3.182,8.075ZM5.617,8q-.068-1.9.05-3.805c.029-.472.766-.473.736,0Q6.285,6.094,6.353,8A.333.333,0,0,1,6,8.353.364.364,0,0,1,5.617,8Z" transform="translate(1.294 0.001)" stroke="rgba(0,0,0,0)" stroke-width="1"/>
      </g>
    </g>
    <g id="Componente_2_18" data-name="Componente 2 – 18" transform="translate(70 738)">
      <text id="Movimiento_2" data-name="Movimiento 2" transform="translate(0 8)" font-size="11" font-family="TektonPro-Bold, Tekton Pro" font-weight="700"><tspan x="0" y="0">Movimiento 2</tspan></text>
      <g id="Icon_-_Edit-3" data-name="Icon - Edit" transform="translate(259)">
        <rect id="Square-4" data-name="Square" width="12" height="12" transform="translate(0 0)" fill="none"/>
        <path id="Icon_-_Edit-4" data-name="Icon - Edit" d="M3.056,12.078c-1.23-.023-2.954.155-3.029-1.5C0,9.958.022,9.331.02,8.71L0,2.735C0,1.91.2,1.061,1.167.926A13.383,13.383,0,0,1,3.135.85c.263,0,.524.006.78,0C4.956.839,6,.836,7.038.838a.406.406,0,0,1,0,.812q-1.561,0-3.123.015-.7.009-1.4.025c-.113,0-.252-.005-.4-.013a2.464,2.464,0,0,0-.949.065C.618,1.968.813,3.159.815,3.611Q.824,6.356.834,9.1c0,.484-.046,1,0,1.477.074.7.831.69,1.452.678.128,0,.25,0,.359,0,.7.025,1.408.019,2.112.008.633-.01,1.268,0,1.9,0,1.024.009,2.048.019,3.065-.037.657-.036,1.594.061,1.642-.782.014-.241,0-.488-.007-.729q-.021-2.232-.042-4.465a.406.406,0,0,1,.812,0c.016,1.746.121,3.514.049,5.258-.065,1.581-1.783,1.564-3.05,1.547-.135,0-.264,0-.386,0-1.448,0-2.9.035-4.348.035Q3.728,12.09,3.056,12.078Zm.61-3.542a.336.336,0,0,1-.108-.3,4.124,4.124,0,0,1,.491-2.221,5,5,0,0,1,.419-.434l1.95-1.965C7.5,2.53,8.537,1.357,9.681.333c.808-.724,1.557-.134,2.144.506a1.213,1.213,0,0,1-.074,1.8C10.54,3.9,9.271,5.1,8.032,6.332,7.521,6.84,7.013,7.351,6.5,7.855a3.68,3.68,0,0,1-2.533.789l-.042,0A.327.327,0,0,1,3.666,8.536ZM9.778,1.387,6.357,4.833,5,6.2a2.34,2.34,0,0,0-.593,1.6,2.27,2.27,0,0,0,1.371-.379c.131-.107.246-.244.366-.363L7.823,5.4l3.243-3.22c.421-.418.237-.848-.244-1.191a.582.582,0,0,0-.337-.128C10.2.857,10.006,1.158,9.778,1.387Z" transform="translate(0 0)" stroke="rgba(0,0,0,0)" stroke-width="1"/>
      </g>
      <g id="Icon_-_Delete-3" data-name="Icon - Delete" transform="translate(272)">
        <rect id="Square-5" data-name="Square" width="12" height="12" fill="none"/>
        <path id="Icon_-_Delete-4" data-name="Icon - Delete" d="M2,10.853C1.143,10.5,1.047,9.7,1.043,8.867c-.011-2.244.013-4.489.051-6.732L.355,2.12a.368.368,0,0,1,0-.736l2.6.05C2.9.98,2.819.391,3.242.145a3.113,3.113,0,0,1,1.522-.1c.1,0,.216,0,.333,0A2.487,2.487,0,0,1,6.168.184c.494.245.4.845.355,1.318l2.751.053a.368.368,0,0,1,0,.736l-.9-.017q.1,1.685.2,3.37C8.641,6.75,8.8,7.9,8.759,9a1.725,1.725,0,0,1-1.076,1.672,5.723,5.723,0,0,1-1.4.159l-1.769.126c-.433.031-.9.09-1.353.09A3,3,0,0,1,2,10.853ZM1.778,7.56c0,.691-.28,2.223.449,2.6a4.7,4.7,0,0,0,2.288.068,20.809,20.809,0,0,0,2.78-.207c1.051-.223.7-1.715.657-2.485Q7.792,4.9,7.633,2.26l-5.8-.111Q1.784,4.854,1.778,7.56ZM3.739.775c-.127.065-.086.411-.053.673l2.1.04c.033-.355.076-.663-.375-.681C5.169.8,4.925.785,4.681.777c-.152,0-.424-.05-.65-.05A.68.68,0,0,0,3.739.775Zm-.557,7.3a30.9,30.9,0,0,1-.065-3.96c.023-.472.759-.473.736,0a30.943,30.943,0,0,0,.065,3.96.315.315,0,0,1-.338.353A.383.383,0,0,1,3.182,8.075ZM5.617,8q-.068-1.9.05-3.805c.029-.472.766-.473.736,0Q6.285,6.094,6.353,8A.333.333,0,0,1,6,8.353.364.364,0,0,1,5.617,8Z" transform="translate(1.294 0.001)" stroke="rgba(0,0,0,0)" stroke-width="1"/>
      </g>
    </g>
    <g id="Componente_2_19" data-name="Componente 2 – 19" transform="translate(70 761)">
      <text id="Movimiento_3" data-name="Movimiento 3" transform="translate(0 8)" font-size="11" font-family="TektonPro-Bold, Tekton Pro" font-weight="700"><tspan x="0" y="0">Movimiento 3</tspan></text>
      <g id="Icon_-_Edit-5" data-name="Icon - Edit" transform="translate(259)">
        <rect id="Square-6" data-name="Square" width="12" height="12" transform="translate(0 0)" fill="none"/>
        <path id="Icon_-_Edit-6" data-name="Icon - Edit" d="M3.056,12.078c-1.23-.023-2.954.155-3.029-1.5C0,9.958.022,9.331.02,8.71L0,2.735C0,1.91.2,1.061,1.167.926A13.383,13.383,0,0,1,3.135.85c.263,0,.524.006.78,0C4.956.839,6,.836,7.038.838a.406.406,0,0,1,0,.812q-1.561,0-3.123.015-.7.009-1.4.025c-.113,0-.252-.005-.4-.013a2.464,2.464,0,0,0-.949.065C.618,1.968.813,3.159.815,3.611Q.824,6.356.834,9.1c0,.484-.046,1,0,1.477.074.7.831.69,1.452.678.128,0,.25,0,.359,0,.7.025,1.408.019,2.112.008.633-.01,1.268,0,1.9,0,1.024.009,2.048.019,3.065-.037.657-.036,1.594.061,1.642-.782.014-.241,0-.488-.007-.729q-.021-2.232-.042-4.465a.406.406,0,0,1,.812,0c.016,1.746.121,3.514.049,5.258-.065,1.581-1.783,1.564-3.05,1.547-.135,0-.264,0-.386,0-1.448,0-2.9.035-4.348.035Q3.728,12.09,3.056,12.078Zm.61-3.542a.336.336,0,0,1-.108-.3,4.124,4.124,0,0,1,.491-2.221,5,5,0,0,1,.419-.434l1.95-1.965C7.5,2.53,8.537,1.357,9.681.333c.808-.724,1.557-.134,2.144.506a1.213,1.213,0,0,1-.074,1.8C10.54,3.9,9.271,5.1,8.032,6.332,7.521,6.84,7.013,7.351,6.5,7.855a3.68,3.68,0,0,1-2.533.789l-.042,0A.327.327,0,0,1,3.666,8.536ZM9.778,1.387,6.357,4.833,5,6.2a2.34,2.34,0,0,0-.593,1.6,2.27,2.27,0,0,0,1.371-.379c.131-.107.246-.244.366-.363L7.823,5.4l3.243-3.22c.421-.418.237-.848-.244-1.191a.582.582,0,0,0-.337-.128C10.2.857,10.006,1.158,9.778,1.387Z" transform="translate(0 0)" stroke="rgba(0,0,0,0)" stroke-width="1"/>
      </g>
      <g id="Icon_-_Delete-5" data-name="Icon - Delete" transform="translate(272)">
        <rect id="Square-7" data-name="Square" width="12" height="12" fill="none"/>
        <path id="Icon_-_Delete-6" data-name="Icon - Delete" d="M2,10.853C1.143,10.5,1.047,9.7,1.043,8.867c-.011-2.244.013-4.489.051-6.732L.355,2.12a.368.368,0,0,1,0-.736l2.6.05C2.9.98,2.819.391,3.242.145a3.113,3.113,0,0,1,1.522-.1c.1,0,.216,0,.333,0A2.487,2.487,0,0,1,6.168.184c.494.245.4.845.355,1.318l2.751.053a.368.368,0,0,1,0,.736l-.9-.017q.1,1.685.2,3.37C8.641,6.75,8.8,7.9,8.759,9a1.725,1.725,0,0,1-1.076,1.672,5.723,5.723,0,0,1-1.4.159l-1.769.126c-.433.031-.9.09-1.353.09A3,3,0,0,1,2,10.853ZM1.778,7.56c0,.691-.28,2.223.449,2.6a4.7,4.7,0,0,0,2.288.068,20.809,20.809,0,0,0,2.78-.207c1.051-.223.7-1.715.657-2.485Q7.792,4.9,7.633,2.26l-5.8-.111Q1.784,4.854,1.778,7.56ZM3.739.775c-.127.065-.086.411-.053.673l2.1.04c.033-.355.076-.663-.375-.681C5.169.8,4.925.785,4.681.777c-.152,0-.424-.05-.65-.05A.68.68,0,0,0,3.739.775Zm-.557,7.3a30.9,30.9,0,0,1-.065-3.96c.023-.472.759-.473.736,0a30.943,30.943,0,0,0,.065,3.96.315.315,0,0,1-.338.353A.383.383,0,0,1,3.182,8.075ZM5.617,8q-.068-1.9.05-3.805c.029-.472.766-.473.736,0Q6.285,6.094,6.353,8A.333.333,0,0,1,6,8.353.364.364,0,0,1,5.617,8Z" transform="translate(1.294 0.001)" stroke="rgba(0,0,0,0)" stroke-width="1"/>
      </g>
    </g>
    <g id="Componente_2_20" data-name="Componente 2 – 20" transform="translate(70 783)">
      <text id="Movimiento_4" data-name="Movimiento 4" transform="translate(0 8)" font-size="11" font-family="TektonPro-Bold, Tekton Pro" font-weight="700"><tspan x="0" y="0">Movimiento 4</tspan></text>
      <g id="Icon_-_Edit-7" data-name="Icon - Edit" transform="translate(259)">
        <rect id="Square-8" data-name="Square" width="12" height="12" transform="translate(0 0)" fill="none"/>
        <path id="Icon_-_Edit-8" data-name="Icon - Edit" d="M3.056,12.078c-1.23-.023-2.954.155-3.029-1.5C0,9.958.022,9.331.02,8.71L0,2.735C0,1.91.2,1.061,1.167.926A13.383,13.383,0,0,1,3.135.85c.263,0,.524.006.78,0C4.956.839,6,.836,7.038.838a.406.406,0,0,1,0,.812q-1.561,0-3.123.015-.7.009-1.4.025c-.113,0-.252-.005-.4-.013a2.464,2.464,0,0,0-.949.065C.618,1.968.813,3.159.815,3.611Q.824,6.356.834,9.1c0,.484-.046,1,0,1.477.074.7.831.69,1.452.678.128,0,.25,0,.359,0,.7.025,1.408.019,2.112.008.633-.01,1.268,0,1.9,0,1.024.009,2.048.019,3.065-.037.657-.036,1.594.061,1.642-.782.014-.241,0-.488-.007-.729q-.021-2.232-.042-4.465a.406.406,0,0,1,.812,0c.016,1.746.121,3.514.049,5.258-.065,1.581-1.783,1.564-3.05,1.547-.135,0-.264,0-.386,0-1.448,0-2.9.035-4.348.035Q3.728,12.09,3.056,12.078Zm.61-3.542a.336.336,0,0,1-.108-.3,4.124,4.124,0,0,1,.491-2.221,5,5,0,0,1,.419-.434l1.95-1.965C7.5,2.53,8.537,1.357,9.681.333c.808-.724,1.557-.134,2.144.506a1.213,1.213,0,0,1-.074,1.8C10.54,3.9,9.271,5.1,8.032,6.332,7.521,6.84,7.013,7.351,6.5,7.855a3.68,3.68,0,0,1-2.533.789l-.042,0A.327.327,0,0,1,3.666,8.536ZM9.778,1.387,6.357,4.833,5,6.2a2.34,2.34,0,0,0-.593,1.6,2.27,2.27,0,0,0,1.371-.379c.131-.107.246-.244.366-.363L7.823,5.4l3.243-3.22c.421-.418.237-.848-.244-1.191a.582.582,0,0,0-.337-.128C10.2.857,10.006,1.158,9.778,1.387Z" transform="translate(0 0)" stroke="rgba(0,0,0,0)" stroke-width="1"/>
      </g>
      <g id="Icon_-_Delete-7" data-name="Icon - Delete" transform="translate(272)">
        <rect id="Square-9" data-name="Square" width="12" height="12" fill="none"/>
        <path id="Icon_-_Delete-8" data-name="Icon - Delete" d="M2,10.853C1.143,10.5,1.047,9.7,1.043,8.867c-.011-2.244.013-4.489.051-6.732L.355,2.12a.368.368,0,0,1,0-.736l2.6.05C2.9.98,2.819.391,3.242.145a3.113,3.113,0,0,1,1.522-.1c.1,0,.216,0,.333,0A2.487,2.487,0,0,1,6.168.184c.494.245.4.845.355,1.318l2.751.053a.368.368,0,0,1,0,.736l-.9-.017q.1,1.685.2,3.37C8.641,6.75,8.8,7.9,8.759,9a1.725,1.725,0,0,1-1.076,1.672,5.723,5.723,0,0,1-1.4.159l-1.769.126c-.433.031-.9.09-1.353.09A3,3,0,0,1,2,10.853ZM1.778,7.56c0,.691-.28,2.223.449,2.6a4.7,4.7,0,0,0,2.288.068,20.809,20.809,0,0,0,2.78-.207c1.051-.223.7-1.715.657-2.485Q7.792,4.9,7.633,2.26l-5.8-.111Q1.784,4.854,1.778,7.56ZM3.739.775c-.127.065-.086.411-.053.673l2.1.04c.033-.355.076-.663-.375-.681C5.169.8,4.925.785,4.681.777c-.152,0-.424-.05-.65-.05A.68.68,0,0,0,3.739.775Zm-.557,7.3a30.9,30.9,0,0,1-.065-3.96c.023-.472.759-.473.736,0a30.943,30.943,0,0,0,.065,3.96.315.315,0,0,1-.338.353A.383.383,0,0,1,3.182,8.075ZM5.617,8q-.068-1.9.05-3.805c.029-.472.766-.473.736,0Q6.285,6.094,6.353,8A.333.333,0,0,1,6,8.353.364.364,0,0,1,5.617,8Z" transform="translate(1.294 0.001)" stroke="rgba(0,0,0,0)" stroke-width="1"/>
      </g>
    </g>
    <g id="Grupo_1316" data-name="Grupo 1316" transform="translate(69 431.045)">
      <g id="Form_Fields_Pill_Box_Normal" data-name="Form Fields / Pill Box / Normal" transform="translate(-31.726 609)">
        <text id="Registro" transform="translate(25 25)" font-size="18" font-family="TektonPro-Bold, Tekton Pro" font-weight="700"><tspan x="0" y="0">Registro</tspan></text>
        <path id="Pill_Box-3" data-name="Pill Box" d="M334.078,5.233C328.125-1.7,319.072.252,311.739.28q-11.66.042-23.32.052Q270.873.358,253.328.37q-21.292.016-42.587.021Q187.647.4,164.551.4,141.576.4,118.6.388,97.851.382,77.1.363,60.649.348,44.2.321C37.377.307,30.558.3,23.737.266c-1.443-.007-2.888-.01-4.33-.035C15.193.154,10.772.056,6.894,2.823,2.348,6.07-.159,13.256.006,20.512c.16,7.085,2.83,12.457,7.4,14.822a18.355,18.355,0,0,0,8.56,1.751c1.6.007,3.2,0,4.8,0q10.594.005,21.188.007,16.609.005,33.22,0,20.729,0,41.46,0h92.6q21.54,0,43.077,0,17.958,0,35.914,0,12.485,0,24.971-.007c5.146,0,10.86.736,15.891-.945,4.517-1.51,8.147-5.463,9.08-12.349.907-6.684-.55-14.03-4.1-18.561-.691-.886-1.711.59-1.014,1.479,4.034,5.156,5.527,15.607,2.108,22.126-2.773,5.288-8.113,6.115-12.336,6.15-1.345.01-2.689,0-4.034,0Q309.072,35,299.343,35q-15.791.005-31.579.007-20.015,0-40.027,0H137.221q-21.586,0-43.173,0-18.558,0-37.115,0Q43.328,35,29.723,35q-6.815,0-13.63-.007A18.647,18.647,0,0,1,8.64,33.712a10.873,10.873,0,0,1-6.216-6.917,25.093,25.093,0,0,1-.507-12.007C3.728,5.414,9.724,2.526,15.806,2.31c1.455-.052,2.907.007,4.362.021,4.874.056,9.75.049,14.623.063q14.018.037,28.038.045,18.924.021,37.85.031,21.791.01,43.58.017,22.911.005,45.821,0,22.039,0,44.08-.014,19.254-.01,38.51-.031,14.556-.016,29.112-.045c5.3-.01,10.592-.014,15.889-.059,5.261-.045,11.032-.7,15.391,4.374C333.776,7.542,334.8,6.074,334.078,5.233Z" transform="translate(0.002 -0.006)"/>
      </g>
      <text id="Añadir_nuevo_Movimiento" data-name="Añadir nuevo Movimiento" transform="translate(110 551)" font-size="28" font-family="TektonPro-Bold, Tekton Pro" font-weight="700"><tspan x="-141.96" y="0">Añadir nuevo Movimiento</tspan></text>
      <g id="Form_Fields_Pill_Box_Normal-2" data-name="Form Fields / Pill Box / Normal" transform="translate(-31.726 666)">
        <text id="Seleccionar_Categoria" data-name="Seleccionar Categoria" transform="translate(25 25)" font-size="18" font-family="TektonPro-Bold, Tekton Pro" font-weight="700"><tspan x="0" y="0">Seleccionar Categoria</tspan></text>
        <path id="Pill_Box-4" data-name="Pill Box" d="M334.078,5.233C328.125-1.7,319.072.252,311.739.28q-11.66.042-23.32.052Q270.873.358,253.328.37q-21.292.016-42.587.021Q187.647.4,164.551.4,141.576.4,118.6.388,97.851.382,77.1.363,60.649.348,44.2.321C37.377.307,30.558.3,23.737.266c-1.443-.007-2.888-.01-4.33-.035C15.193.154,10.772.056,6.894,2.823,2.348,6.07-.159,13.256.006,20.512c.16,7.085,2.83,12.457,7.4,14.822a18.355,18.355,0,0,0,8.56,1.751c1.6.007,3.2,0,4.8,0q10.594.005,21.188.007,16.609.005,33.22,0,20.729,0,41.46,0h92.6q21.54,0,43.077,0,17.958,0,35.914,0,12.485,0,24.971-.007c5.146,0,10.86.736,15.891-.945,4.517-1.51,8.147-5.463,9.08-12.349.907-6.684-.55-14.03-4.1-18.561-.691-.886-1.711.59-1.014,1.479,4.034,5.156,5.527,15.607,2.108,22.126-2.773,5.288-8.113,6.115-12.336,6.15-1.345.01-2.689,0-4.034,0Q309.072,35,299.343,35q-15.791.005-31.579.007-20.015,0-40.027,0H137.221q-21.586,0-43.173,0-18.558,0-37.115,0Q43.328,35,29.723,35q-6.815,0-13.63-.007A18.647,18.647,0,0,1,8.64,33.712a10.873,10.873,0,0,1-6.216-6.917,25.093,25.093,0,0,1-.507-12.007C3.728,5.414,9.724,2.526,15.806,2.31c1.455-.052,2.907.007,4.362.021,4.874.056,9.75.049,14.623.063q14.018.037,28.038.045,18.924.021,37.85.031,21.791.01,43.58.017,22.911.005,45.821,0,22.039,0,44.08-.014,19.254-.01,38.51-.031,14.556-.016,29.112-.045c5.3-.01,10.592-.014,15.889-.059,5.261-.045,11.032-.7,15.391,4.374C333.776,7.542,334.8,6.074,334.078,5.233Z" transform="translate(0.002 -0.006)"/>
      </g>
      <g id="Icon_-_Arrow_Down-3" data-name="Icon - Arrow Down" transform="translate(261.294 681)" clip-path="url(#clip-path)">
        <path id="Arrow_Down-3" data-name="Arrow Down" d="M472.786,46.684q2.2,2.276,4.307,4.642c-.093-.346-.182-.695-.274-1.04-.007.025-.011.053-.018.078a1.076,1.076,0,0,0,1.785,1.04,63.269,63.269,0,0,0,4.068-5.055c.887-1.044-.62-2.561-1.51-1.51a61.87,61.87,0,0,1-4.068,5.055c.595.346,1.19.695,1.785,1.04.228-.983-.72-1.642-1.314-2.294q-1.6-1.758-3.249-3.462c-.958-.994-2.469.517-1.51,1.507Z" transform="translate(-472.48 -44.484)"/>
      </g>
      <g id="Form_Fields_Pill_Box_Normal-3" data-name="Form Fields / Pill Box / Normal" transform="translate(-31.726 724)">
        <text id="Seleccionar_Tipo" data-name="Seleccionar Tipo" transform="translate(25 25)" font-size="18" font-family="TektonPro-Bold, Tekton Pro" font-weight="700"><tspan x="0" y="0">Seleccionar Tipo</tspan></text>
        <path id="Pill_Box-5" data-name="Pill Box" d="M334.078,5.233C328.125-1.7,319.072.252,311.739.28q-11.66.042-23.32.052Q270.873.358,253.328.37q-21.292.016-42.587.021Q187.647.4,164.551.4,141.576.4,118.6.388,97.851.382,77.1.363,60.649.348,44.2.321C37.377.307,30.558.3,23.737.266c-1.443-.007-2.888-.01-4.33-.035C15.193.154,10.772.056,6.894,2.823,2.348,6.07-.159,13.256.006,20.512c.16,7.085,2.83,12.457,7.4,14.822a18.355,18.355,0,0,0,8.56,1.751c1.6.007,3.2,0,4.8,0q10.594.005,21.188.007,16.609.005,33.22,0,20.729,0,41.46,0h92.6q21.54,0,43.077,0,17.958,0,35.914,0,12.485,0,24.971-.007c5.146,0,10.86.736,15.891-.945,4.517-1.51,8.147-5.463,9.08-12.349.907-6.684-.55-14.03-4.1-18.561-.691-.886-1.711.59-1.014,1.479,4.034,5.156,5.527,15.607,2.108,22.126-2.773,5.288-8.113,6.115-12.336,6.15-1.345.01-2.689,0-4.034,0Q309.072,35,299.343,35q-15.791.005-31.579.007-20.015,0-40.027,0H137.221q-21.586,0-43.173,0-18.558,0-37.115,0Q43.328,35,29.723,35q-6.815,0-13.63-.007A18.647,18.647,0,0,1,8.64,33.712a10.873,10.873,0,0,1-6.216-6.917,25.093,25.093,0,0,1-.507-12.007C3.728,5.414,9.724,2.526,15.806,2.31c1.455-.052,2.907.007,4.362.021,4.874.056,9.75.049,14.623.063q14.018.037,28.038.045,18.924.021,37.85.031,21.791.01,43.58.017,22.911.005,45.821,0,22.039,0,44.08-.014,19.254-.01,38.51-.031,14.556-.016,29.112-.045c5.3-.01,10.592-.014,15.889-.059,5.261-.045,11.032-.7,15.391,4.374C333.776,7.542,334.8,6.074,334.078,5.233Z" transform="translate(0.002 -0.006)"/>
      </g>
      <g id="Icon_-_Arrow_Down-4" data-name="Icon - Arrow Down" transform="translate(261.294 739.009)" clip-path="url(#clip-path)">
        <path id="Arrow_Down-4" data-name="Arrow Down" d="M472.786,46.684q2.2,2.276,4.307,4.642c-.093-.346-.182-.695-.274-1.04-.007.025-.011.053-.018.078a1.076,1.076,0,0,0,1.785,1.04,63.269,63.269,0,0,0,4.068-5.055c.887-1.044-.62-2.561-1.51-1.51a61.87,61.87,0,0,1-4.068,5.055c.595.346,1.19.695,1.785,1.04.228-.983-.72-1.642-1.314-2.294q-1.6-1.758-3.249-3.462c-.958-.994-2.469.517-1.51,1.507Z" transform="translate(-472.48 -44.484)"/>
      </g>
      <g id="Form_Fields_Pill_Box_Normal-4" data-name="Form Fields / Pill Box / Normal" transform="translate(-31.726 782.009)">
        <text id="Fecha" transform="translate(25 25)" font-size="18" font-family="TektonPro-Bold, Tekton Pro" font-weight="700"><tspan x="0" y="0">Fecha</tspan></text>
        <path id="Pill_Box-6" data-name="Pill Box" d="M334.078,5.233C328.125-1.7,319.072.252,311.739.28q-11.66.042-23.32.052Q270.873.358,253.328.37q-21.292.016-42.587.021Q187.647.4,164.551.4,141.576.4,118.6.388,97.851.382,77.1.363,60.649.348,44.2.321C37.377.307,30.558.3,23.737.266c-1.443-.007-2.888-.01-4.33-.035C15.193.154,10.772.056,6.894,2.823,2.348,6.07-.159,13.256.006,20.512c.16,7.085,2.83,12.457,7.4,14.822a18.355,18.355,0,0,0,8.56,1.751c1.6.007,3.2,0,4.8,0q10.594.005,21.188.007,16.609.005,33.22,0,20.729,0,41.46,0h92.6q21.54,0,43.077,0,17.958,0,35.914,0,12.485,0,24.971-.007c5.146,0,10.86.736,15.891-.945,4.517-1.51,8.147-5.463,9.08-12.349.907-6.684-.55-14.03-4.1-18.561-.691-.886-1.711.59-1.014,1.479,4.034,5.156,5.527,15.607,2.108,22.126-2.773,5.288-8.113,6.115-12.336,6.15-1.345.01-2.689,0-4.034,0Q309.072,35,299.343,35q-15.791.005-31.579.007-20.015,0-40.027,0H137.221q-21.586,0-43.173,0-18.558,0-37.115,0Q43.328,35,29.723,35q-6.815,0-13.63-.007A18.647,18.647,0,0,1,8.64,33.712a10.873,10.873,0,0,1-6.216-6.917,25.093,25.093,0,0,1-.507-12.007C3.728,5.414,9.724,2.526,15.806,2.31c1.455-.052,2.907.007,4.362.021,4.874.056,9.75.049,14.623.063q14.018.037,28.038.045,18.924.021,37.85.031,21.791.01,43.58.017,22.911.005,45.821,0,22.039,0,44.08-.014,19.254-.01,38.51-.031,14.556-.016,29.112-.045c5.3-.01,10.592-.014,15.889-.059,5.261-.045,11.032-.7,15.391,4.374C333.776,7.542,334.8,6.074,334.078,5.233Z" transform="translate(0.002 -0.006)"/>
      </g>
      <g id="Icon_-_Calendar" data-name="Icon - Calendar" transform="translate(260.99 794)">
        <rect id="Square-10" data-name="Square" width="13" height="13" fill="none"/>
        <path id="Icon_-_Calendar-2" data-name="Icon - Calendar" d="M2528.336-2080.723q-.034-3.188-.069-6.376a.436.436,0,0,0-.017-.108c-.212-1.209-1.607-1.172-2.736-1.116q0-.148.005-.295a.385.385,0,0,0-.769,0q0,.16-.006.322c-1.53-.008-3.06-.009-4.59.013,0-.107.005-.214,0-.321a.385.385,0,0,0-.77,0c0,.111,0,.223,0,.334l-.4.007c-.7.015-1.581-.1-2.014.583a1.637,1.637,0,0,0-.181.931l.013,3.191c0,1-.005,2.01.012,3.014a1.423,1.423,0,0,0,.335,1.04c.543.564,1.629.408,2.34.425,2.105.049,4.241.045,6.346-.019.766-.024,1.893.064,2.341-.7A1.682,1.682,0,0,0,2528.336-2080.723Zm-10.777-6.319c.089-.518,1.058-.525,1.793-.494a6.107,6.107,0,0,0,.008.641c.037.491.806.5.77,0a6.058,6.058,0,0,1-.008-.617q1.358-.018,2.716-.018c.635,0,1.269,0,1.9.006,0,.15.007.3.017.45.03.492.8.495.77,0-.009-.151-.014-.3-.017-.452.59-.027,1.922-.157,1.987.428q.006.576.013,1.153a37.319,37.319,0,0,0-4.287.038c-1.9.021-3.793-.1-5.69-.139A4.633,4.633,0,0,1,2517.559-2087.042Zm10.011,6.631c-.1.485-.558.459-.951.492-.435.036-.867.054-1.3.054-.936,0-1.871,0-2.807,0-.907.007-1.814.03-2.722.018-.548-.007-2.082.185-2.2-.485a10.986,10.986,0,0,1-.007-1.815q-.007-1.565-.013-3.131c1.834.038,3.668.156,5.5.139.9-.008,1.792-.031,2.689-.045a13.278,13.278,0,0,1,1.761,0l.032,2.908A9.809,9.809,0,0,1,2527.57-2080.412Z" transform="translate(-2516.79 2090.989)"/>
      </g>
      <g id="Form_Fields_Pill_Box_Normal-5" data-name="Form Fields / Pill Box / Normal" transform="translate(-31.726 842.776)">
        <text id="Valor" transform="translate(25 25)" font-size="18" font-family="TektonPro-Bold, Tekton Pro" font-weight="700"><tspan x="0" y="0">Valor</tspan></text>
        <path id="Pill_Box-7" data-name="Pill Box" d="M334.078,5.233C328.125-1.7,319.072.252,311.739.28q-11.66.042-23.32.052Q270.873.358,253.328.37q-21.292.016-42.587.021Q187.647.4,164.551.4,141.576.4,118.6.388,97.851.382,77.1.363,60.649.348,44.2.321C37.377.307,30.558.3,23.737.266c-1.443-.007-2.888-.01-4.33-.035C15.193.154,10.772.056,6.894,2.823,2.348,6.07-.159,13.256.006,20.512c.16,7.085,2.83,12.457,7.4,14.822a18.355,18.355,0,0,0,8.56,1.751c1.6.007,3.2,0,4.8,0q10.594.005,21.188.007,16.609.005,33.22,0,20.729,0,41.46,0h92.6q21.54,0,43.077,0,17.958,0,35.914,0,12.485,0,24.971-.007c5.146,0,10.86.736,15.891-.945,4.517-1.51,8.147-5.463,9.08-12.349.907-6.684-.55-14.03-4.1-18.561-.691-.886-1.711.59-1.014,1.479,4.034,5.156,5.527,15.607,2.108,22.126-2.773,5.288-8.113,6.115-12.336,6.15-1.345.01-2.689,0-4.034,0Q309.072,35,299.343,35q-15.791.005-31.579.007-20.015,0-40.027,0H137.221q-21.586,0-43.173,0-18.558,0-37.115,0Q43.328,35,29.723,35q-6.815,0-13.63-.007A18.647,18.647,0,0,1,8.64,33.712a10.873,10.873,0,0,1-6.216-6.917,25.093,25.093,0,0,1-.507-12.007C3.728,5.414,9.724,2.526,15.806,2.31c1.455-.052,2.907.007,4.362.021,4.874.056,9.75.049,14.623.063q14.018.037,28.038.045,18.924.021,37.85.031,21.791.01,43.58.017,22.911.005,45.821,0,22.039,0,44.08-.014,19.254-.01,38.51-.031,14.556-.016,29.112-.045c5.3-.01,10.592-.014,15.889-.059,5.261-.045,11.032-.7,15.391,4.374C333.776,7.542,334.8,6.074,334.078,5.233Z" transform="translate(0.002 -0.006)"/>
      </g>
      <g id="Buttons_Pill_Button_Default_Cancel" data-name="Buttons / Pill Button / Default / Cancel" transform="translate(78.066 928.776)">
        <path id="Pill_Button-2" data-name="Pill Button" d="M95.425,5.153C87.659-1.136,76.98.046,67.637.2,60.95.3,54.27-.122,47.587.046,41.057.207,34.57.193,28.04.091,18.924-.052,8.466.525,3.083,9.082c-4.261,6.771-4.5,17.383,1.772,23.063,6.785,6.148,16.292,5.107,24.692,4.866,6.9-.2,13.807.409,20.714.357,4.174-.031,8.337.042,12.507-.171,2.835-.143,5.659-.273,8.5-.213,8.473.171,17.806,1.493,24.978-4.184,6.739-5.334,6.98-15.817,3.041-22.9a17.643,17.643,0,0,0-3.862-4.747c-1.017-.877-2.506.6-1.482,1.482,6.079,5.257,8.207,16.233,2.831,22.755-5.582,6.767-15.5,5.851-23.266,5.561-5.844-.217-11.654.3-17.495.339-7.11.042-14.174-.192-21.27-.391-7.61-.217-15.425,1.433-22.8-1.087-3.967-1.353-7.333-3.929-8.8-7.952a18.323,18.323,0,0,1,.094-12.307,15.891,15.891,0,0,1,8.6-9.3c4.292-1.9,9.148-2.1,13.769-2.087,5.974.014,11.937.245,17.914.084,6.673-.178,13.314.1,19.983.091,7.889-.007,16.383-1.2,24.063,1.024a18.044,18.044,0,0,1,6.383,3.272C94.981,7.477,96.474,6,95.425,5.153Z" transform="translate(0.001 -0.006)"/>
        <text id="Guardar" transform="translate(51 26)" font-size="18" font-family="TektonPro-Bold, Tekton Pro" font-weight="700"><tspan x="-30.519" y="0">Guardar</tspan></text>
      </g>
      <g id="Buttons_Pill_Button_Default_Cancel-2" data-name="Buttons / Pill Button / Default / Cancel" transform="translate(204.847 928.776)">
        <path id="Pill_Button-3" data-name="Pill Button" d="M95.425,5.153C87.659-1.136,76.98.046,67.637.2,60.95.3,54.27-.122,47.587.046,41.057.207,34.57.193,28.04.091,18.924-.052,8.466.525,3.083,9.082c-4.261,6.771-4.5,17.383,1.772,23.063,6.785,6.148,16.292,5.107,24.692,4.866,6.9-.2,13.807.409,20.714.357,4.174-.031,8.337.042,12.507-.171,2.835-.143,5.659-.273,8.5-.213,8.473.171,17.806,1.493,24.978-4.184,6.739-5.334,6.98-15.817,3.041-22.9a17.643,17.643,0,0,0-3.862-4.747c-1.017-.877-2.506.6-1.482,1.482,6.079,5.257,8.207,16.233,2.831,22.755-5.582,6.767-15.5,5.851-23.266,5.561-5.844-.217-11.654.3-17.495.339-7.11.042-14.174-.192-21.27-.391-7.61-.217-15.425,1.433-22.8-1.087-3.967-1.353-7.333-3.929-8.8-7.952a18.323,18.323,0,0,1,.094-12.307,15.891,15.891,0,0,1,8.6-9.3c4.292-1.9,9.148-2.1,13.769-2.087,5.974.014,11.937.245,17.914.084,6.673-.178,13.314.1,19.983.091,7.889-.007,16.383-1.2,24.063,1.024a18.044,18.044,0,0,1,6.383,3.272C94.981,7.477,96.474,6,95.425,5.153Z" transform="translate(0.001 -0.006)"/>
        <text id="Borrar" transform="translate(51 26)" font-size="18" font-family="TektonPro-Bold, Tekton Pro" font-weight="700"><tspan x="-24.408" y="0">Borrar</tspan></text>
      </g>
    </g>
    <g id="Footer" transform="translate(37 1564.811)">
      <text id="_2021" data-name="© 2021" transform="translate(0.308 68.751)" font-size="20" font-family="TektonPro-Bold, Tekton Pro" font-weight="700"><tspan x="0" y="0">© 2021</tspan></text>
      <text id="Proyecto_para_Fundamentos_de_ingeniería_de_software_Stella_Steinfeld_y_Alvaro_Rameau" data-name="Proyecto para Fundamentos de 
ingeniería de software 
 Stella Steinfeld y Alvaro Rameau" transform="translate(0 -24)" font-size="20" font-family="TektonPro-Bold, Tekton Pro" font-weight="700"><tspan x="0" y="0">Proyecto para Fundamentos de </tspan><tspan x="0" y="28">ingeniería de software </tspan><tspan x="0" y="56" xml:space="preserve"> Stella Steinfeld y Alvaro Rameau</tspan></text>
    </g>
  </g>
</svg>
