<svg xmlns="http://www.w3.org/2000/svg" xmlns:xlink="http://www.w3.org/1999/xlink" width="1920" height="1080" viewBox="0 0 1920 1080">
  <defs>
    <clipPath id="clip-path">
      <rect width="10.444" height="7.224" fill="none"/>
    </clipPath>
    <clipPath id="clip-path-4">
      <rect width="32" height="32" fill="none"/>
    </clipPath>
    <clipPath id="clip-Movimientos">
      <rect width="1920" height="1080"/>
    </clipPath>
  </defs>
  <g id="Movimientos" clip-path="url(#clip-Movimientos)">
    <rect width="1920" height="1080" fill="#fff"/>
    <g id="Accordions_Base_Box_Normal_1" data-name="Accordions / Base Box / Normal 1" transform="translate(89 457)">
      <path id="Base_Box" data-name="Base Box" d="M940.448,6C938.642,2,930.577,1.816,927.031,1.422,916.653.269,906.062.709,895.631.629Q867.6.419,839.57.256,796.609.016,753.642.009c-40.011.02-80.023.373-120.034.747q-82.622.76-165.237.846c-85.022.107-170.05-.12-255.078.153q-63.486.21-126.959.9C64.512,2.909,42.67,3,20.855,3.609c-4.786.133-15.4-.78-18.723,3.759C-.268,10.647.486,17.632.312,21.458-.021,29-.074,36.568.079,44.113.206,50.292.072,56.844,1.205,62.942c1.006,5.412,6.452,6.225,11.251,6.9,9.385,1.326,18.976,1.486,28.434,1.86,42.917,1.7,85.888,1.253,128.819.74,59.614-.713,119.221-.247,178.841-.507q83.7-.37,167.4-.68,112.725-.39,225.451-.9,58.418-.25,116.828-.5c20.9-.087,41.931.493,62.813-.407,5.006-.213,13.77.16,16.89-4.746,2.819-4.432,3.193-11.564,3.826-16.623,1.7-13.55,2.093-28.234-1.113-41.6-.6-2.5-4.459-1.44-3.859,1.066,3.333,13.917,2.766,29.66.513,43.7a69.57,69.57,0,0,1-2.046,9.245c-1.193,3.912-4.512,4.126-8.325,4.559-9.365,1.053-18.956.613-28.36.653q-59.107.24-118.214.493-107.547.46-215.087.893c-65.886.247-131.765.34-197.65.746-42.071.26-84.142-.067-126.213-.02-42.191.047-84.382,1.013-126.573,1.086-20.775.033-41.558-.147-62.326-.786-10.018-.307-20.049-.647-30.053-1.306-4.392-.293-9.018-.46-13.29-1.6-4.119-1.1-4.086-2.693-4.406-6.452a283.3,283.3,0,0,1-.267-40.644c.127-2.126-.273-5.859.693-7.8,1.46-2.926,8.851-2.426,11.711-2.559,10.011-.48,20.069-.433,30.087-.58q62.316-.92,124.633-1.233c81.789-.453,163.578-.3,245.367-.307q93.88-.01,187.759-.633c38.105-.307,76.217-.76,114.322-.92,55.681-.233,111.356.06,167.037.473,9.831.073,19.669.093,29.5.227a102.753,102.753,0,0,1,13.65.913c1.62.24,6.958.553,7.752,2.319C938.049,10.36,941.495,8.328,940.448,6Z" transform="translate(0.003 -0.008)"/>
      <g id="Icon_-_Plus" data-name="Icon - Plus" transform="translate(874.173 24.613)">
        <path id="Icon_-_Plus-2" data-name="Icon - Plus" d="M9.771,20.846q.384-3.623.645-7.254-4.246-.118-8.49-.4c-2.559-.172-2.573-4.172,0-4q4.369.29,8.74.4.2-3.83.272-7.668c.047-2.573,4.047-2.573,4,0S14.8,7.092,14.66,9.667q4.059.034,8.121-.08c2.58-.073,2.566,3.925,0,4q-4.188.12-8.372.08-.259,3.592-.638,7.179a2.142,2.142,0,0,1-2.209,1.911A1.662,1.662,0,0,1,9.771,20.846Z" transform="translate(0 0)"/>
      </g>
      <text id="Octubre" transform="translate(44 48)" font-size="34" font-family="TektonPro-Bold, Tekton Pro" font-weight="700"><tspan x="0" y="0">Octubre</tspan></text>
    </g>
    <g id="Accordions_Base_Box_Action_1" data-name="Accordions / Base Box / Action 1" transform="translate(90.919 570.216)">
      <path id="Base_Box-2" data-name="Base Box" d="M78.241,251.059c-14.253-.206-28.5-.578-42.739-1.206-7.238-.318-14.524-.549-21.724-1.458-3.5-.444-8.556-.767-11.067-3.668C-.335,241.211.931,232.362.837,228.149-.382,171.641-.03,115.054.4,58.539.487,47.22.585,35.9.817,24.57c.067-3.458.14-6.922.285-10.379.074-1.781-.091-4.065.577-5.754,1.332-3.357,5.775-3.8,8.861-4.193,6.226-.788,12.571-.708,18.837-.815Q52.235,3.063,75.1,2.773q43.814-.546,87.638-.794c66.844-.4,133.689-.38,200.533-.358q73.058.026,146.118-.112C572.208,1.315,635.022.554,697.835.164Q746.773-.135,795.7.07q35.438.119,70.86.378c14.466.1,28.943.113,43.409.332A87.282,87.282,0,0,1,928.12,2.475c2.066.476,5.235,1.145,6.4,3.2a1.978,1.978,0,0,1,.351.758c1.273,5.311,1.067,11.219,1.273,16.636,2.171,57.487,1.37,115.334-.313,172.828-.318,10.961-.668,21.937-1.449,32.871-.352,4.974.318,13.889-4.81,16.7-4.463,2.451-10.841,2.259-15.756,2.425-6.305.213-12.623.145-18.928.173q-22.255.088-44.514.178-41.389.168-82.769.35-159.758.7-319.523,1.238c-62.713.191-125.42.558-188.135.378-25.905-.074-51.811.229-77.718.529-23.233.271-46.461.542-69.694.542Q95.392,251.288,78.241,251.059ZM4.188,101.768q-.1,45.45.193,90.9c.079,11.146.178,22.3.4,33.447.066,3.423.138,6.847.271,10.266.054,1.43-.318,4.146.458,5.457,1.37,2.318,7.43,2.5,9.735,2.761,3.259.372,6.53.577,9.8.769,6.729.4,13.464.661,20.2.906,14.592.53,29.181.815,43.778.941,29.036.25,58.071-.107,87.1-.458,48.348-.589,96.677-.4,145.025-.376,69.815.033,139.642-.537,209.455-.782q153.877-.547,307.741-1.265,21.012-.091,42.029-.173c3.763-.015,7.556.04,11.36.1,9.863.145,19.805.29,29.518-.8,2.939-.33,6.9-.444,7.934-3.622a15.831,15.831,0,0,0,.458-2.677c.444-3.271.655-6.59.874-9.882,1.689-25.339,1.92-50.81,2.245-76.2q.505-39.762.271-79.534-7.7.182-15.419.343c-54.824,1.125-109.664,1.51-164.5,1.689q-95.9.305-191.8-.187Q460.733,73,360.146,72.329q-96.375-.567-192.751-.967c-54.374-.177-108.744-.25-163.118.113Q4.205,86.622,4.188,101.768ZM190.1,67.467q97.09.368,194.181,1.026,100.508.6,201.023,1.014,95.023.319,190.048.007c52.554-.242,105.1-.7,157.645-1.938q-.035-4.326-.082-8.652c-.119-11.4-.292-22.8-.689-34.2-.2-5.466.027-11.958-1.145-17.037-1.7-2.36-10.667-2.427-12.736-2.594-7.02-.556-14.094-.4-21.134-.451Q877.9,4.5,858.578,4.369c-66.834-.437-133.661-.523-200.495.086Q546.35,5.468,434.615,5.593q-34.765.015-69.528,0c-91.839-.024-183.679-.049-275.513.983q-21.818.249-43.633.57c-7.279.1-14.564.2-21.843.345-3.138.065-6.278.131-9.411.343-1.96.132-7.411-.1-8.835,1.57-1.079,1.271-.722,3.794-.788,5.425-.14,3.509-.212,7.021-.278,10.53C4.511,39.4,4.374,53.447,4.3,67.5q8.186-.052,16.377-.093Q55.336,67.23,90,67.241,140.048,67.241,190.1,67.467Z" transform="translate(0 0)"/>
      <g id="Icon_-_Minus" data-name="Icon - Minus" transform="translate(874.57 33.598)">
        <path id="Icon_-_Minus-2" data-name="Icon - Minus" d="M1313.706,54.691q10.352.685,20.724.391c2.55-.073,2.563-4.047,0-3.974q-10.372.288-20.724-.391c-2.55-.166-2.543,3.808,0,3.974Z" transform="translate(-1311.796 -50.712)"/>
      </g>
      <text id="Septiembre" transform="translate(42.081 47.784)" font-size="34" font-family="TektonPro-Bold, Tekton Pro" font-weight="700"><tspan x="0" y="0">Septiembre</tspan></text>
    </g>
    <g id="Accordions_Base_Box_Normal_1-2" data-name="Accordions / Base Box / Normal 1" transform="translate(89 861.824)">
      <path id="Base_Box-3" data-name="Base Box" d="M940.448,6C938.642,2,930.577,1.816,927.031,1.422,916.653.269,906.062.709,895.631.629Q867.6.419,839.57.256,796.609.016,753.642.009c-40.011.02-80.023.373-120.034.747q-82.622.76-165.237.846c-85.022.107-170.05-.12-255.078.153q-63.486.21-126.959.9C64.512,2.909,42.67,3,20.855,3.609c-4.786.133-15.4-.78-18.723,3.759C-.268,10.647.486,17.632.312,21.458-.021,29-.074,36.568.079,44.113.206,50.292.072,56.844,1.205,62.942c1.006,5.412,6.452,6.225,11.251,6.9,9.385,1.326,18.976,1.486,28.434,1.86,42.917,1.7,85.888,1.253,128.819.74,59.614-.713,119.221-.247,178.841-.507q83.7-.37,167.4-.68,112.725-.39,225.451-.9,58.418-.25,116.828-.5c20.9-.087,41.931.493,62.813-.407,5.006-.213,13.77.16,16.89-4.746,2.819-4.432,3.193-11.564,3.826-16.623,1.7-13.55,2.093-28.234-1.113-41.6-.6-2.5-4.459-1.44-3.859,1.066,3.333,13.917,2.766,29.66.513,43.7a69.57,69.57,0,0,1-2.046,9.245c-1.193,3.912-4.512,4.126-8.325,4.559-9.365,1.053-18.956.613-28.36.653q-59.107.24-118.214.493-107.547.46-215.087.893c-65.886.247-131.765.34-197.65.746-42.071.26-84.142-.067-126.213-.02-42.191.047-84.382,1.013-126.573,1.086-20.775.033-41.558-.147-62.326-.786-10.018-.307-20.049-.647-30.053-1.306-4.392-.293-9.018-.46-13.29-1.6-4.119-1.1-4.086-2.693-4.406-6.452a283.3,283.3,0,0,1-.267-40.644c.127-2.126-.273-5.859.693-7.8,1.46-2.926,8.851-2.426,11.711-2.559,10.011-.48,20.069-.433,30.087-.58q62.316-.92,124.633-1.233c81.789-.453,163.578-.3,245.367-.307q93.88-.01,187.759-.633c38.105-.307,76.217-.76,114.322-.92,55.681-.233,111.356.06,167.037.473,9.831.073,19.669.093,29.5.227a102.753,102.753,0,0,1,13.65.913c1.62.24,6.958.553,7.752,2.319C938.049,10.36,941.495,8.328,940.448,6Z" transform="translate(0.003 -0.008)"/>
      <g id="Icon_-_Plus-3" data-name="Icon - Plus" transform="translate(874.173 24.613)">
        <path id="Icon_-_Plus-4" data-name="Icon - Plus" d="M9.771,20.846q.384-3.623.645-7.254-4.246-.118-8.49-.4c-2.559-.172-2.573-4.172,0-4q4.369.29,8.74.4.2-3.83.272-7.668c.047-2.573,4.047-2.573,4,0S14.8,7.092,14.66,9.667q4.059.034,8.121-.08c2.58-.073,2.566,3.925,0,4q-4.188.12-8.372.08-.259,3.592-.638,7.179a2.142,2.142,0,0,1-2.209,1.911A1.662,1.662,0,0,1,9.771,20.846Z" transform="translate(0 0)"/>
      </g>
      <text id="Agosto" transform="translate(44 48)" font-size="34" font-family="TektonPro-Bold, Tekton Pro" font-weight="700"><tspan x="0" y="0">Agosto</tspan></text>
    </g>
    <g id="Componente_2_1" data-name="Componente 2 – 1" transform="translate(135 667.999)">
      <text id="Movimiento_1" data-name="Movimiento 1" transform="translate(0 14.001)" font-size="18" font-family="TektonPro-Bold, Tekton Pro" font-weight="700"><tspan x="0" y="0">Movimiento 1</tspan></text>
      <g id="Icon_-_Edit" data-name="Icon - Edit" transform="translate(800 0.001)">
        <rect id="Square" width="19" height="19" transform="translate(0 0)" fill="none"/>
        <path id="Icon_-_Edit-2" data-name="Icon - Edit" d="M4.723,18.666c-1.9-.036-4.565.24-4.682-2.318C0,15.39.035,14.42.032,13.462L0,4.226c0-1.274.308-2.587,1.8-2.8a20.683,20.683,0,0,1,3.041-.116c.406,0,.81.009,1.206,0,1.609-.021,3.218-.026,4.827-.024a.628.628,0,0,1,0,1.255q-2.413,0-4.827.024-1.084.014-2.168.039c-.175,0-.39-.008-.619-.02a3.807,3.807,0,0,0-1.467.1c-.842.35-.539,2.19-.537,2.889q.014,4.241.029,8.483c0,.748-.07,1.539.008,2.283C1.41,17.432,2.58,17.414,3.54,17.4c.2,0,.386-.008.555,0,1.087.038,2.176.029,3.264.012.978-.015,1.96-.006,2.942,0,1.582.014,3.166.029,4.738-.057,1.015-.056,2.464.094,2.538-1.208.021-.372-.007-.754-.011-1.126q-.032-3.45-.065-6.9a.628.628,0,0,1,1.255,0c.025,2.7.187,5.43.076,8.126-.1,2.444-2.756,2.417-4.714,2.391-.208,0-.409-.006-.6-.005-2.238,0-4.48.054-6.72.054Q5.762,18.684,4.723,18.666Zm.942-5.474a.519.519,0,0,1-.166-.459c.1-1.129.022-2.483.758-3.433a7.724,7.724,0,0,1,.648-.671L9.92,5.593C11.59,3.91,13.194,2.1,14.961.515,16.211-.6,17.368.307,18.276,1.3a1.874,1.874,0,0,1-.114,2.782c-1.873,1.943-3.834,3.806-5.748,5.707-.791.785-1.576,1.575-2.372,2.355-1.107,1.084-2.436,1.087-3.915,1.22l-.064,0A.505.505,0,0,1,5.665,13.192ZM15.112,2.144,9.825,7.469l-2.1,2.115a3.617,3.617,0,0,0-.916,2.479,3.508,3.508,0,0,0,2.119-.585c.2-.165.38-.378.565-.561l2.6-2.578L17.1,3.363c.651-.646.367-1.31-.377-1.841a.9.9,0,0,0-.521-.2C15.766,1.324,15.464,1.789,15.112,2.144Z" transform="translate(0.001)" stroke="rgba(0,0,0,0)" stroke-width="1"/>
      </g>
      <g id="Icon_-_Delete" data-name="Icon - Delete" transform="translate(839 0.001)">
        <rect id="Square-2" data-name="Square" width="19" height="19" fill="none"/>
        <path id="Icon_-_Delete-2" data-name="Icon - Delete" d="M3.088,16.773c-1.321-.552-1.471-1.78-1.476-3.07-.016-3.468.02-6.937.079-10.4L.549,3.277a.569.569,0,0,1,0-1.138l4.012.077c-.077-.7-.205-1.612.45-1.992A4.811,4.811,0,0,1,7.363.068c.159.006.334,0,.514,0A3.844,3.844,0,0,1,9.533.285c.763.378.614,1.305.548,2.036l4.252.082a.569.569,0,0,1,0,1.137l-1.4-.027q.158,2.6.315,5.208c.1,1.71.356,3.482.287,5.194A2.666,2.666,0,0,1,11.874,16.5a8.845,8.845,0,0,1-2.163.245l-2.734.194c-.669.048-1.386.14-2.092.14A4.64,4.64,0,0,1,3.088,16.773Zm-.34-5.089c0,1.068-.433,3.435.694,4.012.988.506,2.486.181,3.536.106a32.16,32.16,0,0,0,4.3-.32c1.624-.345,1.088-2.651,1.015-3.841q-.247-4.074-.494-8.149L2.829,3.32Q2.757,7.5,2.748,11.684ZM5.778,1.2c-.2.1-.132.635-.082,1.04L8.945,2.3c.051-.549.117-1.024-.579-1.053-.377-.015-.755-.034-1.132-.046-.236-.007-.655-.077-1-.077A1.05,1.05,0,0,0,5.778,1.2ZM4.918,12.479a47.762,47.762,0,0,1-.1-6.12c.035-.73,1.173-.732,1.138,0a47.822,47.822,0,0,0,.1,6.12.487.487,0,0,1-.523.546A.592.592,0,0,1,4.918,12.479ZM8.68,12.36q-.1-2.943.077-5.881c.045-.729,1.183-.731,1.138,0q-.182,2.939-.077,5.881a.515.515,0,0,1-.548.549A.562.562,0,0,1,8.68,12.36Z" transform="translate(2 0.001)" stroke="rgba(0,0,0,0)" stroke-width="1"/>
      </g>
    </g>
    <g id="Componente_2_2" data-name="Componente 2 – 2" transform="translate(135 703)">
      <text id="Movimiento_2" data-name="Movimiento 2" transform="translate(0 14)" font-size="18" font-family="TektonPro-Bold, Tekton Pro" font-weight="700"><tspan x="0" y="0">Movimiento 2</tspan></text>
      <g id="Icon_-_Edit-3" data-name="Icon - Edit" transform="translate(800)">
        <rect id="Square-3" data-name="Square" width="19" height="19" transform="translate(0 0)" fill="none"/>
        <path id="Icon_-_Edit-4" data-name="Icon - Edit" d="M4.723,18.666c-1.9-.036-4.565.24-4.682-2.318C0,15.39.035,14.42.032,13.462L0,4.226c0-1.274.308-2.587,1.8-2.8a20.683,20.683,0,0,1,3.041-.116c.406,0,.81.009,1.206,0,1.609-.021,3.218-.026,4.827-.024a.628.628,0,0,1,0,1.255q-2.413,0-4.827.024-1.084.014-2.168.039c-.175,0-.39-.008-.619-.02a3.807,3.807,0,0,0-1.467.1c-.842.35-.539,2.19-.537,2.889q.014,4.241.029,8.483c0,.748-.07,1.539.008,2.283C1.41,17.432,2.58,17.414,3.54,17.4c.2,0,.386-.008.555,0,1.087.038,2.176.029,3.264.012.978-.015,1.96-.006,2.942,0,1.582.014,3.166.029,4.738-.057,1.015-.056,2.464.094,2.538-1.208.021-.372-.007-.754-.011-1.126q-.032-3.45-.065-6.9a.628.628,0,0,1,1.255,0c.025,2.7.187,5.43.076,8.126-.1,2.444-2.756,2.417-4.714,2.391-.208,0-.409-.006-.6-.005-2.238,0-4.48.054-6.72.054Q5.762,18.684,4.723,18.666Zm.942-5.474a.519.519,0,0,1-.166-.459c.1-1.129.022-2.483.758-3.433a7.724,7.724,0,0,1,.648-.671L9.92,5.593C11.59,3.91,13.194,2.1,14.961.515,16.211-.6,17.368.307,18.276,1.3a1.874,1.874,0,0,1-.114,2.782c-1.873,1.943-3.834,3.806-5.748,5.707-.791.785-1.576,1.575-2.372,2.355-1.107,1.084-2.436,1.087-3.915,1.22l-.064,0A.505.505,0,0,1,5.665,13.192ZM15.112,2.144,9.825,7.469l-2.1,2.115a3.617,3.617,0,0,0-.916,2.479,3.508,3.508,0,0,0,2.119-.585c.2-.165.38-.378.565-.561l2.6-2.578L17.1,3.363c.651-.646.367-1.31-.377-1.841a.9.9,0,0,0-.521-.2C15.766,1.324,15.464,1.789,15.112,2.144Z" transform="translate(0.001)" stroke="rgba(0,0,0,0)" stroke-width="1"/>
      </g>
      <g id="Icon_-_Delete-3" data-name="Icon - Delete" transform="translate(839)">
        <rect id="Square-4" data-name="Square" width="19" height="19" fill="none"/>
        <path id="Icon_-_Delete-4" data-name="Icon - Delete" d="M3.088,16.773c-1.321-.552-1.471-1.78-1.476-3.07-.016-3.468.02-6.937.079-10.4L.549,3.277a.569.569,0,0,1,0-1.138l4.012.077c-.077-.7-.205-1.612.45-1.992A4.811,4.811,0,0,1,7.363.068c.159.006.334,0,.514,0A3.844,3.844,0,0,1,9.533.285c.763.378.614,1.305.548,2.036l4.252.082a.569.569,0,0,1,0,1.137l-1.4-.027q.158,2.6.315,5.208c.1,1.71.356,3.482.287,5.194A2.666,2.666,0,0,1,11.874,16.5a8.845,8.845,0,0,1-2.163.245l-2.734.194c-.669.048-1.386.14-2.092.14A4.64,4.64,0,0,1,3.088,16.773Zm-.34-5.089c0,1.068-.433,3.435.694,4.012.988.506,2.486.181,3.536.106a32.16,32.16,0,0,0,4.3-.32c1.624-.345,1.088-2.651,1.015-3.841q-.247-4.074-.494-8.149L2.829,3.32Q2.757,7.5,2.748,11.684ZM5.778,1.2c-.2.1-.132.635-.082,1.04L8.945,2.3c.051-.549.117-1.024-.579-1.053-.377-.015-.755-.034-1.132-.046-.236-.007-.655-.077-1-.077A1.05,1.05,0,0,0,5.778,1.2ZM4.918,12.479a47.762,47.762,0,0,1-.1-6.12c.035-.73,1.173-.732,1.138,0a47.822,47.822,0,0,0,.1,6.12.487.487,0,0,1-.523.546A.592.592,0,0,1,4.918,12.479ZM8.68,12.36q-.1-2.943.077-5.881c.045-.729,1.183-.731,1.138,0q-.182,2.939-.077,5.881a.515.515,0,0,1-.548.549A.562.562,0,0,1,8.68,12.36Z" transform="translate(2 0.001)" stroke="rgba(0,0,0,0)" stroke-width="1"/>
      </g>
    </g>
    <g id="Componente_2_3" data-name="Componente 2 – 3" transform="translate(135 738)">
      <text id="Movimiento_3" data-name="Movimiento 3" transform="translate(0 14)" font-size="18" font-family="TektonPro-Bold, Tekton Pro" font-weight="700"><tspan x="0" y="0">Movimiento 3</tspan></text>
      <g id="Icon_-_Edit-5" data-name="Icon - Edit" transform="translate(800)">
        <rect id="Square-5" data-name="Square" width="19" height="19" transform="translate(0 0)" fill="none"/>
        <path id="Icon_-_Edit-6" data-name="Icon - Edit" d="M4.723,18.666c-1.9-.036-4.565.24-4.682-2.318C0,15.39.035,14.42.032,13.462L0,4.226c0-1.274.308-2.587,1.8-2.8a20.683,20.683,0,0,1,3.041-.116c.406,0,.81.009,1.206,0,1.609-.021,3.218-.026,4.827-.024a.628.628,0,0,1,0,1.255q-2.413,0-4.827.024-1.084.014-2.168.039c-.175,0-.39-.008-.619-.02a3.807,3.807,0,0,0-1.467.1c-.842.35-.539,2.19-.537,2.889q.014,4.241.029,8.483c0,.748-.07,1.539.008,2.283C1.41,17.432,2.58,17.414,3.54,17.4c.2,0,.386-.008.555,0,1.087.038,2.176.029,3.264.012.978-.015,1.96-.006,2.942,0,1.582.014,3.166.029,4.738-.057,1.015-.056,2.464.094,2.538-1.208.021-.372-.007-.754-.011-1.126q-.032-3.45-.065-6.9a.628.628,0,0,1,1.255,0c.025,2.7.187,5.43.076,8.126-.1,2.444-2.756,2.417-4.714,2.391-.208,0-.409-.006-.6-.005-2.238,0-4.48.054-6.72.054Q5.762,18.684,4.723,18.666Zm.942-5.474a.519.519,0,0,1-.166-.459c.1-1.129.022-2.483.758-3.433a7.724,7.724,0,0,1,.648-.671L9.92,5.593C11.59,3.91,13.194,2.1,14.961.515,16.211-.6,17.368.307,18.276,1.3a1.874,1.874,0,0,1-.114,2.782c-1.873,1.943-3.834,3.806-5.748,5.707-.791.785-1.576,1.575-2.372,2.355-1.107,1.084-2.436,1.087-3.915,1.22l-.064,0A.505.505,0,0,1,5.665,13.192ZM15.112,2.144,9.825,7.469l-2.1,2.115a3.617,3.617,0,0,0-.916,2.479,3.508,3.508,0,0,0,2.119-.585c.2-.165.38-.378.565-.561l2.6-2.578L17.1,3.363c.651-.646.367-1.31-.377-1.841a.9.9,0,0,0-.521-.2C15.766,1.324,15.464,1.789,15.112,2.144Z" transform="translate(0.001)" stroke="rgba(0,0,0,0)" stroke-width="1"/>
      </g>
      <g id="Icon_-_Delete-5" data-name="Icon - Delete" transform="translate(839)">
        <rect id="Square-6" data-name="Square" width="19" height="19" fill="none"/>
        <path id="Icon_-_Delete-6" data-name="Icon - Delete" d="M3.088,16.773c-1.321-.552-1.471-1.78-1.476-3.07-.016-3.468.02-6.937.079-10.4L.549,3.277a.569.569,0,0,1,0-1.138l4.012.077c-.077-.7-.205-1.612.45-1.992A4.811,4.811,0,0,1,7.363.068c.159.006.334,0,.514,0A3.844,3.844,0,0,1,9.533.285c.763.378.614,1.305.548,2.036l4.252.082a.569.569,0,0,1,0,1.137l-1.4-.027q.158,2.6.315,5.208c.1,1.71.356,3.482.287,5.194A2.666,2.666,0,0,1,11.874,16.5a8.845,8.845,0,0,1-2.163.245l-2.734.194c-.669.048-1.386.14-2.092.14A4.64,4.64,0,0,1,3.088,16.773Zm-.34-5.089c0,1.068-.433,3.435.694,4.012.988.506,2.486.181,3.536.106a32.16,32.16,0,0,0,4.3-.32c1.624-.345,1.088-2.651,1.015-3.841q-.247-4.074-.494-8.149L2.829,3.32Q2.757,7.5,2.748,11.684ZM5.778,1.2c-.2.1-.132.635-.082,1.04L8.945,2.3c.051-.549.117-1.024-.579-1.053-.377-.015-.755-.034-1.132-.046-.236-.007-.655-.077-1-.077A1.05,1.05,0,0,0,5.778,1.2ZM4.918,12.479a47.762,47.762,0,0,1-.1-6.12c.035-.73,1.173-.732,1.138,0a47.822,47.822,0,0,0,.1,6.12.487.487,0,0,1-.523.546A.592.592,0,0,1,4.918,12.479ZM8.68,12.36q-.1-2.943.077-5.881c.045-.729,1.183-.731,1.138,0q-.182,2.939-.077,5.881a.515.515,0,0,1-.548.549A.562.562,0,0,1,8.68,12.36Z" transform="translate(2 0.001)" stroke="rgba(0,0,0,0)" stroke-width="1"/>
      </g>
    </g>
    <g id="Componente_2_4" data-name="Componente 2 – 4" transform="translate(135 773)">
      <text id="Movimiento_4" data-name="Movimiento 4" transform="translate(0 14)" font-size="18" font-family="TektonPro-Bold, Tekton Pro" font-weight="700"><tspan x="0" y="0">Movimiento 4</tspan></text>
      <g id="Icon_-_Edit-7" data-name="Icon - Edit" transform="translate(800)">
        <rect id="Square-7" data-name="Square" width="19" height="19" transform="translate(0 0)" fill="none"/>
        <path id="Icon_-_Edit-8" data-name="Icon - Edit" d="M4.723,18.666c-1.9-.036-4.565.24-4.682-2.318C0,15.39.035,14.42.032,13.462L0,4.226c0-1.274.308-2.587,1.8-2.8a20.683,20.683,0,0,1,3.041-.116c.406,0,.81.009,1.206,0,1.609-.021,3.218-.026,4.827-.024a.628.628,0,0,1,0,1.255q-2.413,0-4.827.024-1.084.014-2.168.039c-.175,0-.39-.008-.619-.02a3.807,3.807,0,0,0-1.467.1c-.842.35-.539,2.19-.537,2.889q.014,4.241.029,8.483c0,.748-.07,1.539.008,2.283C1.41,17.432,2.58,17.414,3.54,17.4c.2,0,.386-.008.555,0,1.087.038,2.176.029,3.264.012.978-.015,1.96-.006,2.942,0,1.582.014,3.166.029,4.738-.057,1.015-.056,2.464.094,2.538-1.208.021-.372-.007-.754-.011-1.126q-.032-3.45-.065-6.9a.628.628,0,0,1,1.255,0c.025,2.7.187,5.43.076,8.126-.1,2.444-2.756,2.417-4.714,2.391-.208,0-.409-.006-.6-.005-2.238,0-4.48.054-6.72.054Q5.762,18.684,4.723,18.666Zm.942-5.474a.519.519,0,0,1-.166-.459c.1-1.129.022-2.483.758-3.433a7.724,7.724,0,0,1,.648-.671L9.92,5.593C11.59,3.91,13.194,2.1,14.961.515,16.211-.6,17.368.307,18.276,1.3a1.874,1.874,0,0,1-.114,2.782c-1.873,1.943-3.834,3.806-5.748,5.707-.791.785-1.576,1.575-2.372,2.355-1.107,1.084-2.436,1.087-3.915,1.22l-.064,0A.505.505,0,0,1,5.665,13.192ZM15.112,2.144,9.825,7.469l-2.1,2.115a3.617,3.617,0,0,0-.916,2.479,3.508,3.508,0,0,0,2.119-.585c.2-.165.38-.378.565-.561l2.6-2.578L17.1,3.363c.651-.646.367-1.31-.377-1.841a.9.9,0,0,0-.521-.2C15.766,1.324,15.464,1.789,15.112,2.144Z" transform="translate(0.001)" stroke="rgba(0,0,0,0)" stroke-width="1"/>
      </g>
      <g id="Icon_-_Delete-7" data-name="Icon - Delete" transform="translate(839)">
        <rect id="Square-8" data-name="Square" width="19" height="19" fill="none"/>
        <path id="Icon_-_Delete-8" data-name="Icon - Delete" d="M3.088,16.773c-1.321-.552-1.471-1.78-1.476-3.07-.016-3.468.02-6.937.079-10.4L.549,3.277a.569.569,0,0,1,0-1.138l4.012.077c-.077-.7-.205-1.612.45-1.992A4.811,4.811,0,0,1,7.363.068c.159.006.334,0,.514,0A3.844,3.844,0,0,1,9.533.285c.763.378.614,1.305.548,2.036l4.252.082a.569.569,0,0,1,0,1.137l-1.4-.027q.158,2.6.315,5.208c.1,1.71.356,3.482.287,5.194A2.666,2.666,0,0,1,11.874,16.5a8.845,8.845,0,0,1-2.163.245l-2.734.194c-.669.048-1.386.14-2.092.14A4.64,4.64,0,0,1,3.088,16.773Zm-.34-5.089c0,1.068-.433,3.435.694,4.012.988.506,2.486.181,3.536.106a32.16,32.16,0,0,0,4.3-.32c1.624-.345,1.088-2.651,1.015-3.841q-.247-4.074-.494-8.149L2.829,3.32Q2.757,7.5,2.748,11.684ZM5.778,1.2c-.2.1-.132.635-.082,1.04L8.945,2.3c.051-.549.117-1.024-.579-1.053-.377-.015-.755-.034-1.132-.046-.236-.007-.655-.077-1-.077A1.05,1.05,0,0,0,5.778,1.2ZM4.918,12.479a47.762,47.762,0,0,1-.1-6.12c.035-.73,1.173-.732,1.138,0a47.822,47.822,0,0,0,.1,6.12.487.487,0,0,1-.523.546A.592.592,0,0,1,4.918,12.479ZM8.68,12.36q-.1-2.943.077-5.881c.045-.729,1.183-.731,1.138,0q-.182,2.939-.077,5.881a.515.515,0,0,1-.548.549A.562.562,0,0,1,8.68,12.36Z" transform="translate(2 0.001)" stroke="rgba(0,0,0,0)" stroke-width="1"/>
      </g>
    </g>
    <g id="Drop_Downs_Pill_Box_Action_2" data-name="Drop Downs / Pill Box / Action 2" transform="translate(-115 -1195.27)">
      <g id="Drop_Down_List" data-name="Drop Down List" transform="translate(613 1595)">
        <rect id="Rectángulo_450" data-name="Rectángulo 450" width="123" height="98" transform="translate(2 2)"/>
        <path id="Box" d="M125.455.124C108.181.506,90.9.728,73.624.546,60.422.408,47.224.1,34.021.029,23.063-.036,12.105.015,1.147.124A1.139,1.139,0,0,0,0,1.217C0,6.99.405,12.777.5,18.554.6,25.19.623,31.826.6,38.462.554,51.975.325,65.484.161,78.993.073,86.023,0,93.049,0,100.078a1.134,1.134,0,0,0,1.147,1.093c30.446-.306,60.869.616,91.308.477,11-.051,22-.237,33-.477a1.139,1.139,0,0,0,1.147-1.093c-.008-26.366-.872-52.729-.531-79.1.084-6.585.531-13.185.531-19.767a1.151,1.151,0,0,0-2.294,0c0,5.773-.405,11.561-.5,17.337-.107,6.636-.126,13.272-.1,19.909.046,13.513.275,27.022.44,40.531.088,7.03.157,14.055.161,21.085l1.147-1.093c-17.274.382-34.553.6-51.831.423-13.2-.138-26.4-.444-39.6-.517q-16.437-.093-32.874.1l1.147,1.093c.008-26.37.872-52.733.531-79.1C2.741,14.4,2.294,7.8,2.294,1.217L1.147,2.309c30.446-.306,60.869.616,91.308.477,11-.051,22-.237,33-.477A1.093,1.093,0,1,0,125.455.124Z" transform="translate(0 0)"/>
        <text id="Categoria_1" data-name="Categoria 1" transform="translate(18 32)" fill="#fff" font-size="18" font-family="TektonPro-Bold, Tekton Pro" font-weight="700"><tspan x="0" y="0">Categoria 1</tspan></text>
        <text id="Categoria_2" data-name="Categoria 2" transform="translate(18 57)" fill="#fff" font-size="18" font-family="TektonPro-Bold, Tekton Pro" font-weight="700"><tspan x="0" y="0">Categoria 2</tspan></text>
        <text id="Categoria_3" data-name="Categoria 3" transform="translate(18 82)" fill="#fff" font-size="18" font-family="TektonPro-Bold, Tekton Pro" font-weight="700"><tspan x="0" y="0">Categoria 3</tspan></text>
      </g>
      <path id="Pill_Box" data-name="Pill Box" d="M215.345,16.151c-6.538-.268-13.066-.6-19.608-.806q-3.925-.125-7.847-.208a1.2,1.2,0,0,1-.759-.016c-13.156-.269-26.3-.224-39.467-.155q-26.741.14-53.487.285c-17.455.111-34.915.222-52.366.5-5.279.086-10.563.159-15.835.379C16.865,16.506,5.708,15.2-.094,9.023c-6.348-6.76-4.54-17.347,2.4-23.39,7.72-6.718,20.1-6.584,30.685-6.468,13.061.142,26.127.118,39.189.129q28,.02,56-.046c13.013-.031,26.03-.013,39.038-.211,5.794-.088,11.6,0,17.4.1,5.217.083,10.436.167,15.647.119,12.1-.11,26.092-1.483,36.188,4.877.027.016.055.033.082.052s.057.038.083.057a18.269,18.269,0,0,1,7.545,10.534,15.772,15.772,0,0,1-1.816,12.338c-2.255,3.594-6.538,5.964-11.215,7.348A47.377,47.377,0,0,1,217.847,16.2C217.009,16.2,216.174,16.185,215.345,16.151Zm-10.816-2.569c10.657.437,24.348,2.123,32.767-4.494,7.967-6.263,5.392-17.928-2.565-23.388l-.075-.045c-4.965-3.156-11.294-4.136-17.531-4.373-6.767-.258-13.568-.154-20.368-.049-2.884.045-5.768.089-8.648.106q.218,15.871.438,31.74Q196.538,13.26,204.529,13.583ZM27.437-18.792c-6.174.027-12.712.375-18.217,2.784A17.054,17.054,0,0,0-.577-5.623,13.7,13.7,0,0,0,1.549,7.236c2.932,3.577,8.207,5.38,13.328,6.235,6.1,1.015,12.326.491,18.5.351,6.617-.153,13.235-.239,19.851-.316,17.6-.205,35.2-.313,52.8-.414q24.2-.135,48.393-.25c10.688-.06,21.369-.02,32.049.195q-.217-15.847-.438-31.689-1.845,0-3.689-.018c-7.127-.08-14.231-.2-21.358-.14-14.638.122-29.281.143-43.924.167q-26.536.041-53.07.01C53.24-18.648,42.489-18.8,31.741-18.8Q29.589-18.8,27.437-18.792Z" transform="translate(427 1581)"/>
      <g id="Icon_-_Arrow_Down" data-name="Icon - Arrow Down" transform="translate(635.305 1576.96)" clip-path="url(#clip-path)">
        <path id="Arrow_Down" data-name="Arrow Down" d="M472.786,46.684q2.2,2.276,4.307,4.642c-.093-.346-.182-.695-.274-1.04-.007.025-.011.053-.018.078a1.076,1.076,0,0,0,1.785,1.04,63.269,63.269,0,0,0,4.068-5.055c.887-1.044-.62-2.561-1.51-1.51a61.87,61.87,0,0,1-4.068,5.055c.595.346,1.19.695,1.785,1.04.228-.983-.72-1.642-1.314-2.294q-1.6-1.758-3.249-3.462c-.958-.994-2.469.517-1.51,1.507Z" transform="translate(-472.48 -44.484)"/>
      </g>
      <text id="Filtrar_por_categorias" data-name="Filtrar por categorias" transform="translate(521 1585)" font-size="18" font-family="TektonPro-Bold, Tekton Pro" font-weight="700"><tspan x="-78.849" y="0">Filtrar por categorias</tspan></text>
    </g>
    <g id="Buttons_Pill_Button_Default_Submit" data-name="Buttons / Pill Button / Default / Submit" transform="translate(-231 -184.27)">
      <path id="Pill_Button" data-name="Pill Button" d="M165.369,5.153C151.909-1.136,133.4.046,117.212.2,105.624.3,94.048-.122,82.466.046,71.151.207,59.908.193,48.593.091c-15.8-.143-33.922.433-43.25,8.99-7.384,6.771-7.79,17.383,3.071,23.063,11.758,6.148,28.234,5.107,42.79,4.866,11.964-.2,23.927.409,35.9.357,7.233-.031,14.447.042,21.674-.171,4.913-.143,9.807-.273,14.732-.213,14.683.171,30.857,1.493,43.287-4.184,11.679-5.334,12.1-15.817,5.27-22.9a24.477,24.477,0,0,0-6.694-4.747c-1.763-.877-4.343.6-2.568,1.482,10.534,5.257,14.223,16.233,4.907,22.755-9.674,6.767-26.853,5.851-40.319,5.561-10.128-.217-20.2.3-30.318.339-12.321.042-24.563-.192-36.86-.391-13.187-.217-26.732,1.433-39.519-1.087C13.817,32.459,7.984,29.883,5.439,25.86A11.19,11.19,0,0,1,5.6,13.552C8.2,9.361,13.447,6.058,20.51,4.251c7.439-1.9,15.852-2.1,23.86-2.087,10.352.014,20.686.245,31.045.084,11.564-.178,23.073.1,34.631.091,13.672-.007,28.391-1.2,41.7,1.024a43.028,43.028,0,0,1,11.061,3.272C164.6,7.477,167.186,6,165.369,5.153Z" transform="translate(325 548.994)"/>
      <text id="Nuevo_Movimiento" data-name="Nuevo Movimiento" transform="translate(413 575)" font-size="18" font-family="TektonPro-Bold, Tekton Pro" font-weight="700"><tspan x="-66.537" y="0">Nuevo Movimiento</tspan></text>
    </g>
    <g id="Form_Fields_Pill_Box_Normal" data-name="Form Fields / Pill Box / Normal" transform="translate(1044.274 -1455)">
      <text id="Registro" transform="translate(138 1940)" font-size="18" font-family="TektonPro-Bold, Tekton Pro" font-weight="700"><tspan x="0" y="0">Registro</tspan></text>
      <path id="Pill_Box-2" data-name="Pill Box" d="M487.09,5.233C478.411-1.7,465.211.252,454.52.28q-17,.042-34,.052Q394.937.358,369.356.37q-31.044.016-62.092.021Q273.593.4,239.918.4q-33.5,0-67-.01-30.249-.005-60.5-.024Q88.428.348,64.442.321,49.524.3,34.61.266C32.506.259,30.4.255,28.3.231,22.153.154,15.707.056,10.052,2.823,3.424,6.07-.232,13.256.009,20.512A15.541,15.541,0,0,0,10.8,35.334a37.509,37.509,0,0,0,12.481,1.751c2.334.007,4.671,0,7,0q15.446.005,30.893.007,24.216.005,48.435,0,30.223,0,60.449,0H305.08q31.405,0,62.807,0,26.183,0,52.363,0,18.2,0,36.408-.007c7.5,0,15.833.736,23.169-.945,6.586-1.51,11.878-5.463,13.238-12.349A19.806,19.806,0,0,0,487.09,5.233c-1.008-.886-2.494.59-1.479,1.479,5.881,5.156,8.058,15.607,3.073,22.126-4.043,5.288-11.829,6.115-17.986,6.15-1.96.01-3.921,0-5.881,0Q450.632,35,436.447,35q-23.023.005-46.042.007-29.182,0-58.36,0H200.071q-31.473,0-62.947,0-27.057,0-54.114,0Q63.174,35,43.338,35q-9.936,0-19.873-.007A38.541,38.541,0,0,1,12.6,33.712c-3.781-1.113-7.336-3.23-9.063-6.917A17.543,17.543,0,0,1,2.8,14.787C5.437,5.414,14.179,2.526,23.046,2.31c2.121-.052,4.238.007,6.359.021,7.106.056,14.215.049,21.321.063q20.438.037,40.88.045,27.591.021,55.185.031,31.772.01,63.54.017,33.4.005,66.808,0,32.133,0,64.269-.014,28.072-.01,56.148-.031Q418.778,2.427,440,2.4c7.723-.01,15.443-.014,23.166-.059,7.671-.045,16.085-.7,22.44,4.374C486.65,7.542,488.143,6.074,487.09,5.233Z" transform="translate(113.002 1914.994)"/>
    </g>
    <text id="Añadir_nuevo_Movimiento" data-name="Añadir nuevo Movimiento" transform="translate(1299 402)" font-size="28" font-family="TektonPro-Bold, Tekton Pro" font-weight="700"><tspan x="-141.96" y="0">Añadir nuevo Movimiento</tspan></text>
    <g id="Form_Fields_Pill_Box_Normal-2" data-name="Form Fields / Pill Box / Normal" transform="translate(1044.274 -1398)">
      <text id="Seleccionar_Categoria" data-name="Seleccionar Categoria" transform="translate(138 1940)" font-size="18" font-family="TektonPro-Bold, Tekton Pro" font-weight="700"><tspan x="0" y="0">Seleccionar Categoria</tspan></text>
      <path id="Pill_Box-3" data-name="Pill Box" d="M487.09,5.233C478.411-1.7,465.211.252,454.52.28q-17,.042-34,.052Q394.937.358,369.356.37q-31.044.016-62.092.021Q273.593.4,239.918.4q-33.5,0-67-.01-30.249-.005-60.5-.024Q88.428.348,64.442.321,49.524.3,34.61.266C32.506.259,30.4.255,28.3.231,22.153.154,15.707.056,10.052,2.823,3.424,6.07-.232,13.256.009,20.512A15.541,15.541,0,0,0,10.8,35.334a37.509,37.509,0,0,0,12.481,1.751c2.334.007,4.671,0,7,0q15.446.005,30.893.007,24.216.005,48.435,0,30.223,0,60.449,0H305.08q31.405,0,62.807,0,26.183,0,52.363,0,18.2,0,36.408-.007c7.5,0,15.833.736,23.169-.945,6.586-1.51,11.878-5.463,13.238-12.349A19.806,19.806,0,0,0,487.09,5.233c-1.008-.886-2.494.59-1.479,1.479,5.881,5.156,8.058,15.607,3.073,22.126-4.043,5.288-11.829,6.115-17.986,6.15-1.96.01-3.921,0-5.881,0Q450.632,35,436.447,35q-23.023.005-46.042.007-29.182,0-58.36,0H200.071q-31.473,0-62.947,0-27.057,0-54.114,0Q63.174,35,43.338,35q-9.936,0-19.873-.007A38.541,38.541,0,0,1,12.6,33.712c-3.781-1.113-7.336-3.23-9.063-6.917A17.543,17.543,0,0,1,2.8,14.787C5.437,5.414,14.179,2.526,23.046,2.31c2.121-.052,4.238.007,6.359.021,7.106.056,14.215.049,21.321.063q20.438.037,40.88.045,27.591.021,55.185.031,31.772.01,63.54.017,33.4.005,66.808,0,32.133,0,64.269-.014,28.072-.01,56.148-.031Q418.778,2.427,440,2.4c7.723-.01,15.443-.014,23.166-.059,7.671-.045,16.085-.7,22.44,4.374C486.65,7.542,488.143,6.074,487.09,5.233Z" transform="translate(113.002 1914.994)"/>
    </g>
    <g id="Icon_-_Arrow_Down-2" data-name="Icon - Arrow Down" transform="translate(1605.304 532)" clip-path="url(#clip-path)">
      <path id="Arrow_Down-2" data-name="Arrow Down" d="M472.786,46.684q2.2,2.276,4.307,4.642c-.093-.346-.182-.695-.274-1.04-.007.025-.011.053-.018.078a1.076,1.076,0,0,0,1.785,1.04,63.269,63.269,0,0,0,4.068-5.055c.887-1.044-.62-2.561-1.51-1.51a61.87,61.87,0,0,1-4.068,5.055c.595.346,1.19.695,1.785,1.04.228-.983-.72-1.642-1.314-2.294q-1.6-1.758-3.249-3.462c-.958-.994-2.469.517-1.51,1.507Z" transform="translate(-472.48 -44.484)"/>
    </g>
    <g id="Menu_Bars_Style_1" data-name="Menu Bars / Style 1" transform="translate(89 61)">
      <path id="Trazado_480" data-name="Trazado 480" d="M1722.075,10.03c-3.479-12.985-23.033-9.1-31.094-9.2C1677.139.651,1663.3.558,1649.463.475Q1583.65.088,1517.83.072,1426.691-.052,1335.544.01q-106.746.046-213.5.2Q1007.877.362,893.715.589q-112.1.217-224.207.486-100.6.232-201.209.516-80.587.232-161.181.475-51.756.155-103.505.331l-24.121.093c-33.444.145-66.887-.227-100.324.289-16.926.258-33.853.764-50.772,1.642C20.938,4.814,2.7.021.907,15.33-.805,29.988.415,46.764.449,61.587Q.47,73.549.629,85.521C.713,90.7.047,98.134,1.711,102.886c4.159,11.848,23.747,9.431,30.83,9.824,16.919.919,33.846-.6,50.758-1.188,53.988-1.849,108.156-.32,162.172-.785,23.92-.207,47.84-.207,71.753-.269q69.358-.17,138.709-.279,93.282-.155,186.563-.289,107.276-.155,214.552-.289,112.672-.155,225.344-.3,107.764-.155,215.522-.31,94.259-.139,188.525-.32,70.605-.139,141.2-.331c25.369-.072,50.737-.093,76.106-.341,5.081-.052,12.622,1.694,16.053-4.463,2.058-3.688,1.851-9.917,2.107-14.348.5-8.543.742-17.127.894-25.69.319-17.53.333-35.163-.665-52.641-.222-3.946-4.388-3.977-4.159,0,.991,17.478.978,35.122.665,52.641-.152,8.574-.395,17.148-.894,25.69-.485,8.316-4.3,11.662-9.5,12.561-2.793.486-5.794.062-8.6.083q-15.876.124-31.752.165-57.131.232-114.256.331-83.9.186-167.807.32-101.038.17-202.075.31-109.989.155-219.972.3-109.075.139-218.156.289-100.05.139-200.1.289-81.252.124-162.5.279-54.1.108-108.191.269c-56.629.2-113.258,1.343-169.886.785-16.559-.165-33.069.826-49.614,1.374-8.137.269-16.282.362-24.419-.155-7.042-.455-22.922,1.529-25.9-9.875-1.352-5.165-.3-14.565-.347-20.019q-.114-13.45-.069-26.92c.021-7.861.076-15.732.208-23.594.042-2.613-.347-6.167.187-8.625,1.781-8.223,10.335-5.991,15.006-6.27C74.164,7.851,128.366,8.9,182.549,8.677q36.337-.155,72.682-.248,68.412-.217,136.817-.413,91.764-.263,183.52-.5,106.007-.263,212.022-.506,112.048-.248,224.1-.434,109.979-.186,219.958-.3,98.813-.093,197.625-.083,78.726.015,157.452.207c33.776.093,67.552.176,101.328.578,4.443.052,27.85-3.337,30,4.69C1719.046,15.34,1723.066,13.749,1722.075,10.03Z" transform="translate(0.004 0.001)"/>
      <path id="Trazado_481" data-name="Trazado 481" d="M208,5.205q.388,28.933.776,57.86c.03,2.335,3.639,2.342,3.609,0q-.388-28.933-.776-57.86c-.03-2.335-3.639-2.341-3.609,0Z" transform="translate(-58.806 18.009)"/>
      <path id="Trazado_481-2" data-name="Trazado 481" d="M208,5.205q.388,28.933.776,57.86c.03,2.335,3.639,2.342,3.609,0q-.388-28.933-.776-57.86c-.03-2.335-3.639-2.341-3.609,0Z" transform="translate(177.421 18.009)"/>
      <path id="Trazado_481-3" data-name="Trazado 481" d="M208,5.205q.388,28.933.776,57.86c.03,2.335,3.639,2.342,3.609,0q-.388-28.933-.776-57.86c-.03-2.335-3.639-2.341-3.609,0Z" transform="translate(387.649 18.009)"/>
      <path id="Trazado_481-4" data-name="Trazado 481" d="M208,5.205q.388,28.933.776,57.86c.03,2.335,3.639,2.342,3.609,0q-.388-28.933-.776-57.86c-.03-2.335-3.639-2.341-3.609,0Z" transform="translate(567.876 18.009)"/>
      <text id="Movimientos-2" data-name="Movimientos" transform="translate(193 65)" font-size="29" font-family="TektonPro-Bold, Tekton Pro" font-weight="700"><tspan x="0" y="0">Movimientos</tspan></text>
      <text id="Categorias" transform="translate(429.227 64.098)" font-size="28" font-family="TektonPro-Bold, Tekton Pro" font-weight="700"><tspan x="0" y="0">Categorias</tspan></text>
      <text id="Graficas" transform="translate(639.455 64.098)" font-size="28" font-family="TektonPro-Bold, Tekton Pro" font-weight="700"><tspan x="0" y="0">Graficas</tspan></text>
      <text id="Moneda" transform="translate(1552.903 64.098)" font-size="28" font-family="TektonPro-Bold, Tekton Pro" font-weight="700"><tspan x="0" y="0">Moneda</tspan></text>
      <text id="Logo" transform="translate(47 65)" font-size="29" font-family="TektonPro-Bold, Tekton Pro" font-weight="700"><tspan x="0" y="0">Logo</tspan></text>
      <g id="Icon_-_Arrow_Down-3" data-name="Icon - Arrow Down" transform="translate(1670.924 51.541)">
        <path id="Arrow_Down-3" data-name="Arrow Down" d="M472.974,48.027q3.546,3.666,6.937,7.476c-.149-.557-.293-1.119-.442-1.675-.011.04-.017.086-.029.126a1.734,1.734,0,0,0,2.875,1.675c2.53-2.421,4.292-5.485,6.552-8.141,1.429-1.681-1-4.125-2.433-2.433-2.255,2.656-4.022,5.726-6.552,8.141.958.557,1.916,1.119,2.874,1.675.367-1.584-1.159-2.645-2.117-3.695q-2.573-2.831-5.232-5.577c-1.543-1.6-3.976.832-2.433,2.427Z" transform="translate(-472.48 -44.484)"/>
      </g>
    </g>
    <text id="Movimientos-3" data-name="Movimientos" transform="translate(194 301)" font-size="40" font-family="TektonPro-Bold, Tekton Pro" font-weight="700"><tspan x="-105.4" y="0">Movimientos</tspan></text>
    <g id="Form_Fields_Pill_Box_Normal-3" data-name="Form Fields / Pill Box / Normal" transform="translate(1044.274 -1340)">
      <text id="Seleccionar_Tipo" data-name="Seleccionar Tipo" transform="translate(138 1940)" font-size="18" font-family="TektonPro-Bold, Tekton Pro" font-weight="700"><tspan x="0" y="0">Seleccionar Tipo</tspan></text>
      <path id="Pill_Box-4" data-name="Pill Box" d="M487.09,5.233C478.411-1.7,465.211.252,454.52.28q-17,.042-34,.052Q394.937.358,369.356.37q-31.044.016-62.092.021Q273.593.4,239.918.4q-33.5,0-67-.01-30.249-.005-60.5-.024Q88.428.348,64.442.321,49.524.3,34.61.266C32.506.259,30.4.255,28.3.231,22.153.154,15.707.056,10.052,2.823,3.424,6.07-.232,13.256.009,20.512A15.541,15.541,0,0,0,10.8,35.334a37.509,37.509,0,0,0,12.481,1.751c2.334.007,4.671,0,7,0q15.446.005,30.893.007,24.216.005,48.435,0,30.223,0,60.449,0H305.08q31.405,0,62.807,0,26.183,0,52.363,0,18.2,0,36.408-.007c7.5,0,15.833.736,23.169-.945,6.586-1.51,11.878-5.463,13.238-12.349A19.806,19.806,0,0,0,487.09,5.233c-1.008-.886-2.494.59-1.479,1.479,5.881,5.156,8.058,15.607,3.073,22.126-4.043,5.288-11.829,6.115-17.986,6.15-1.96.01-3.921,0-5.881,0Q450.632,35,436.447,35q-23.023.005-46.042.007-29.182,0-58.36,0H200.071q-31.473,0-62.947,0-27.057,0-54.114,0Q63.174,35,43.338,35q-9.936,0-19.873-.007A38.541,38.541,0,0,1,12.6,33.712c-3.781-1.113-7.336-3.23-9.063-6.917A17.543,17.543,0,0,1,2.8,14.787C5.437,5.414,14.179,2.526,23.046,2.31c2.121-.052,4.238.007,6.359.021,7.106.056,14.215.049,21.321.063q20.438.037,40.88.045,27.591.021,55.185.031,31.772.01,63.54.017,33.4.005,66.808,0,32.133,0,64.269-.014,28.072-.01,56.148-.031Q418.778,2.427,440,2.4c7.723-.01,15.443-.014,23.166-.059,7.671-.045,16.085-.7,22.44,4.374C486.65,7.542,488.143,6.074,487.09,5.233Z" transform="translate(113.002 1914.994)"/>
    </g>
    <g id="Drop_Downs_Pill_Box_Action_2-2" data-name="Drop Downs / Pill Box / Action 2" transform="translate(239.069 -1195)">
      <g id="Drop_Down_List-2" data-name="Drop Down List" transform="translate(613 1595)">
        <rect id="Rectángulo_450-2" data-name="Rectángulo 450" width="123" height="83" transform="translate(2 2)"/>
        <path id="Box-2" data-name="Box" d="M125.455.1C108.181.423,90.9.609,73.624.457c-13.2-.116-26.4-.372-39.6-.432Q17.584-.058,1.147.1A1.068,1.068,0,0,0,0,1.017c0,4.827.405,9.666.5,14.5C.6,21.061.623,26.61.6,32.158.554,43.456.325,54.751.161,66.046.073,71.924,0,77.8,0,83.676a1.063,1.063,0,0,0,1.147.914c30.446-.256,60.869.515,91.308.4,11-.043,22-.2,33-.4a1.068,1.068,0,0,0,1.147-.914c-.008-22.045-.872-44.087-.531-66.132.084-5.506.531-11.024.531-16.527,0-1.175-2.294-1.179-2.294,0,0,4.827-.405,9.666-.5,14.5-.107,5.549-.126,11.1-.1,16.646.046,11.3.275,22.593.44,33.888.088,5.877.157,11.752.161,17.629l1.147-.914c-17.274.32-34.553.506-51.831.353-13.2-.116-26.4-.372-39.6-.432q-16.437-.078-32.874.082l1.147.914c.008-22.048.872-44.09.531-66.135C2.741,12.038,2.294,6.52,2.294,1.017l-1.147.914c30.446-.256,60.869.515,91.308.4,11-.043,22-.2,33-.4C126.931,1.9,126.935.076,125.455.1Z" transform="translate(0 0)"/>
        <text id="Ingreso" transform="translate(18 32)" fill="#fff" font-size="18" font-family="TektonPro-Bold, Tekton Pro" font-weight="700"><tspan x="0" y="0">Ingreso</tspan></text>
        <text id="Egreso" transform="translate(18 57)" fill="#fff" font-size="18" font-family="TektonPro-Bold, Tekton Pro" font-weight="700"><tspan x="0" y="0">Egreso</tspan></text>
      </g>
      <path id="Pill_Box-5" data-name="Pill Box" d="M215.345,16.151c-6.538-.268-13.066-.6-19.608-.806q-3.925-.125-7.847-.208a1.2,1.2,0,0,1-.759-.016c-13.156-.269-26.3-.224-39.467-.155q-26.741.14-53.487.285c-17.455.111-34.915.222-52.366.5-5.279.086-10.563.159-15.835.379C16.865,16.506,5.708,15.2-.094,9.023c-6.348-6.76-4.54-17.347,2.4-23.39,7.72-6.718,20.1-6.584,30.685-6.468,13.061.142,26.127.118,39.189.129q28,.02,56-.046c13.013-.031,26.03-.013,39.038-.211,5.794-.088,11.6,0,17.4.1,5.217.083,10.436.167,15.647.119,12.1-.11,26.092-1.483,36.188,4.877.027.016.055.033.082.052s.057.038.083.057a18.269,18.269,0,0,1,7.545,10.534,15.772,15.772,0,0,1-1.816,12.338c-2.255,3.594-6.538,5.964-11.215,7.348A47.377,47.377,0,0,1,217.847,16.2C217.009,16.2,216.174,16.185,215.345,16.151Zm-10.816-2.569c10.657.437,24.348,2.123,32.767-4.494,7.967-6.263,5.392-17.928-2.565-23.388l-.075-.045c-4.965-3.156-11.294-4.136-17.531-4.373-6.767-.258-13.568-.154-20.368-.049-2.884.045-5.768.089-8.648.106q.218,15.871.438,31.74Q196.538,13.26,204.529,13.583ZM27.437-18.792c-6.174.027-12.712.375-18.217,2.784A17.054,17.054,0,0,0-.577-5.623,13.7,13.7,0,0,0,1.549,7.236c2.932,3.577,8.207,5.38,13.328,6.235,6.1,1.015,12.326.491,18.5.351,6.617-.153,13.235-.239,19.851-.316,17.6-.205,35.2-.313,52.8-.414q24.2-.135,48.393-.25c10.688-.06,21.369-.02,32.049.195q-.217-15.847-.438-31.689-1.845,0-3.689-.018c-7.127-.08-14.231-.2-21.358-.14-14.638.122-29.281.143-43.924.167q-26.536.041-53.07.01C53.24-18.648,42.489-18.8,31.741-18.8Q29.589-18.8,27.437-18.792Z" transform="translate(427 1581)"/>
      <g id="Icon_-_Arrow_Down-4" data-name="Icon - Arrow Down" transform="translate(635.305 1576.96)" clip-path="url(#clip-path)">
        <path id="Arrow_Down-4" data-name="Arrow Down" d="M472.786,46.684q2.2,2.276,4.307,4.642c-.093-.346-.182-.695-.274-1.04-.007.025-.011.053-.018.078a1.076,1.076,0,0,0,1.785,1.04,63.269,63.269,0,0,0,4.068-5.055c.887-1.044-.62-2.561-1.51-1.51a61.87,61.87,0,0,1-4.068,5.055c.595.346,1.19.695,1.785,1.04.228-.983-.72-1.642-1.314-2.294q-1.6-1.758-3.249-3.462c-.958-.994-2.469.517-1.51,1.507Z" transform="translate(-472.48 -44.484)"/>
      </g>
      <text id="Filtrar_por_Tipo" data-name="Filtrar por Tipo" transform="translate(521 1585)" font-size="18" font-family="TektonPro-Bold, Tekton Pro" font-weight="700"><tspan x="-53.928" y="0">Filtrar por Tipo</tspan></text>
    </g>
    <g id="Icon_-_Download" data-name="Icon - Download" transform="translate(979 365)" clip-path="url(#clip-path-4)">
      <rect id="Square-9" data-name="Square" width="32" height="32" fill="none"/>
      <path id="Icon_-_Download-2" data-name="Icon - Download" d="M143.2-6022.849a1.956,1.956,0,0,1-2.109-1.853,58.5,58.5,0,0,1-.178-6.357,1.068,1.068,0,0,1,2.134,0c.048,1.824.1,3.648.142,5.472.016.773-.21.667.721.6.625-.046,1.262-.037,1.9-.028.316,0,.631.009.943.007l9.938-.076,9.938-.076,2.84-.022,1.222-.009a.61.61,0,0,1,.039-.267,9.27,9.27,0,0,0-.061-2.267q-.034-1.3-.069-2.591a1.068,1.068,0,0,1,2.134,0q.044,1.62.087,3.239a9.808,9.808,0,0,1-.011,2.683c-.4,1.424-1.783,1.336-2.986,1.344l-13.131.1c-3.243.025-6.533.192-9.8.192C145.65-6022.76,144.419-6022.784,143.2-6022.849Zm9.167-8.387a46.907,46.907,0,0,1-4.776-5.437c-.864-1.167-1.262-2.754.56-3.217a15.8,15.8,0,0,1,3.859-.225c-.034-1.388-.041-2.777-.071-4.165-.024-1.109-.381-2.738.181-3.791.873-1.637,3.994-1.275,5.525-1.275,1.572,0,4.785-.374,5.579,1.4.507,1.135.145,2.789.122,3.972-.025,1.284-.033,2.567-.064,3.85a13.36,13.36,0,0,1,4,.251c1.718.537,1.227,2.114.418,3.2a48.331,48.331,0,0,1-5.006,5.661c-1.442,1.405-2.9,3.162-5.048,3.166C155.406-6027.85,153.849-6029.77,152.363-6031.235Zm-2.715-6.234q.389.5.79.98,1.417,1.712,2.982,3.293c1.02,1.033,2.654,3.214,4.221,3.216s3.2-2.183,4.221-3.216q1.562-1.58,2.982-3.293.4-.484.79-.98a3.332,3.332,0,0,1,.16-.4c-.1,0-.185,0-.26,0-1.118-.042-2.237-.065-3.355-.126a1.086,1.086,0,0,1-1.067-1.067c.087-2.34.084-4.682.157-7.021.036-1.134.037-.951-1.208-1.029-.805-.051-1.613-.1-2.42-.095s-1.615.044-2.42.095c-.247.016-1.138-.042-1.331.2.07-.083.1.179.119.442.017.3.011.6,0,.389.074,2.34.07,4.682.157,7.021A1.083,1.083,0,0,1,153.1-6038c-1.118.061-2.237.083-3.355.126-.08,0-.169,0-.26,0A3.129,3.129,0,0,1,149.648-6037.47Z" transform="translate(-140.908 6052.38)" stroke="rgba(0,0,0,0)" stroke-width="1"/>
    </g>
    <g id="Tooltip_Pill_Tooltip_On_Left" data-name="Tooltip / Pill Tooltip / On Left" transform="translate(1245.821 3639.186) rotate(180)">
      <path id="Pill_Tooltip_-_On_Left" data-name="Pill Tooltip - On Left" d="M111.78,20.508c-.552-2.082-2.657-2.98-4.371-3.948-2.186-1.235-4.347-2.515-6.557-3.716a5.39,5.39,0,0,1-1.221-.666,5.1,5.1,0,0,1-.624-1.3,18.2,18.2,0,0,0-1.971-3.2A16.956,16.956,0,0,0,91.8,3.207C83.8-1.238,73.59.2,64.823.3,57.953.382,51.1.011,44.232.2,37.578.376,30.941.088,24.291.147,15.187.223,5.65,2.471,1.7,11.613c-3.237,7.49-2.057,17.35,5.218,22,7.49,4.781,16.413,3.213,24.771,3.157,2.727-.017,5.443.163,8.167.281,4.6.2,9.2.121,13.8.139,6.592.021,13.152-.583,19.744-.319,8.146.326,17.992.829,23.924-5.985a14.9,14.9,0,0,0,2.841-5.2l-.729.729c2.88-.652,5.766-1.284,8.646-1.936,2.089-.472,3.664-1.3,3.719-3.695a1.041,1.041,0,0,0-2.082,0c-.038,1.672-2.158,1.679-3.4,2-1.308.337-2.63.614-3.955.885a13.9,13.9,0,0,0-3.6.791c-.826.451-.968,1.79-1.35,2.571-1.849,3.771-5.6,5.929-9.516,7.018-7.417,2.061-15.268.382-22.856.725-7.688.35-15.393.5-23.092.274-2.605-.076-5.207-.274-7.816-.34-3.993-.1-7.959.229-11.945.354-8.212.26-17.7-2.363-19.723-11.386A18.365,18.365,0,0,1,4.335,10.953,16.572,16.572,0,0,1,15.458,3.078c7.678-1.783,15.907-.614,23.723-.683,2.852-.024,5.7-.135,8.555-.2,4.063-.1,8.122.08,12.181.173,6.959.16,13.961-.507,20.906.021,4.826.368,9.829,1.644,13.35,5.173A15.115,15.115,0,0,1,96.449,10.5c.545.912.85,2.4,1.568,3.14a11.14,11.14,0,0,0,2.5,1.388c1.155.638,2.3,1.3,3.442,1.953.951.545,1.9,1.093,2.859,1.631,1.034.579,2.623,1.173,2.959,2.446A1.04,1.04,0,0,0,111.78,20.508Z" transform="translate(113.002 3236.999)"/>
    </g>
    <text id="Exportar" transform="translate(1083 387)" font-size="16" font-family="TektonPro-Bold, Tekton Pro" font-weight="700"><tspan x="-29.576" y="0">Exportar</tspan></text>
    <g id="Icon_-_Arrow_Down-5" data-name="Icon - Arrow Down" transform="translate(1605.304 590.009)" clip-path="url(#clip-path)">
      <path id="Arrow_Down-5" data-name="Arrow Down" d="M472.786,46.684q2.2,2.276,4.307,4.642c-.093-.346-.182-.695-.274-1.04-.007.025-.011.053-.018.078a1.076,1.076,0,0,0,1.785,1.04,63.269,63.269,0,0,0,4.068-5.055c.887-1.044-.62-2.561-1.51-1.51a61.87,61.87,0,0,1-4.068,5.055c.595.346,1.19.695,1.785,1.04.228-.983-.72-1.642-1.314-2.294q-1.6-1.758-3.249-3.462c-.958-.994-2.469.517-1.51,1.507Z" transform="translate(-472.48 -44.484)"/>
    </g>
    <g id="Form_Fields_Pill_Box_Normal-4" data-name="Form Fields / Pill Box / Normal" transform="translate(1044.274 -1281.991)">
      <text id="Fecha" transform="translate(138 1940)" font-size="18" font-family="TektonPro-Bold, Tekton Pro" font-weight="700"><tspan x="0" y="0">Fecha</tspan></text>
      <path id="Pill_Box-6" data-name="Pill Box" d="M487.09,5.233C478.411-1.7,465.211.252,454.52.28q-17,.042-34,.052Q394.937.358,369.356.37q-31.044.016-62.092.021Q273.593.4,239.918.4q-33.5,0-67-.01-30.249-.005-60.5-.024Q88.428.348,64.442.321,49.524.3,34.61.266C32.506.259,30.4.255,28.3.231,22.153.154,15.707.056,10.052,2.823,3.424,6.07-.232,13.256.009,20.512A15.541,15.541,0,0,0,10.8,35.334a37.509,37.509,0,0,0,12.481,1.751c2.334.007,4.671,0,7,0q15.446.005,30.893.007,24.216.005,48.435,0,30.223,0,60.449,0H305.08q31.405,0,62.807,0,26.183,0,52.363,0,18.2,0,36.408-.007c7.5,0,15.833.736,23.169-.945,6.586-1.51,11.878-5.463,13.238-12.349A19.806,19.806,0,0,0,487.09,5.233c-1.008-.886-2.494.59-1.479,1.479,5.881,5.156,8.058,15.607,3.073,22.126-4.043,5.288-11.829,6.115-17.986,6.15-1.96.01-3.921,0-5.881,0Q450.632,35,436.447,35q-23.023.005-46.042.007-29.182,0-58.36,0H200.071q-31.473,0-62.947,0-27.057,0-54.114,0Q63.174,35,43.338,35q-9.936,0-19.873-.007A38.541,38.541,0,0,1,12.6,33.712c-3.781-1.113-7.336-3.23-9.063-6.917A17.543,17.543,0,0,1,2.8,14.787C5.437,5.414,14.179,2.526,23.046,2.31c2.121-.052,4.238.007,6.359.021,7.106.056,14.215.049,21.321.063q20.438.037,40.88.045,27.591.021,55.185.031,31.772.01,63.54.017,33.4.005,66.808,0,32.133,0,64.269-.014,28.072-.01,56.148-.031Q418.778,2.427,440,2.4c7.723-.01,15.443-.014,23.166-.059,7.671-.045,16.085-.7,22.44,4.374C486.65,7.542,488.143,6.074,487.09,5.233Z" transform="translate(113.002 1914.994)"/>
    </g>
    <g id="Icon_-_Calendar" data-name="Icon - Calendar" transform="translate(1605 645)">
      <rect id="Square-10" data-name="Square" width="13" height="13" fill="none"/>
      <path id="Icon_-_Calendar-2" data-name="Icon - Calendar" d="M2528.336-2080.723q-.034-3.188-.069-6.376a.436.436,0,0,0-.017-.108c-.212-1.209-1.607-1.172-2.736-1.116q0-.148.005-.295a.385.385,0,0,0-.769,0q0,.16-.006.322c-1.53-.008-3.06-.009-4.59.013,0-.107.005-.214,0-.321a.385.385,0,0,0-.77,0c0,.111,0,.223,0,.334l-.4.007c-.7.015-1.581-.1-2.014.583a1.637,1.637,0,0,0-.181.931l.013,3.191c0,1-.005,2.01.012,3.014a1.423,1.423,0,0,0,.335,1.04c.543.564,1.629.408,2.34.425,2.105.049,4.241.045,6.346-.019.766-.024,1.893.064,2.341-.7A1.682,1.682,0,0,0,2528.336-2080.723Zm-10.777-6.319c.089-.518,1.058-.525,1.793-.494a6.107,6.107,0,0,0,.008.641c.037.491.806.5.77,0a6.058,6.058,0,0,1-.008-.617q1.358-.018,2.716-.018c.635,0,1.269,0,1.9.006,0,.15.007.3.017.45.03.492.8.495.77,0-.009-.151-.014-.3-.017-.452.59-.027,1.922-.157,1.987.428q.006.576.013,1.153a37.319,37.319,0,0,0-4.287.038c-1.9.021-3.793-.1-5.69-.139A4.633,4.633,0,0,1,2517.559-2087.042Zm10.011,6.631c-.1.485-.558.459-.951.492-.435.036-.867.054-1.3.054-.936,0-1.871,0-2.807,0-.907.007-1.814.03-2.722.018-.548-.007-2.082.185-2.2-.485a10.986,10.986,0,0,1-.007-1.815q-.007-1.565-.013-3.131c1.834.038,3.668.156,5.5.139.9-.008,1.792-.031,2.689-.045a13.278,13.278,0,0,1,1.761,0l.032,2.908A9.809,9.809,0,0,1,2527.57-2080.412Z" transform="translate(-2516.79 2090.989)"/>
    </g>
    <g id="Form_Fields_Pill_Box_Normal-5" data-name="Form Fields / Pill Box / Normal" transform="translate(1044.274 -1221.224)">
      <text id="Valor" transform="translate(138 1940)" font-size="18" font-family="TektonPro-Bold, Tekton Pro" font-weight="700"><tspan x="0" y="0">Valor</tspan></text>
      <path id="Pill_Box-7" data-name="Pill Box" d="M487.09,5.233C478.411-1.7,465.211.252,454.52.28q-17,.042-34,.052Q394.937.358,369.356.37q-31.044.016-62.092.021Q273.593.4,239.918.4q-33.5,0-67-.01-30.249-.005-60.5-.024Q88.428.348,64.442.321,49.524.3,34.61.266C32.506.259,30.4.255,28.3.231,22.153.154,15.707.056,10.052,2.823,3.424,6.07-.232,13.256.009,20.512A15.541,15.541,0,0,0,10.8,35.334a37.509,37.509,0,0,0,12.481,1.751c2.334.007,4.671,0,7,0q15.446.005,30.893.007,24.216.005,48.435,0,30.223,0,60.449,0H305.08q31.405,0,62.807,0,26.183,0,52.363,0,18.2,0,36.408-.007c7.5,0,15.833.736,23.169-.945,6.586-1.51,11.878-5.463,13.238-12.349A19.806,19.806,0,0,0,487.09,5.233c-1.008-.886-2.494.59-1.479,1.479,5.881,5.156,8.058,15.607,3.073,22.126-4.043,5.288-11.829,6.115-17.986,6.15-1.96.01-3.921,0-5.881,0Q450.632,35,436.447,35q-23.023.005-46.042.007-29.182,0-58.36,0H200.071q-31.473,0-62.947,0-27.057,0-54.114,0Q63.174,35,43.338,35q-9.936,0-19.873-.007A38.541,38.541,0,0,1,12.6,33.712c-3.781-1.113-7.336-3.23-9.063-6.917A17.543,17.543,0,0,1,2.8,14.787C5.437,5.414,14.179,2.526,23.046,2.31c2.121-.052,4.238.007,6.359.021,7.106.056,14.215.049,21.321.063q20.438.037,40.88.045,27.591.021,55.185.031,31.772.01,63.54.017,33.4.005,66.808,0,32.133,0,64.269-.014,28.072-.01,56.148-.031Q418.778,2.427,440,2.4c7.723-.01,15.443-.014,23.166-.059,7.671-.045,16.085-.7,22.44,4.374C486.65,7.542,488.143,6.074,487.09,5.233Z" transform="translate(113.002 1914.994)"/>
    </g>
    <g id="Buttons_Pill_Button_Default_Cancel" data-name="Buttons / Pill Button / Default / Cancel" transform="translate(1094.857 230.776)">
      <path id="Pill_Button-2" data-name="Pill Button" d="M95.425,5.153C87.659-1.136,76.98.046,67.637.2,60.95.3,54.27-.122,47.587.046,41.057.207,34.57.193,28.04.091,18.924-.052,8.466.525,3.083,9.082c-4.261,6.771-4.5,17.383,1.772,23.063,6.785,6.148,16.292,5.107,24.692,4.866,6.9-.2,13.807.409,20.714.357,4.174-.031,8.337.042,12.507-.171,2.835-.143,5.659-.273,8.5-.213,8.473.171,17.806,1.493,24.978-4.184,6.739-5.334,6.98-15.817,3.041-22.9a17.643,17.643,0,0,0-3.862-4.747c-1.017-.877-2.506.6-1.482,1.482,6.079,5.257,8.207,16.233,2.831,22.755-5.582,6.767-15.5,5.851-23.266,5.561-5.844-.217-11.654.3-17.495.339-7.11.042-14.174-.192-21.27-.391-7.61-.217-15.425,1.433-22.8-1.087-3.967-1.353-7.333-3.929-8.8-7.952a18.323,18.323,0,0,1,.094-12.307,15.891,15.891,0,0,1,8.6-9.3c4.292-1.9,9.148-2.1,13.769-2.087,5.974.014,11.937.245,17.914.084,6.673-.178,13.314.1,19.983.091,7.889-.007,16.383-1.2,24.063,1.024a18.044,18.044,0,0,1,6.383,3.272C94.981,7.477,96.474,6,95.425,5.153Z" transform="translate(327.001 548.994)"/>
      <text id="Guardar" transform="translate(378 575)" font-size="18" font-family="TektonPro-Bold, Tekton Pro" font-weight="700"><tspan x="-30.519" y="0">Guardar</tspan></text>
    </g>
    <g id="Buttons_Pill_Button_Default_Cancel-2" data-name="Buttons / Pill Button / Default / Cancel" transform="translate(1221.857 230.776)">
      <path id="Pill_Button-3" data-name="Pill Button" d="M95.425,5.153C87.659-1.136,76.98.046,67.637.2,60.95.3,54.27-.122,47.587.046,41.057.207,34.57.193,28.04.091,18.924-.052,8.466.525,3.083,9.082c-4.261,6.771-4.5,17.383,1.772,23.063,6.785,6.148,16.292,5.107,24.692,4.866,6.9-.2,13.807.409,20.714.357,4.174-.031,8.337.042,12.507-.171,2.835-.143,5.659-.273,8.5-.213,8.473.171,17.806,1.493,24.978-4.184,6.739-5.334,6.98-15.817,3.041-22.9a17.643,17.643,0,0,0-3.862-4.747c-1.017-.877-2.506.6-1.482,1.482,6.079,5.257,8.207,16.233,2.831,22.755-5.582,6.767-15.5,5.851-23.266,5.561-5.844-.217-11.654.3-17.495.339-7.11.042-14.174-.192-21.27-.391-7.61-.217-15.425,1.433-22.8-1.087-3.967-1.353-7.333-3.929-8.8-7.952a18.323,18.323,0,0,1,.094-12.307,15.891,15.891,0,0,1,8.6-9.3c4.292-1.9,9.148-2.1,13.769-2.087,5.974.014,11.937.245,17.914.084,6.673-.178,13.314.1,19.983.091,7.889-.007,16.383-1.2,24.063,1.024a18.044,18.044,0,0,1,6.383,3.272C94.981,7.477,96.474,6,95.425,5.153Z" transform="translate(327.001 548.994)"/>
      <text id="Borrar" transform="translate(378 575)" font-size="18" font-family="TektonPro-Bold, Tekton Pro" font-weight="700"><tspan x="-24.408" y="0">Borrar</tspan></text>
    </g>
    <g id="Footer" transform="translate(89 975.811)">
      <text id="_2021" data-name="© 2021" transform="translate(0.308 68.751)" font-size="20" font-family="TektonPro-Bold, Tekton Pro" font-weight="700"><tspan x="0" y="0">© 2021</tspan></text>
      <text id="Proyecto_para_Fundamentos_de_ingeniería_de_software_-_Stella_Steinfeld_y_Alvaro_Rameau" data-name="Proyecto para Fundamentos de ingeniería de software - Stella Steinfeld y Alvaro Rameau" transform="translate(0 22)" font-size="20" font-family="TektonPro-Bold, Tekton Pro" font-weight="700"><tspan x="0" y="0">Proyecto para Fundamentos de ingeniería de software - Stella Steinfeld y Alvaro Rameau</tspan></text>
    </g>
    <g id="Radios_Default" data-name="Radios / Default" transform="translate(1033 -2972)">
      <text id="UYU" transform="translate(691 3182)" font-size="18" font-family="TektonPro-Bold, Tekton Pro" font-weight="700"><tspan x="-16.209" y="0">UYU</tspan></text>
      <path id="Oval" d="M1.778,7.925c.659-4.237,4.93-6.775,9.076-6.02,3.5.638,4.652,4.447,4.632,7.589-.035,4.969-6.342,6.274-10.1,4.676A5.913,5.913,0,0,1,1.807,7.691C1.93,6.57.174,6.578.051,7.691-.7,14.53,6.565,18.149,12.441,15.947A6.964,6.964,0,0,0,17.234,9.74C17.389,6,15.87,1.534,11.964.363,6.872-1.157.908,2.137.083,7.46-.09,8.563,1.6,9.041,1.778,7.925Z" transform="translate(646.003 3167.009)"/>
    </g>
    <g id="Radios_Checked_1" data-name="Radios / Checked 1" transform="translate(1033 -2972)">
      <text id="USD" transform="translate(690 3209)" font-size="18" font-family="TektonPro-Bold, Tekton Pro" font-weight="700"><tspan x="-16.668" y="0">USD</tspan></text>
      <g id="Oval-2" data-name="Oval" transform="translate(646.003 3194.009)">
        <path id="Oval-3" data-name="Oval" d="M1.778,7.925c.659-4.237,4.93-6.775,9.076-6.02,3.5.638,4.652,4.447,4.632,7.589-.035,4.969-6.342,6.274-10.1,4.676A5.913,5.913,0,0,1,1.807,7.691C1.93,6.57.174,6.578.051,7.691-.7,14.53,6.565,18.149,12.441,15.947A6.964,6.964,0,0,0,17.234,9.74C17.389,6,15.87,1.534,11.964.363,6.872-1.157.908,2.137.083,7.46-.09,8.563,1.6,9.041,1.778,7.925Z"/>
        <path id="Oval-4" data-name="Oval" d="M-1331.992-3316.49a1.014,1.014,0,0,1,.018-.118,1.023,1.023,0,0,1,.015-.117,2.923,2.923,0,0,1,4.037-2.014,2.941,2.941,0,0,1,1.1,3.777,2.557,2.557,0,0,1-2.3,1.276A2.7,2.7,0,0,1-1331.992-3316.49Z" transform="translate(1337.886 3324.656)"/>
      </g>
    </g>
    <g id="Radios_Checked_2" data-name="Radios / Checked 2" transform="translate(1033 -2972)">
      <text id="R_" data-name="R$" transform="translate(685 3236)" font-size="18" font-family="TektonPro-Bold, Tekton Pro" font-weight="700"><tspan x="-11.385" y="0">R$</tspan></text>
      <g id="Oval-5" data-name="Oval" transform="translate(646.003 3221.009)">
        <path id="Oval-6" data-name="Oval" d="M-1331.95-3338.3a1,1,0,0,1,.021-.123,1.018,1.018,0,0,1,.011-.108c.827-5.332,6.8-8.631,11.9-7.109,3.912,1.173,5.434,5.648,5.278,9.393a6.975,6.975,0,0,1-4.8,6.217,10.224,10.224,0,0,1-3.585.645C-1327.989-3329.382-1332.552-3332.8-1331.95-3338.3Z" transform="translate(1332 3346)"/>
        <path id="Oval-7" data-name="Oval" d="M-1331.992-3343.487a1.039,1.039,0,0,1,.018-.119,1.028,1.028,0,0,1,.015-.115,2.928,2.928,0,0,1,4.045-2.018,2.945,2.945,0,0,1,1.1,3.783,2.561,2.561,0,0,1-2.3,1.278A2.7,2.7,0,0,1-1331.992-3343.487Z" transform="translate(1337.896 3351.665)"/>
      </g>
    </g>
    <path id="Box-3" data-name="Box" d="M159.814.166C137.808.677,115.8.974,93.788.731,76.97.546,60.157.136,43.338.039,29.379-.049,15.42.02,1.461.166A1.485,1.485,0,0,0,0,1.627c0,7.72.516,15.459.633,23.184C.77,33.685.794,42.559.765,51.433.706,69.5.414,87.568.2,105.633c-.112,9.4-.2,18.8-.2,28.2a1.478,1.478,0,0,0,1.461,1.461c38.784-.409,77.54.823,116.315.638,14.013-.068,28.025-.317,42.038-.638a1.485,1.485,0,0,0,1.461-1.461c-.01-35.258-1.111-70.512-.677-105.77.107-8.806.677-17.632.677-26.433a1.462,1.462,0,0,0-2.922,0c0,7.72-.516,15.459-.633,23.184-.136,8.874-.161,17.748-.132,26.623.058,18.07.351,36.135.56,54.2.112,9.4.2,18.8.2,28.2l1.461-1.461c-22.005.511-44.015.809-66.026.565-16.818-.185-33.631-.594-50.45-.692-13.959-.083-27.918-.015-41.877.131l1.461,1.461c.01-35.263,1.11-70.516.677-105.775-.107-8.806-.677-17.632-.677-26.433L1.461,3.088c38.784-.409,77.54.823,116.315.638,14.013-.068,28.025-.317,42.038-.638C161.694,3.044,161.7.122,159.814.166Z" transform="translate(1650.725 164.838)"/>
  </g>
</svg>
